<svg width="17" height="16" viewBox="0 0 24 24" fill="none" xmlns="http://www.w3.org/2000/svg">
<g clip-path="url(#clip0_1_23506)">
<path d="M13.6797 23.8765C20.2418 22.9484 24.8091 16.8764 23.881 10.3143C22.9529 3.7522 16.8809 -0.815075 10.3188 0.11301C3.75666 1.0411 -0.810627 7.1131 0.117458 13.6752C1.04554 20.2373 7.11755 24.8046 13.6797 23.8765Z" fill="#F8F8F8"/>
<path d="M13.2368 21.9298C13.1343 21.9296 13.0352 21.8928 12.9574 21.8261C12.8797 21.7593 12.8283 21.667 12.8125 21.5657L12.0271 16.33C12.0186 16.2745 12.0212 16.2179 12.0346 16.1633C12.048 16.1088 12.072 16.0574 12.1052 16.0121C12.1385 15.9669 12.1803 15.9286 12.2284 15.8995C12.2764 15.8704 12.3297 15.8511 12.3852 15.8426C12.4407 15.8341 12.4974 15.8366 12.5519 15.85C12.6065 15.8634 12.6578 15.8874 12.7031 15.9206C12.7484 15.9539 12.7866 15.9957 12.8157 16.0438C12.8448 16.0918 12.8642 16.1451 12.8727 16.2006L13.661 21.4394C13.6774 21.5518 13.6487 21.6662 13.581 21.7575C13.5134 21.8489 13.4123 21.9097 13.3 21.9268L13.2368 21.9298Z" fill="#E0E0E0"/>
<path d="M2.95185 16.5888C2.85436 16.5905 2.75919 16.5589 2.68215 16.4991C2.60512 16.4393 2.55086 16.355 2.52837 16.2601C2.50588 16.1652 2.51651 16.0655 2.55852 15.9775C2.60052 15.8895 2.67136 15.8185 2.75927 15.7763L7.49849 13.4082C7.60024 13.3576 7.71795 13.3494 7.82574 13.3855C7.93352 13.4216 8.02254 13.4991 8.07321 13.6008C8.12389 13.7026 8.13206 13.8203 8.09595 13.9281C8.05983 14.0358 7.98238 14.1249 7.88063 14.1755L3.14442 16.5406C3.08507 16.572 3.01899 16.5885 2.95185 16.5888Z" fill="#E0E0E0"/>
<path d="M21.4965 13.7994H21.4273L16.2037 12.9298C16.0915 12.9114 15.9913 12.8493 15.925 12.757C15.8587 12.6648 15.8318 12.5499 15.8501 12.4378C15.8685 12.3257 15.9306 12.2254 16.0229 12.1591C16.1151 12.0928 16.23 12.0659 16.3421 12.0842L21.5567 12.9478C21.6679 12.9593 21.7701 13.0138 21.8415 13.0997C21.9129 13.1857 21.9478 13.2961 21.9388 13.4075C21.9297 13.5188 21.8774 13.6222 21.7931 13.6955C21.7087 13.7687 21.599 13.806 21.4875 13.7994H21.4965Z" fill="#E0E0E0"/>
<path d="M8.56962 8.92786C8.51358 8.92787 8.4581 8.91669 8.40643 8.89499C8.35476 8.87329 8.30795 8.8415 8.26872 8.80148L4.45929 4.93488C4.4137 4.89686 4.37653 4.84976 4.35016 4.79658C4.32378 4.74341 4.30878 4.68531 4.3061 4.62601C4.30342 4.56671 4.31312 4.50751 4.33459 4.45217C4.35607 4.39683 4.38884 4.34656 4.43081 4.30459C4.47279 4.26262 4.52305 4.22985 4.57839 4.20838C4.63373 4.18691 4.69293 4.1772 4.75223 4.17988C4.81153 4.18256 4.86962 4.19757 4.9228 4.22394C4.97598 4.25032 5.02308 4.28748 5.06109 4.33307L8.86451 8.19967C8.92377 8.25942 8.96407 8.33533 8.98036 8.41789C8.99664 8.50046 8.98819 8.58599 8.95605 8.66376C8.92391 8.74153 8.86952 8.80809 8.7997 8.85507C8.72989 8.90205 8.64776 8.92737 8.56361 8.92786H8.56962Z" fill="#E0E0E0"/>
<path d="M13.8746 8.1304C13.8065 8.13053 13.7393 8.114 13.679 8.08226C13.6289 8.05652 13.5844 8.02111 13.548 7.97809C13.5117 7.93507 13.4841 7.88528 13.4671 7.83158C13.45 7.77788 13.4437 7.72134 13.4486 7.66522C13.4535 7.60909 13.4694 7.55447 13.4955 7.50453L15.9358 2.80443C15.9926 2.71123 16.0828 2.64311 16.1879 2.61387C16.2931 2.58463 16.4055 2.59645 16.5022 2.64695C16.599 2.69744 16.673 2.78283 16.7092 2.88581C16.7453 2.9888 16.741 3.10169 16.6971 3.20162L14.2568 7.89871C14.2204 7.96862 14.1655 8.0272 14.0981 8.06806C14.0308 8.10892 13.9534 8.13048 13.8746 8.1304Z" fill="#E0E0E0"/>
<path d="M12.5086 17.0821C12.6212 17.0823 12.7294 17.0379 12.8095 16.9588L16.962 12.8725C17.0264 12.8091 17.0692 12.727 17.0843 12.6379C17.0994 12.5487 17.0861 12.4571 17.0462 12.376L14.4404 7.16136C14.4 7.08014 14.3347 7.01391 14.2541 6.97225C14.1735 6.93059 14.0817 6.91568 13.9921 6.92967L8.22976 7.79627C8.14038 7.8092 8.05745 7.85031 7.99305 7.91363C7.92865 7.97695 7.88613 8.05917 7.87169 8.14832L6.91181 13.8986C6.89731 13.9876 6.91134 14.0788 6.95187 14.1594C6.99241 14.2399 7.05738 14.3056 7.13749 14.3469L12.31 17.034C12.3714 17.0657 12.4395 17.0823 12.5086 17.0821Z" fill="#333333"/>
<path d="M20.8075 3.85151L16.2759 3.43025C16.1646 3.41944 16.062 3.36543 15.9901 3.2798L13.2549 0.0661621C16.0226 0.353302 18.6032 1.59735 20.5518 3.58371C20.6541 3.67097 20.7233 3.76124 20.8075 3.85151Z" fill="#333333"/>
<path d="M6.86053 1.15552L5.24769 4.89574C5.20427 4.99822 5.12206 5.07935 5.01901 5.12141L1.24268 6.67708C2.44393 4.25924 4.42229 2.3148 6.86053 1.15552Z" fill="#333333"/>
<path d="M3.73122 20.696C3.63494 20.6057 3.54166 20.5124 3.44838 20.4191C1.48482 18.4306 0.280578 15.8166 0.045166 13.032L3.23473 15.8364C3.2775 15.8745 3.3123 15.9207 3.33709 15.9724C3.36188 16.024 3.37618 16.0801 3.37916 16.1373L3.73122 20.696Z" fill="#333333"/>
<path d="M18.2167 22.2668C16.8311 23.1043 15.2905 23.653 13.6876 23.88C12.0846 24.107 10.4523 24.0076 8.88867 23.5878L13.0231 21.1324C13.1205 21.0763 13.2355 21.0591 13.345 21.0843L18.2167 22.2668Z" fill="#333333"/>
<path d="M22.1795 18.3551L21.0782 13.4654C21.0537 13.3561 21.0732 13.2416 21.1323 13.1465L23.6389 9.07227C24.0319 10.6382 24.1053 12.2674 23.8546 13.8623C23.6038 15.4573 23.0341 16.9853 22.1795 18.3551Z" fill="#333333"/>
</g>
<defs>
<clipPath id="clip0_1_23506">
<rect width="24" height="24" fill="white"/>
</clipPath>
</defs>
</svg>
