<svg width="17" height="16" viewBox="0 0 17 16" fill="none" xmlns="http://www.w3.org/2000/svg">
<g clip-path="url(#clip0_101_1649)">
<path d="M16.272 9.89871C17.3207 5.60668 14.6914 1.27719 10.3994 0.22853C6.10737 -0.820134 1.77788 1.80913 0.729219 6.10116C-0.319445 10.3932 2.30982 14.7227 6.60184 15.7713C10.8939 16.82 15.2234 14.1907 16.272 9.89871Z" fill="#EB5757"/>
<path d="M14.1174 13.6912C12.8035 14.9189 9.26088 13.4284 6.16961 10.3372C3.80852 7.97006 2.38024 5.35421 2.38024 3.65712C2.35404 3.19309 2.5078 2.73682 2.80953 2.3833C2.43719 2.75995 2.10135 3.17101 1.80652 3.61098V3.65712C1.80652 5.55281 3.36118 8.33716 5.76038 10.7364C8.29799 13.274 11.0021 14.7143 12.8817 14.6902C13.3248 14.3978 13.7387 14.0632 14.1174 13.6912Z" fill="#4F4F4F"/>
<path d="M3.05428 13.8495C2.91232 13.7243 2.77832 13.5903 2.65308 13.4483L13.945 2.14844C14.0873 2.27322 14.2214 2.40725 14.3462 2.54964L3.05428 13.8495Z" fill="#4F4F4F"/>
<path d="M7.9108 15.976C7.70441 15.9647 7.4988 15.942 7.29495 15.9078C7.22956 15.6617 7.19652 15.4082 7.19666 15.1535C7.19666 12.2909 11.4093 10.4554 12.9118 9.80549C14.2097 9.24982 15.4193 8.73026 16.4424 7.74731L16.4946 7.70117C16.4946 7.79947 16.4946 7.90177 16.4946 8.00007C16.4946 8.15855 16.4945 8.31903 16.4765 8.47349C15.4735 9.31802 14.3341 9.8095 13.1465 10.319C8.95794 12.1485 7.24279 13.9981 7.9108 15.976Z" fill="#4F4F4F"/>
<path d="M0.592915 9.20963C0.562825 9.00903 0.534741 8.80843 0.522705 8.58776C2.50666 9.25577 4.35219 7.54263 6.16964 3.36008C6.68318 2.15647 7.17265 1.02708 8.0212 0.0160481C8.17566 0.00601804 8.33614 0 8.49662 0C8.59291 0 8.69722 0 8.79351 0L8.74738 0.0501504C7.77446 1.07924 7.24888 2.29488 6.70124 3.57071C5.99111 5.21163 3.8888 10.0381 0.592915 9.20963Z" fill="#4F4F4F"/>
</g>
<defs>
<clipPath id="clip0_101_1649">
<rect width="16" height="16" fill="white" transform="translate(0.50061)"/>
</clipPath>
</defs>
</svg>
