<svg width="24" height="24" viewBox="0 0 24 24" fill="none" xmlns="http://www.w3.org/2000/svg">
<circle cx="12" cy="12" r="10.75" fill="#F3FDFF" stroke="#004556" stroke-width="2.5"/>
<path d="M11.3727 12.915C11.4269 13.4887 11.5188 13.915 11.6453 14.1962C11.7733 14.4766 12.0006 14.6164 12.3287 14.6164C12.39 14.6164 12.4449 14.6067 12.4993 14.5953C12.5551 14.6067 12.6097 14.6164 12.6715 14.6164C12.9987 14.6164 13.2267 14.4766 13.3541 14.1962C13.4812 13.915 13.5715 13.4887 13.6268 12.915L13.9181 8.48612C13.9723 7.62286 14 7.00346 14 6.62747C14 6.11573 13.8686 5.7164 13.605 5.4297C13.3404 5.14301 12.9929 5 12.5625 5C12.5395 5 12.5223 5.00521 12.4998 5.00612C12.4784 5.00521 12.4607 5 12.4384 5C12.0071 5 11.6602 5.14301 11.3961 5.4297C11.1323 5.71685 11 6.11641 11 6.6277C11 7.00369 11.027 7.62309 11.0821 8.48635L11.3727 12.915ZM12.5107 16.2353C12.0927 16.2353 11.7376 16.3692 11.4428 16.6371C11.1481 16.9052 11.0004 17.2307 11.0004 17.6128C11.0004 18.044 11.1499 18.3835 11.4465 18.6301C11.7445 18.8767 12.092 19 12.4893 19C12.8937 19 13.2463 18.8785 13.5479 18.6349C13.849 18.3919 13.9996 18.0506 13.9996 17.6132C13.9996 17.2311 13.8555 16.9057 13.5673 16.6375C13.2791 16.3692 12.9276 16.2353 12.5107 16.2353Z" fill="#004556"/>
</svg>
