<svg width="24" height="24" viewBox="0 0 24 24" fill="none" xmlns="http://www.w3.org/2000/svg">
<g clip-path="url(#clip0_101_1790)">
<path d="M0 14.5242C0.117085 14.0324 0.305598 13.5723 0.70954 13.2363C0.870563 13.1016 1.04751 12.9871 1.23642 12.8956C1.29338 12.876 1.3418 12.8373 1.3734 12.7861C1.405 12.7348 1.41784 12.6742 1.4097 12.6146C1.40151 11.9659 1.4097 11.3184 1.4097 10.6698C1.4097 10.1558 1.69656 9.87946 2.21407 9.8818C3.49441 9.8873 4.77201 10.0005 6.03337 10.2202C6.11989 10.2367 6.20945 10.2186 6.28276 10.1698C6.97802 9.53854 7.79987 9.06275 8.69353 8.77418C8.72866 8.76364 8.76262 8.74842 8.82234 8.72383C7.56602 7.57758 6.95835 6.17842 7.10704 4.49474C7.25415 3.24461 7.87504 2.09848 8.84185 1.29241C9.80865 0.486341 11.0478 0.0817028 12.304 0.161838C13.5602 0.241973 14.7378 0.800778 15.5944 1.72316C16.4509 2.64555 16.9211 3.86128 16.9082 5.11997C16.8614 6.55894 16.2607 7.74852 15.1777 8.71564C15.502 8.84794 15.8228 8.93458 16.0956 9.09967C16.6401 9.42868 17.1576 9.80218 17.6915 10.1534C17.7698 10.2067 17.8641 10.2311 17.9584 10.2225C19.2121 10.0045 20.4818 9.89131 21.7543 9.88414C22.314 9.88414 22.5856 10.1499 22.5868 10.7143C22.5868 11.3536 22.5868 11.994 22.5868 12.6345C22.5808 12.6904 22.5944 12.7467 22.6254 12.7938C22.6564 12.8408 22.7028 12.8755 22.7566 12.892C23.5188 13.2573 23.9391 13.8709 23.986 14.7127C24.0141 15.2349 24.0141 15.7583 23.986 16.2805C23.9438 17.1328 23.5176 17.7534 22.7495 18.121C22.6963 18.1392 22.651 18.1753 22.6213 18.2231C22.5916 18.2709 22.5794 18.3275 22.5868 18.3833C22.5868 19.0308 22.5868 19.6794 22.5868 20.3269C22.5868 20.8479 22.3187 21.1208 21.7953 21.1289C19.9606 21.1559 18.154 21.3631 16.3989 21.924C15.2611 22.2859 14.1701 22.7811 13.1486 23.3992C12.8161 23.6018 12.4754 23.7903 12.1393 23.9846H11.8583C11.6534 23.8676 11.4427 23.7692 11.2472 23.6428C10.1258 22.9201 8.91514 22.3466 7.64563 21.9368C5.87882 21.3666 4.05815 21.1535 2.20939 21.1278C1.67314 21.1196 1.41087 20.8491 1.4097 20.3082C1.4097 19.6607 1.4097 19.0132 1.4097 18.3657C1.4158 18.3135 1.40409 18.2606 1.37647 18.2158C1.34886 18.171 1.30694 18.1368 1.25749 18.1187C1.06338 18.0212 0.880114 17.9034 0.710712 17.7674C0.305599 17.4373 0.125282 16.9783 0.00117199 16.4865L0 14.5242ZM2.81003 19.7403C5.82028 19.8235 8.65139 20.5178 11.2671 22.0176C11.2742 21.9981 11.2801 21.9782 11.2846 21.9579C11.2846 19.2735 11.2846 16.5888 11.2846 13.9037C11.2815 13.8679 11.2708 13.8332 11.2532 13.8019C11.2357 13.7707 11.2116 13.7435 11.1828 13.7222C10.2612 13.1379 9.27992 12.6536 8.25564 12.2773C6.9625 11.8145 5.61577 11.5178 4.24783 11.3945C3.77949 11.3489 3.31116 11.3301 2.81355 11.2985C2.81355 11.7961 2.81355 12.2621 2.81941 12.7293C2.81941 12.7808 2.90019 12.8464 2.95873 12.8792C3.78535 13.2796 4.19749 13.9435 4.21739 14.8532C4.22559 15.2513 4.21739 15.6494 4.21739 16.0475C4.22559 17.0146 3.82281 17.7265 2.92946 18.1468C2.90067 18.1606 2.87526 18.1805 2.85502 18.2052C2.83479 18.2299 2.82023 18.2587 2.81237 18.2896C2.80886 18.7627 2.81237 19.2392 2.81237 19.7403H2.81003ZM21.1748 19.7403C21.1748 19.2369 21.1748 18.7615 21.1748 18.2873C21.1748 18.2346 21.094 18.1702 21.0354 18.1374C20.2158 17.7358 19.7967 17.0731 19.7779 16.1622C19.7686 15.7255 19.7686 15.2876 19.7779 14.8509C19.7967 13.9411 20.21 13.2773 21.0378 12.8792C21.0928 12.8522 21.1724 12.7949 21.1736 12.7504C21.1841 12.2703 21.1736 11.7891 21.1736 11.3091C20.0386 11.3307 18.9082 11.4581 17.7969 11.6896C16.0302 12.0589 14.3451 12.7452 12.8231 13.7152C12.7864 13.748 12.757 13.7883 12.7368 13.8332C12.7166 13.8782 12.7061 13.9269 12.706 13.9762C12.6998 16.5919 12.6998 19.2068 12.706 21.8209C12.706 21.8783 12.7154 21.938 12.7236 22.0223C15.3486 20.5119 18.175 19.8235 21.1771 19.7403H21.1748ZM11.9942 8.47912C12.9264 8.47603 13.8195 8.10368 14.4778 7.4436C15.1361 6.78352 15.5061 5.88948 15.5067 4.95722C15.5067 3.00308 13.9202 1.40488 11.9942 1.40605C10.0681 1.40722 8.48162 3.00659 8.48162 4.96191C8.48378 5.89366 8.85471 6.78667 9.51334 7.44574C10.172 8.10482 11.0647 8.47634 11.9965 8.47912H11.9942ZM16.0453 10.6838C16.0008 10.6487 15.9785 10.6276 15.9528 10.6112C15.879 10.5679 15.8053 10.5246 15.7292 10.4836C15.0052 10.0947 14.1952 9.89341 13.3734 9.89819C12.4918 9.89819 11.6089 9.88882 10.7273 9.89819C10.3612 9.90245 9.99599 9.93494 9.6349 9.99537C9.02697 10.1032 8.44829 10.3369 7.936 10.6815C7.97609 10.7043 8.01754 10.7246 8.06011 10.7424C9.39756 11.1735 10.6786 11.7631 11.8759 12.4986C11.9224 12.5147 11.9718 12.5208 12.0208 12.5166C12.0698 12.5123 12.1173 12.4978 12.1604 12.474C12.9542 12.076 13.734 11.6545 14.5361 11.2704C15.0114 11.0351 15.5196 10.877 16.0453 10.6838ZM2.81472 15.5171C2.81472 15.2829 2.82057 15.0487 2.81472 14.8146C2.81518 14.7223 2.79747 14.6309 2.76259 14.5455C2.72772 14.4601 2.67636 14.3824 2.61145 14.3168C2.54654 14.2512 2.46935 14.1991 2.3843 14.1634C2.29924 14.1276 2.20798 14.109 2.11573 14.1086C2.02347 14.1081 1.93202 14.1258 1.84661 14.1607C1.7612 14.1956 1.68351 14.2469 1.61795 14.3118C1.55239 14.3767 1.50026 14.4539 1.46453 14.539C1.4288 14.624 1.41016 14.7153 1.4097 14.8075C1.39917 15.2759 1.40034 15.7442 1.4097 16.2126C1.40924 16.3048 1.42695 16.3963 1.46183 16.4817C1.49671 16.5671 1.54808 16.6448 1.61299 16.7103C1.67789 16.7759 1.75507 16.828 1.84012 16.8638C1.92518 16.8995 2.01644 16.9181 2.1087 16.9186C2.20095 16.919 2.2924 16.9013 2.37781 16.8665C2.46322 16.8316 2.54092 16.7802 2.60648 16.7153C2.67204 16.6504 2.72418 16.5732 2.75991 16.4882C2.79564 16.4031 2.81426 16.3118 2.81472 16.2196C2.81706 15.9796 2.8112 15.7454 2.8112 15.5112L2.81472 15.5171ZM22.5856 15.5171C22.5856 15.2829 22.5926 15.0487 22.5856 14.8146C22.5856 14.6283 22.5116 14.4496 22.3799 14.3178C22.2481 14.1861 22.0694 14.1121 21.8831 14.1121C21.6968 14.1121 21.5181 14.1861 21.3864 14.3178C21.2546 14.4496 21.1806 14.6283 21.1806 14.8146C21.1712 15.2829 21.1712 15.7513 21.1806 16.2196C21.1806 16.4059 21.2546 16.5846 21.3864 16.7163C21.5181 16.8481 21.6968 16.9221 21.8831 16.9221C22.0694 16.9221 22.2481 16.8481 22.3799 16.7163C22.5116 16.5846 22.5856 16.4059 22.5856 16.2196C22.5891 15.9772 22.5821 15.7419 22.5821 15.5077L22.5856 15.5171Z" fill="#004556"/>
<path d="M2.81238 19.7406C2.81238 19.2395 2.81238 18.7641 2.81238 18.29C2.82023 18.259 2.83479 18.2302 2.85503 18.2055C2.87526 18.1808 2.90067 18.1609 2.92946 18.1471C3.81813 17.7268 4.21739 17.0149 4.21739 16.0478C4.21739 15.6497 4.22442 15.2516 4.21739 14.8535C4.19749 13.9438 3.78535 13.2799 2.95873 12.8795C2.90019 12.8514 2.82058 12.7811 2.81941 12.7296C2.80887 12.2613 2.81355 11.7929 2.81355 11.2988C3.3053 11.3304 3.77716 11.3492 4.24783 11.3948C5.61577 11.5181 6.96249 11.8148 8.25563 12.2777C9.27992 12.6539 10.2612 13.1382 11.1827 13.7225C11.2116 13.7438 11.2356 13.771 11.2532 13.8023C11.2708 13.8335 11.2815 13.8682 11.2846 13.904C11.2846 16.5883 11.2846 19.2731 11.2846 21.9582C11.2801 21.9785 11.2742 21.9984 11.2671 22.0179C8.65373 20.5192 5.82262 19.8238 2.81238 19.7406Z" fill="#F3FDFF"/>
<path d="M21.1771 19.7403C18.1751 19.8235 15.3487 20.5119 12.7154 22.0223C12.7072 21.9345 12.6979 21.8783 12.6979 21.8209C12.6979 19.206 12.6979 16.5912 12.6979 13.9763C12.698 13.927 12.7084 13.8782 12.7286 13.8333C12.7488 13.7883 12.7782 13.748 12.815 13.7152C14.337 12.7452 16.0221 12.0589 17.7887 11.6896C18.9 11.4581 20.0305 11.3307 21.1654 11.3091C21.1654 11.7891 21.1654 12.2703 21.1654 12.7504C21.1654 12.7949 21.0846 12.8523 21.0296 12.8792C20.2018 13.2773 19.7885 13.9411 19.7698 14.8509C19.7604 15.2876 19.7604 15.7255 19.7698 16.1622C19.7885 17.0732 20.2018 17.7358 21.0273 18.1375C21.0858 18.1656 21.1654 18.2346 21.1666 18.2873C21.1818 18.7627 21.1771 19.2369 21.1771 19.7403Z" fill="#F3FDFF"/>
<path d="M11.9965 8.47905C11.066 8.47565 10.1745 8.1045 9.51655 7.4465C8.85855 6.78851 8.4874 5.89705 8.48401 4.96651C8.48401 3.01119 10.0658 1.41182 11.9965 1.41065C13.9273 1.40947 15.5091 3.00768 15.5091 4.96183C15.5072 5.89327 15.1367 6.78611 14.4785 7.44518C13.8203 8.10425 12.928 8.47595 11.9965 8.47905Z" fill="#F3FDFF"/>
<path d="M16.0453 10.6839C15.5196 10.883 15.0115 11.0352 14.5361 11.2623C13.7341 11.6417 12.9543 12.0678 12.1604 12.4659C12.1174 12.4897 12.0698 12.5042 12.0208 12.5084C11.9718 12.5127 11.9224 12.5066 11.8759 12.4905C10.6786 11.755 9.39759 11.1653 8.06015 10.7343C8.01758 10.7165 7.97612 10.6962 7.93604 10.6734C8.44833 10.3288 9.027 10.0951 9.63493 9.98725C9.99603 9.92682 10.3612 9.89433 10.7273 9.89007C11.609 9.87719 12.4918 9.88422 13.3735 9.89007C14.1953 9.88529 15.0052 10.0866 15.7292 10.4755C15.8053 10.5165 15.8791 10.5598 15.9528 10.6031C15.9786 10.6219 16.002 10.6429 16.0453 10.6839Z" fill="white"/>
<path d="M2.81115 15.5116C2.81115 15.7457 2.817 15.9799 2.81115 16.2141C2.81068 16.3063 2.79206 16.3976 2.75633 16.4826C2.7206 16.5677 2.66846 16.6449 2.6029 16.7098C2.53734 16.7747 2.45965 16.8261 2.37424 16.8609C2.28883 16.8958 2.19739 16.9135 2.10514 16.9131C2.01288 16.9126 1.92162 16.894 1.83656 16.8582C1.75151 16.8225 1.67432 16.7704 1.60941 16.7048C1.5445 16.6393 1.49315 16.5616 1.45827 16.4761C1.42339 16.3907 1.40567 16.2993 1.40613 16.207C1.39793 15.7387 1.39676 15.2704 1.40613 14.802C1.40659 14.7098 1.42523 14.6185 1.46096 14.5335C1.49669 14.4484 1.54881 14.3712 1.61437 14.3063C1.67993 14.2414 1.75764 14.19 1.84305 14.1552C1.92846 14.1203 2.0199 14.1026 2.11215 14.103C2.20441 14.1035 2.29567 14.1221 2.38073 14.1579C2.46578 14.1936 2.54297 14.2457 2.60788 14.3113C2.67278 14.3768 2.72414 14.4545 2.75902 14.54C2.7939 14.6254 2.81161 14.7168 2.81115 14.8091C2.817 15.0432 2.81115 15.2774 2.81115 15.5116Z" fill="white"/>
<path d="M22.5821 15.508C22.5821 15.7422 22.5891 15.9764 22.5821 16.2105C22.5821 16.3969 22.5081 16.5755 22.3763 16.7073C22.2446 16.839 22.0659 16.9131 21.8796 16.9131C21.6933 16.9131 21.5146 16.839 21.3828 16.7073C21.2511 16.5755 21.1771 16.3969 21.1771 16.2105C21.1677 15.7422 21.1677 15.2739 21.1771 14.8055C21.1771 14.6192 21.2511 14.4405 21.3828 14.3088C21.5146 14.177 21.6933 14.103 21.8796 14.103C22.0659 14.103 22.2446 14.177 22.3763 14.3088C22.5081 14.4405 22.5821 14.6192 22.5821 14.8055C22.5891 15.0397 22.5821 15.2739 22.5821 15.508Z" fill="white"/>
</g>
<defs>
<clipPath id="clip0_101_1790">
<rect width="24" height="23.9883" fill="white"/>
</clipPath>
</defs>
</svg>
