<svg width="17" height="16" viewBox="0 0 17 16" fill="none" xmlns="http://www.w3.org/2000/svg">
<g clip-path="url(#clip0_101_1626)">
<path d="M16.36 9.22592C17.0588 4.86325 14.0887 0.760157 9.72601 0.0613703C5.36334 -0.637416 1.2602 2.33272 0.561411 6.69539C-0.137375 11.0581 2.83281 15.1612 7.19548 15.86C11.5581 16.5588 15.6612 13.5886 16.36 9.22592Z" fill="white"/>
<path d="M16.5006 7.9117V8C16.5006 8.09228 16.5006 8.17851 16.5006 8.27079C16.4983 8.27728 16.4983 8.28438 16.5006 8.29086C16.4943 8.31858 16.4903 8.34674 16.4885 8.3751C16.4845 8.40908 16.4845 8.44343 16.4885 8.47741C16.4725 8.72014 16.4525 8.94882 16.4163 9.17952C16.129 11.0737 15.1734 12.8025 13.7223 14.0535C12.2712 15.3044 10.4205 15.9948 8.50463 16H8.19369C6.62914 15.9394 5.11674 15.4212 3.84382 14.5096C2.5709 13.5979 1.59336 12.3328 1.03236 10.8711C0.471363 9.40931 0.351561 7.81513 0.687724 6.28592C1.02389 4.75672 1.80125 3.35973 2.92358 2.26801C4.04591 1.1763 5.46387 0.43782 7.00178 0.144062C8.53969 -0.149695 10.13 0.0141525 11.5757 0.615349C13.0213 1.21655 14.2589 2.22869 15.135 3.52633C16.0111 4.82397 16.4873 6.3501 16.5046 7.91572L16.5006 7.9117Z" fill="#FFEDAE"/>
<path d="M16.4966 8.15066C16.4966 8.35126 16.4846 8.55186 16.4605 8.75246C16.2034 8.82055 15.938 8.85161 15.6721 8.84473C13.947 8.81665 12.978 7.37027 12.1255 6.09645C11.8574 5.67922 11.5661 5.27738 11.2529 4.89284C9.84866 3.26395 7.73027 2.66215 5.95495 3.39435C4.44442 4.01621 3.47952 5.62905 3.54773 7.40638C3.63198 9.52674 5.20069 10.602 6.86368 11.7414L7.15058 11.942C8.15358 12.6281 9.42539 13.7474 9.0944 15.4846C9.06252 15.6561 9.01416 15.824 8.94997 15.9861C8.80353 15.9861 8.65509 15.9982 8.50865 15.9982C8.44446 15.9982 8.38023 15.9982 8.32005 15.9982C8.4193 15.8031 8.49088 15.5951 8.5327 15.3803C8.7333 14.289 8.21776 13.3743 6.82759 12.4154L6.54074 12.2148C4.83161 11.0473 3.07032 9.84372 2.97805 7.43048C2.90182 5.42446 4.01517 3.58896 5.75038 2.87281C7.74637 2.04834 10.1335 2.71634 11.6922 4.52577C12.024 4.92545 12.3296 5.34627 12.6069 5.78555C13.4214 6.99919 14.2659 8.25495 15.6882 8.27902C15.9632 8.28632 16.2373 8.24282 16.4966 8.15066Z" fill="#F4AA32"/>
<path d="M15.0201 9.05902C15.0016 9.07722 14.9807 9.09274 14.9579 9.10515C14.9253 9.1237 14.8893 9.13563 14.852 9.14022C14.8148 9.14481 14.777 9.14201 14.7408 9.13194C14.7046 9.12188 14.6708 9.10473 14.6413 9.08155C14.6118 9.05837 14.5871 9.02961 14.5688 8.99687C14.4603 8.78999 14.4361 8.54917 14.5011 8.32483C14.5662 8.1005 14.7155 7.91002 14.9178 7.79326C14.9498 7.77223 14.9857 7.7578 15.0233 7.75085C15.061 7.7439 15.0996 7.74458 15.137 7.75281C15.1744 7.76103 15.2097 7.77664 15.241 7.79874C15.2723 7.82085 15.2988 7.849 15.319 7.88151C15.3406 7.91333 15.3554 7.9492 15.3627 7.98696C15.37 8.02471 15.3694 8.06357 15.3612 8.10112C15.3529 8.13867 15.3371 8.17411 15.3147 8.20534C15.2922 8.23656 15.2637 8.2629 15.2308 8.28272C15.1542 8.32237 15.0954 8.38936 15.0661 8.47039C15.0367 8.55142 15.0389 8.64054 15.0723 8.72001C15.1013 8.7746 15.1118 8.8371 15.1024 8.89819C15.093 8.95927 15.0642 9.01567 15.0201 9.05902Z" fill="#EB5757"/>
<path d="M13.634 8.20862C13.5949 8.24826 13.545 8.27558 13.4905 8.28717C13.4361 8.29877 13.3794 8.29413 13.3275 8.27385C13.2756 8.25357 13.2309 8.21853 13.1987 8.17306C13.1665 8.1276 13.1484 8.07372 13.1465 8.01805C13.1421 7.7842 13.2287 7.55776 13.3882 7.38667C13.5477 7.21558 13.7675 7.11323 14.0011 7.10129C14.0766 7.09597 14.1512 7.12088 14.2084 7.17054C14.2656 7.2202 14.3007 7.29055 14.306 7.3661C14.3113 7.44165 14.2864 7.51623 14.2368 7.57341C14.1871 7.63059 14.1168 7.6657 14.0412 7.67102C13.9558 7.67451 13.8749 7.71015 13.8146 7.77078C13.7543 7.83141 13.7192 7.91259 13.7163 7.99802C13.7184 8.03697 13.7122 8.0759 13.698 8.11223C13.6838 8.14857 13.6619 8.18143 13.634 8.20862Z" fill="#EB5757"/>
<path d="M13.3551 6.54387C13.3241 6.5752 13.2862 6.59879 13.2444 6.61273C13.2025 6.62667 13.158 6.63055 13.1144 6.6241C13.0297 6.61148 12.9433 6.63165 12.8728 6.68047C12.8024 6.72928 12.7532 6.8031 12.7353 6.8869C12.7288 6.92378 12.7152 6.95902 12.6951 6.99062C12.675 7.02223 12.6489 7.04958 12.6183 7.07109C12.5876 7.0926 12.553 7.10785 12.5165 7.116C12.4799 7.12415 12.4422 7.12505 12.4053 7.1186C12.3684 7.11214 12.3331 7.09846 12.3015 7.07839C12.2699 7.05831 12.2426 7.03219 12.2211 7.00155C12.1996 6.9709 12.1843 6.93637 12.1762 6.89982C12.168 6.86328 12.1671 6.82548 12.1736 6.7886C12.2176 6.55955 12.3479 6.3561 12.5375 6.22025C12.7271 6.08439 12.9616 6.02645 13.1926 6.05839C13.2679 6.06884 13.3359 6.10872 13.3818 6.16926C13.4277 6.22981 13.4477 6.30611 13.4374 6.38138C13.4288 6.44317 13.3998 6.50035 13.3551 6.54387Z" fill="#EB5757"/>
<path d="M12.5427 5.35421C12.5107 5.38647 12.4714 5.41058 12.4281 5.42454C12.3848 5.4385 12.3388 5.44193 12.294 5.43448C12.2091 5.4221 12.1227 5.44292 12.0529 5.49262C11.983 5.54232 11.935 5.61703 11.9189 5.70125C11.9114 5.738 11.8967 5.77292 11.8757 5.804C11.8547 5.83508 11.8278 5.86173 11.7965 5.88241C11.7652 5.90309 11.7301 5.9174 11.6933 5.92453C11.6565 5.93165 11.6186 5.93145 11.5818 5.92394C11.5451 5.91643 11.5102 5.90174 11.4791 5.88074C11.448 5.85974 11.4214 5.83285 11.4007 5.80155C11.38 5.77026 11.3657 5.73519 11.3586 5.69836C11.3515 5.66154 11.3517 5.62369 11.3592 5.58694C11.4068 5.35833 11.5402 5.15665 11.732 5.02343C11.9238 4.89022 12.1594 4.83559 12.3902 4.87078C12.4271 4.87709 12.4624 4.89059 12.4941 4.91055C12.5257 4.9305 12.5532 4.95649 12.5748 4.98704C12.5964 5.0176 12.6118 5.05212 12.62 5.08862C12.6283 5.12512 12.6293 5.16286 12.623 5.19974C12.6137 5.25857 12.5855 5.31278 12.5427 5.35421Z" fill="#EB5757"/>
<path d="M10.972 4.80662C10.9458 4.83321 10.9146 4.85436 10.8802 4.86882C10.8457 4.88328 10.8088 4.8908 10.7714 4.89091C10.6957 4.88829 10.6241 4.8558 10.5722 4.80055C10.5203 4.7453 10.4925 4.67173 10.4946 4.59598C10.4955 4.36239 10.587 4.13826 10.7497 3.97067C10.9124 3.80308 11.1338 3.70507 11.3673 3.69729C11.4068 3.69397 11.4466 3.69893 11.4842 3.71179C11.5217 3.72465 11.5562 3.74516 11.5854 3.77203C11.6146 3.79889 11.6379 3.83153 11.6539 3.86787C11.6698 3.90421 11.6781 3.94347 11.6781 3.98316C11.6781 4.02285 11.6698 4.0621 11.6539 4.09844C11.6379 4.13479 11.6146 4.16742 11.5854 4.19429C11.5562 4.22116 11.5217 4.24167 11.4842 4.25453C11.4466 4.26739 11.4068 4.27234 11.3673 4.26902C11.2823 4.27759 11.2037 4.31785 11.1472 4.38181C11.0907 4.44577 11.0604 4.52872 11.0623 4.61405C11.0607 4.65052 11.0519 4.6863 11.0364 4.71935C11.0209 4.7524 10.999 4.78206 10.972 4.80662Z" fill="#EB5757"/>
<path d="M9.89879 4.02404C9.86144 4.06079 9.81511 4.08705 9.7644 4.10024C9.69045 4.11773 9.61257 4.10519 9.54788 4.06532C9.48319 4.02546 9.43695 3.96156 9.41932 3.88764C9.36007 3.663 9.38952 3.42414 9.50155 3.2206C9.61359 3.01707 9.79963 2.86443 10.0211 2.79432C10.0572 2.78418 10.095 2.78126 10.1322 2.78571C10.1694 2.79015 10.2054 2.80188 10.2381 2.82023C10.2708 2.83858 10.2995 2.86316 10.3227 2.89262C10.3459 2.92208 10.3631 2.95585 10.3732 2.99194C10.3834 3.02803 10.3863 3.06574 10.3818 3.10297C10.3774 3.14019 10.3657 3.17621 10.3473 3.2089C10.329 3.24159 10.3044 3.27035 10.2749 3.29353C10.2455 3.31671 10.2117 3.33383 10.1756 3.34397C10.0968 3.37508 10.0326 3.43458 9.99547 3.51068C9.95834 3.58679 9.95103 3.674 9.97499 3.75521C9.98645 3.80279 9.98546 3.85251 9.9721 3.89959C9.95875 3.94668 9.93352 3.98956 9.89879 4.02404Z" fill="#EB5757"/>
<path d="M8.66704 3.55086C8.64778 3.56958 8.62624 3.58576 8.60288 3.599C8.53679 3.63512 8.45909 3.64379 8.38666 3.62315C8.31422 3.6025 8.25281 3.5542 8.21568 3.48866C8.09672 3.28729 8.06059 3.04761 8.11485 2.8201C8.1691 2.59259 8.30955 2.39504 8.5066 2.26903C8.53907 2.24835 8.57534 2.2344 8.61331 2.22804C8.65129 2.22169 8.69018 2.22307 8.72762 2.23206C8.76506 2.24104 8.8003 2.25745 8.83125 2.28035C8.8622 2.30324 8.88825 2.33215 8.9078 2.36532C8.92905 2.39762 8.94345 2.43395 8.95011 2.47204C8.95677 2.51013 8.95551 2.54919 8.94649 2.58679C8.93746 2.62438 8.92083 2.6597 8.89761 2.69061C8.87439 2.72153 8.84511 2.74738 8.81151 2.76652C8.74281 2.81689 8.69545 2.89114 8.67874 2.97467C8.66204 3.0582 8.67716 3.14496 8.7212 3.21788C8.74883 3.27191 8.75847 3.33336 8.74873 3.39326C8.73899 3.45316 8.71036 3.50836 8.66704 3.55086Z" fill="#EB5757"/>
<path d="M7.36521 3.46037C7.3116 3.51281 7.2396 3.54216 7.16461 3.54216C7.08962 3.54216 7.01761 3.51281 6.96401 3.46037C6.79174 3.30317 6.68654 3.08576 6.67011 2.85313C6.65368 2.6205 6.72729 2.39047 6.87575 2.21062C6.92641 2.15514 6.99683 2.12175 7.07185 2.11762C7.14687 2.11349 7.22052 2.13894 7.27696 2.18854C7.3049 2.21334 7.32766 2.24344 7.3439 2.27708C7.36015 2.31073 7.36957 2.34723 7.37162 2.38454C7.37368 2.42184 7.36831 2.45922 7.35585 2.49444C7.3434 2.52966 7.32409 2.56203 7.29904 2.58974C7.25052 2.66036 7.23 2.74652 7.2415 2.83143C7.25299 2.91635 7.29564 2.99395 7.36119 3.04913C7.41411 3.10248 7.44381 3.17458 7.44381 3.24973C7.44381 3.32488 7.41411 3.39698 7.36119 3.45033L7.36521 3.46037Z" fill="#EB5757"/>
<path d="M6.11545 3.78319C6.0738 3.82443 6.02054 3.8519 5.96279 3.86195C5.90505 3.87199 5.84563 3.86407 5.79251 3.83932C5.57769 3.74853 5.4062 3.57828 5.31387 3.36411C5.22155 3.14994 5.21554 2.9084 5.29703 2.68988C5.32602 2.61991 5.38162 2.56438 5.45159 2.53541C5.52157 2.50644 5.60016 2.50641 5.67012 2.53541C5.74008 2.5644 5.79567 2.62005 5.82464 2.69002C5.8536 2.76 5.85358 2.83859 5.82459 2.90855C5.80053 2.99004 5.80776 3.07758 5.84486 3.15401C5.88197 3.23045 5.94628 3.29029 6.02519 3.3218C6.09355 3.35402 6.14644 3.41189 6.17236 3.48288C6.19828 3.55387 6.19511 3.63223 6.16359 3.70092C6.15253 3.73096 6.13623 3.75884 6.11545 3.78319Z" fill="#EB5757"/>
<path d="M5.06427 4.51358C5.03566 4.54259 5.00116 4.56511 4.96309 4.57965C4.92502 4.59418 4.88431 4.60037 4.84364 4.59782C4.61031 4.58907 4.3893 4.49083 4.22646 4.32351C4.06361 4.15618 3.97141 3.9326 3.96899 3.69912C3.97669 3.62736 4.01117 3.56118 4.06552 3.5137C4.11988 3.46623 4.19011 3.44096 4.26226 3.44298C4.3344 3.44501 4.40312 3.47418 4.45473 3.52463C4.50634 3.57508 4.53707 3.64311 4.54073 3.71519C4.54073 3.91579 4.74132 4.0161 4.88174 4.02814C4.91936 4.03043 4.95615 4.04013 4.98998 4.05674C5.0238 4.07335 5.054 4.0965 5.07882 4.12486C5.10363 4.15322 5.12258 4.18625 5.13455 4.22198C5.14652 4.25771 5.15128 4.29547 5.14856 4.33306C5.1433 4.40146 5.11332 4.46561 5.06427 4.51358Z" fill="#EB5757"/>
<path d="M4.3161 5.56857C4.28265 5.60376 4.24043 5.62941 4.19376 5.64282C3.97075 5.71235 3.72947 5.69288 3.52045 5.58856C3.31144 5.48424 3.15089 5.30315 3.07238 5.08313C3.0532 5.01238 3.0618 4.93693 3.09648 4.87234C3.13115 4.80776 3.18926 4.75891 3.25883 4.7358C3.3284 4.7127 3.40417 4.71713 3.4706 4.74814C3.53702 4.77916 3.58905 4.83439 3.616 4.90256C3.64905 4.98128 3.71058 5.04467 3.7883 5.08C3.86602 5.11533 3.95424 5.11999 4.03528 5.09312C4.07177 5.08277 4.10992 5.07981 4.14758 5.08431C4.18524 5.08881 4.22162 5.10072 4.25464 5.11937C4.28766 5.13803 4.31666 5.16305 4.33995 5.19298C4.36324 5.22292 4.38038 5.25713 4.39035 5.29373C4.40338 5.34201 4.40334 5.39291 4.3903 5.44119C4.37726 5.48947 4.35166 5.53342 4.3161 5.56857Z" fill="#EB5757"/>
<path d="M3.93286 6.82243C3.91877 6.83604 3.90332 6.84812 3.88673 6.85853C3.69478 6.99134 3.45885 7.04467 3.22845 7.00727C2.99806 6.96986 2.79107 6.84464 2.65099 6.65793C2.62847 6.62734 2.61235 6.59257 2.60358 6.55562C2.59481 6.51867 2.59359 6.48032 2.59996 6.44288C2.60632 6.40544 2.62017 6.36966 2.64066 6.33768C2.66115 6.3057 2.68785 6.27815 2.71921 6.25672C2.78155 6.21285 2.85872 6.19541 2.93387 6.20819C3.00902 6.22097 3.07607 6.26294 3.12041 6.32495C3.1761 6.38971 3.25428 6.43092 3.33919 6.44023C3.42409 6.44954 3.50939 6.42625 3.57779 6.3751C3.63726 6.33838 3.70809 6.32464 3.77697 6.33646C3.84586 6.34827 3.90803 6.38483 3.95186 6.43925C3.9957 6.49368 4.01818 6.56225 4.01504 6.63207C4.01191 6.70189 3.98341 6.76814 3.93487 6.81842L3.93286 6.82243Z" fill="#EB5757"/>
<path d="M3.90075 8.17667C3.75245 8.33543 3.55169 8.43507 3.33557 8.4572C3.11946 8.47933 2.90264 8.42246 2.72525 8.29705C2.69535 8.27453 2.67015 8.24634 2.65115 8.21409C2.63214 8.18184 2.61968 8.14616 2.61447 8.10909C2.60925 8.07202 2.61142 8.03426 2.62078 7.99801C2.63015 7.96177 2.64655 7.92776 2.66907 7.89786C2.6916 7.86796 2.71979 7.84276 2.75204 7.82376C2.78429 7.80476 2.81997 7.79229 2.85704 7.78708C2.89411 7.78186 2.93182 7.78398 2.96807 7.79335C3.00431 7.80271 3.03837 7.81916 3.06827 7.84168C3.14231 7.88478 3.22974 7.89876 3.31354 7.88096C3.39733 7.86316 3.4715 7.81487 3.52163 7.7454C3.57036 7.68817 3.63936 7.65199 3.71415 7.64451C3.78895 7.63703 3.86373 7.65879 3.92283 7.70524C3.95169 7.72907 3.97558 7.75837 3.99311 7.79144C4.01065 7.8245 4.0215 7.8607 4.02504 7.89796C4.02858 7.93522 4.02473 7.97282 4.01373 8.00859C4.00274 8.04437 3.98479 8.0776 3.96094 8.10644C3.94288 8.1265 3.92281 8.1506 3.90075 8.17667Z" fill="#EB5757"/>
<path d="M4.2097 9.60303C4.10185 9.71457 3.96598 9.79501 3.81633 9.83596C3.66668 9.8769 3.50876 9.87681 3.35915 9.83571C3.29066 9.81155 3.23388 9.76228 3.20027 9.6979C3.16667 9.63351 3.15874 9.55878 3.17809 9.48877C3.19744 9.41877 3.24264 9.35874 3.30454 9.32074C3.36644 9.28274 3.44043 9.26962 3.51161 9.28406C3.59711 9.3025 3.68642 9.28739 3.76109 9.24184C3.83576 9.19629 3.89008 9.12379 3.91281 9.03933C3.93622 8.96724 3.98731 8.90738 4.05484 8.87296C4.12237 8.83854 4.20084 8.83236 4.27293 8.85577C4.34502 8.87918 4.40482 8.93027 4.43925 8.9978C4.47367 9.06533 4.47984 9.14375 4.45644 9.21584C4.40604 9.36262 4.32147 9.49536 4.2097 9.60303Z" fill="#EB5757"/>
<path d="M5.02217 10.8003C4.86259 10.9609 4.64673 11.053 4.42037 11.0571C4.34869 11.0511 4.28188 11.0183 4.23319 10.9654C4.18449 10.9125 4.15747 10.8431 4.15747 10.7712C4.15747 10.6993 4.18449 10.63 4.23319 10.577C4.28188 10.5241 4.34869 10.4914 4.42037 10.4853C4.50568 10.4792 4.58539 10.4407 4.64321 10.3777C4.70102 10.3146 4.73256 10.2319 4.73131 10.1463C4.73865 10.0747 4.77272 10.0084 4.82671 9.96063C4.88071 9.9129 4.95066 9.88722 5.02271 9.88874C5.09476 9.89025 5.16359 9.91885 5.21553 9.96881C5.26747 10.0188 5.29868 10.0864 5.303 10.1583C5.29615 10.4006 5.19547 10.6308 5.02217 10.8003Z" fill="#EB5757"/>
<path d="M6.09941 11.755C5.97037 11.8861 5.80329 11.9731 5.62195 12.0038C5.54694 12.016 5.47019 11.9978 5.40851 11.9534C5.34684 11.9091 5.30529 11.842 5.29298 11.767C5.28668 11.7301 5.28775 11.6924 5.29617 11.6559C5.30458 11.6194 5.32017 11.585 5.34201 11.5545C5.36384 11.5241 5.39148 11.4983 5.42335 11.4787C5.45523 11.459 5.49069 11.4459 5.52767 11.4401C5.61218 11.4235 5.68715 11.3751 5.73714 11.305C5.78713 11.2349 5.80837 11.1482 5.7965 11.0629C5.79175 11.0258 5.79435 10.9881 5.80418 10.9519C5.81402 10.9158 5.83088 10.882 5.8538 10.8524C5.87671 10.8228 5.90524 10.798 5.93774 10.7794C5.97024 10.7608 6.00609 10.7487 6.04323 10.744C6.08038 10.7393 6.11808 10.7419 6.15421 10.7517C6.19034 10.7615 6.22416 10.7784 6.25378 10.8013C6.28339 10.8242 6.30825 10.8527 6.32685 10.8852C6.34544 10.9177 6.35742 10.9536 6.36216 10.9907C6.38013 11.1298 6.36577 11.2711 6.32019 11.4036C6.2746 11.5362 6.19908 11.6565 6.09941 11.755Z" fill="#EB5757"/>
<path d="M7.28299 12.5898C7.15839 12.715 7.00024 12.8014 6.82762 12.8386C6.75367 12.8548 6.67629 12.841 6.61252 12.8002C6.54875 12.7594 6.50381 12.6949 6.48758 12.6209C6.47136 12.547 6.48521 12.4696 6.52603 12.4058C6.56685 12.3421 6.63133 12.2971 6.70528 12.2809C6.78923 12.2648 6.86384 12.2171 6.91381 12.1477C6.96379 12.0784 6.98532 11.9926 6.97405 11.9078C6.96506 11.8699 6.96387 11.8305 6.97058 11.7921C6.97729 11.7538 6.99176 11.7171 7.01309 11.6845C7.03441 11.6519 7.06216 11.624 7.09463 11.6025C7.1271 11.581 7.1636 11.5663 7.20194 11.5593C7.24027 11.5524 7.27965 11.5533 7.31761 11.562C7.35558 11.5708 7.39134 11.5872 7.42276 11.6102C7.45419 11.6332 7.48062 11.6624 7.50039 11.696C7.52016 11.7296 7.53286 11.7669 7.53776 11.8055C7.56167 11.9471 7.55097 12.0924 7.50661 12.2289C7.46225 12.3655 7.38554 12.4893 7.28299 12.5898Z" fill="#EB5757"/>
<path d="M8.46651 13.4243C8.28512 13.6017 8.04225 13.7024 7.7885 13.7051C7.71295 13.7051 7.64049 13.6751 7.58707 13.6217C7.53365 13.5683 7.50366 13.4958 7.50366 13.4203C7.50366 13.3447 7.53365 13.2723 7.58707 13.2189C7.64049 13.1655 7.71295 13.1354 7.7885 13.1354C7.87421 13.1402 7.95857 13.1126 8.02476 13.0579C8.09094 13.0032 8.1341 12.9256 8.14558 12.8405C8.14376 12.801 8.15013 12.7616 8.16429 12.7247C8.17844 12.6877 8.2001 12.6541 8.22785 12.626C8.25561 12.5978 8.28889 12.5757 8.32561 12.561C8.36232 12.5464 8.40167 12.5394 8.44119 12.5407C8.48071 12.5419 8.51954 12.5513 8.55525 12.5683C8.59097 12.5853 8.62277 12.6095 8.6487 12.6393C8.67462 12.6692 8.6941 12.704 8.7059 12.7418C8.7177 12.7795 8.72156 12.8193 8.71726 12.8586C8.71029 13.0726 8.62037 13.2754 8.46651 13.4243Z" fill="#EB5757"/>
<path d="M9.32309 14.61C9.17928 14.7386 8.99965 14.8201 8.80821 14.8438C8.61677 14.8674 8.42269 14.8321 8.2519 14.7424C8.18867 14.7064 8.14146 14.6478 8.11982 14.5784C8.09817 14.5089 8.10369 14.4339 8.13529 14.3684C8.1669 14.3029 8.22223 14.2518 8.29006 14.2255C8.35788 14.1992 8.43316 14.1997 8.50065 14.2268C8.59092 14.271 8.8497 14.3452 8.96204 14.1506C8.99902 14.0847 9.06066 14.0361 9.13345 14.0156C9.20625 13.9951 9.2842 14.0043 9.35017 14.0413C9.41614 14.0783 9.46474 14.1399 9.48524 14.2127C9.50575 14.2855 9.49651 14.3635 9.45953 14.4294C9.42262 14.4956 9.37668 14.5564 9.32309 14.61Z" fill="#EB5757"/>
</g>
<defs>
<clipPath id="clip0_101_1626">
<rect width="16" height="16" fill="white" transform="translate(0.50061)"/>
</clipPath>
</defs>
</svg>
