<svg width="28" height="30" viewBox="0 0 28 30" fill="none" xmlns="http://www.w3.org/2000/svg">
<g filter="url(#filter0_d_101_1798)">
<path d="M16.25 16.7383V18.6133C16.25 19.1106 16.0525 19.5875 15.7008 19.9391C15.3492 20.2907 14.8723 20.4883 14.375 20.4883H6.875C6.37772 20.4883 5.90081 20.2907 5.54917 19.9391C5.19754 19.5875 5 19.1106 5 18.6133V7.36328C5 6.866 5.19754 6.38909 5.54917 6.03746C5.90081 5.68583 6.37772 5.48828 6.875 5.48828H14C15.0355 5.48828 16.25 6.32781 16.25 7.36328V9.23828" fill="#F3FDFF"/>
<path d="M16.25 16.7383V18.6133C16.25 19.1106 16.0525 19.5875 15.7008 19.9391C15.3492 20.2907 14.8723 20.4883 14.375 20.4883H6.875C6.37772 20.4883 5.90081 20.2907 5.54917 19.9391C5.19754 19.5875 5 19.1106 5 18.6133V7.36328C5 6.866 5.19754 6.38909 5.54917 6.03746C5.90081 5.68583 6.37772 5.48828 6.875 5.48828H14C15.0355 5.48828 16.25 6.32781 16.25 7.36328V9.23828" stroke="#004556" stroke-width="1.5" stroke-linecap="round" stroke-linejoin="round"/>
<path d="M19.25 16.7383L23 12.9883L19.25 9.23828" stroke="#004556" stroke-width="1.5" stroke-linecap="round" stroke-linejoin="round"/>
<path d="M10.25 12.9883H22.25" stroke="#004556" stroke-width="1.5" stroke-linecap="round" stroke-linejoin="round"/>
</g>
<defs>
<filter id="filter0_d_101_1798" x="-2" y="0.988281" width="32" height="32" filterUnits="userSpaceOnUse" color-interpolation-filters="sRGB">
<feFlood flood-opacity="0" result="BackgroundImageFix"/>
<feColorMatrix in="SourceAlpha" type="matrix" values="0 0 0 0 0 0 0 0 0 0 0 0 0 0 0 0 0 0 127 0" result="hardAlpha"/>
<feOffset dy="4"/>
<feGaussianBlur stdDeviation="2"/>
<feComposite in2="hardAlpha" operator="out"/>
<feColorMatrix type="matrix" values="0 0 0 0 0 0 0 0 0 0 0 0 0 0 0 0 0 0 0.25 0"/>
<feBlend mode="normal" in2="BackgroundImageFix" result="effect1_dropShadow_101_1798"/>
<feBlend mode="normal" in="SourceGraphic" in2="effect1_dropShadow_101_1798" result="shape"/>
</filter>
</defs>
</svg>
