<svg width="17" height="12" viewBox="0 0 17 12" fill="none" xmlns="http://www.w3.org/2000/svg">
<g clip-path="url(#clip0_101_1664)">
<path d="M13.1654 7.15789C13.1387 6.61113 13.1067 5.75498 13.0507 4.90151C13.0187 4.44543 12.9493 3.99468 12.8827 3.54394C12.7875 2.96621 12.4908 2.44085 12.0452 2.06103C11.5971 1.66874 11.0939 1.34435 10.5516 1.0982C10.5126 1.07965 10.4687 1.07404 10.4263 1.0822C10.1783 1.12609 9.92289 1.09159 9.69547 0.983519C9.66588 0.971513 9.63402 0.966055 9.60212 0.967517C8.94067 0.986187 8.26856 0.967517 7.61778 1.0342C7.04884 1.07509 6.49749 1.24921 6.00824 1.54248C5.51899 1.83576 5.10555 2.23997 4.80132 2.72248C4.47706 3.25076 4.30964 3.86031 4.31857 4.4801C4.31857 5.76298 4.31857 7.0432 4.31857 8.32608C4.31362 8.37582 4.32276 8.42594 4.34492 8.47074C4.36709 8.51554 4.40139 8.5532 4.44393 8.57945C4.63897 8.71325 4.84509 8.83014 5.06003 8.92884C5.55085 9.1121 6.06084 9.23917 6.58027 9.30758C8.22127 9.60277 9.88743 9.73499 11.5544 9.7023C12.0585 9.7023 12.5599 9.64095 13.0614 9.61162C13.1467 9.61162 13.1654 9.57161 13.1654 9.49426C13.1627 8.81148 13.1654 8.13938 13.1654 7.15789Z" fill="#21B39A"/>
<path d="M13.5228 9.54751C13.8215 9.49417 14.1122 9.44617 14.3976 9.38482C14.8759 9.29898 15.3371 9.13594 15.7631 8.90208C15.9624 8.78166 16.1475 8.63942 16.3152 8.478C16.3798 8.41341 16.4296 8.33566 16.4614 8.25005C16.4932 8.16444 16.5061 8.07298 16.4993 7.98192C16.4993 7.05377 16.4833 6.11494 16.4833 5.19479C16.4889 4.43111 16.2623 3.68376 15.8337 3.05172C15.405 2.41968 14.7944 1.93279 14.0829 1.65554C13.1902 1.31126 12.2522 1.09834 11.2984 1.02344H11.1997C11.3731 1.13279 11.5331 1.2288 11.6851 1.33282C12.1403 1.62536 12.5321 2.00628 12.8373 2.45301C13.0858 2.87042 13.2388 3.33768 13.2854 3.82123C13.4364 5.01008 13.5104 6.20744 13.5068 7.40583C13.5068 8.07528 13.5068 8.73938 13.5068 9.41683C13.5228 9.45683 13.5228 9.4915 13.5228 9.54751Z" fill="#21B39A"/>
<path d="M14.3015 9.71797C14.0348 9.75798 13.7681 9.80333 13.5014 9.84067C12.5684 9.95974 11.6279 10.0097 10.6876 9.99002C9.04382 9.96881 7.40585 9.79018 5.79613 9.4566C5.33493 9.37405 4.89116 9.2135 4.4839 8.98185C4.38835 8.9235 4.29899 8.85558 4.21719 8.77914C4.14647 8.72334 4.09104 8.65053 4.05606 8.56752C4.02108 8.4845 4.0077 8.39399 4.01716 8.30441C4.01716 8.18972 4.01716 8.07502 4.01716 7.94434C3.97715 7.94434 3.94247 7.96035 3.91314 7.97102C3.14767 8.21906 2.37955 8.4591 1.61943 8.72581C1.35649 8.8342 1.10313 8.96444 0.861976 9.1152C0.792001 9.15985 0.729073 9.21468 0.675275 9.27789C0.617402 9.32024 0.570331 9.37564 0.537883 9.43959C0.505434 9.50354 0.488525 9.57424 0.488525 9.64596C0.488525 9.71767 0.505434 9.78837 0.537883 9.85232C0.570331 9.91627 0.617402 9.97167 0.675275 10.014C0.944791 10.2494 1.25723 10.4305 1.59543 10.5474C2.47127 10.8887 3.38303 11.1294 4.3132 11.2649C5.58073 11.4607 6.86457 11.5304 8.14586 11.4729C9.58332 11.4403 11.0094 11.2097 12.3839 10.7875C12.9474 10.6184 13.4797 10.359 13.9602 10.0194C14.0775 9.93401 14.1842 9.83533 14.2962 9.73931L14.3015 9.71797Z" fill="#21B39A"/>
<path d="M10.2822 0.505859C10.1329 0.521862 10.0022 0.532526 9.87418 0.551196C9.83219 0.555147 9.79315 0.574492 9.76459 0.605518C9.73603 0.636544 9.71996 0.677055 9.71948 0.719225C9.71948 0.823242 9.79683 0.833911 9.85818 0.852581C10.1324 0.939308 10.4267 0.939308 10.701 0.852581C10.7597 0.833911 10.8423 0.815235 10.813 0.729888C10.7837 0.64454 10.749 0.588542 10.6983 0.575207C10.5611 0.543714 10.4222 0.520554 10.2822 0.505859Z" fill="#21B39A"/>
</g>
<defs>
<clipPath id="clip0_101_1664">
<rect width="16" height="10.9885" fill="white" transform="translate(0.499268 0.505859)"/>
</clipPath>
</defs>
</svg>
