<svg width="17" height="16" viewBox="0 0 24 24" fill="none" xmlns="http://www.w3.org/2000/svg">
<g clip-path="url(#clip0_1_23495)">
<path d="M23.6648 14.7411C25.1872 8.29094 21.1924 1.82789 14.7422 0.305508C8.29199 -1.21688 1.82896 2.7779 0.306572 9.22809C-1.21581 15.6783 2.77895 22.1414 9.22915 23.6637C15.6793 25.1861 22.1424 21.1913 23.6648 14.7411Z" fill="#ECECEC"/>
<path d="M20.1803 3.22412L17.6813 3.83525L12.0241 10.3025C12.0241 10.3025 10.582 14.0426 11.9968 17.81C13.8083 22.6321 16.5668 23.0654 16.593 23.0884C18.4485 22.3189 20.0812 21.0959 21.3414 19.5316C22.6016 17.9673 23.4491 16.1118 23.8061 14.135C24.1631 12.1582 24.0182 10.1234 23.3847 8.21713C22.7512 6.31086 21.6495 4.59408 20.1803 3.22412Z" fill="#EDD314"/>
<path d="M7.51804 5.15283L3.7643 6.2464C3.7643 6.2464 1.81366 8.51726 2.19458 14.095C2.63515 20.511 5.66995 22.1874 5.85727 22.3099C7.53225 23.3139 9.42822 23.891 11.3785 23.9905C11.1566 23.6714 8.23907 21.5658 7.25328 15.3968C6.4161 10.1079 8.99464 6.27256 8.99464 6.27256L7.51804 5.15283Z" fill="#EDD314"/>
<path d="M20.3426 12.7714C23.5867 10.2881 23.4213 8.36671 23.4287 8.33427C23.1617 7.47964 22.7928 6.66029 22.3299 5.8939C21.8273 5.05335 21.227 4.27526 20.5414 3.57593L15.084 6.81166L12.0283 10.3059C12.0283 10.3059 10.9954 12.3329 11.5051 15.9098C11.5061 15.9066 16.2414 15.9066 20.3426 12.7714Z" fill="#365FC6"/>
<path d="M12.0272 1.21381e-05C9.75674 -0.000636652 7.53271 0.642903 5.61344 1.85586C3.69416 3.06881 2.1584 4.80139 1.18457 6.85237C1.2055 6.84504 3.72962 5.56624 7.68427 6.64307C10.7473 7.48026 12.0272 10.3005 12.0272 10.3005C12.0272 10.3005 16.3449 10.1394 18.71 8.04744C21.3262 5.73158 20.7485 3.77571 20.7496 3.75687C19.6291 2.56845 18.2772 1.62204 16.7771 0.975928C15.277 0.329813 13.6605 -0.00231433 12.0272 1.21381e-05Z" fill="#365FC6"/>
<path d="M14.0376 1.40533C12.0335 0.499074 9.61721 0.313863 9.36605 0.297119C7.39936 0.742709 5.57741 1.67871 4.06982 3.01797C4.66527 2.88611 7.94181 2.21111 11.3701 3.91164C14.655 5.54102 16.456 9.37011 16.456 9.37011C17.2771 9.06339 18.039 8.61693 18.708 8.05048C19.2557 7.57984 19.7317 7.0316 20.1207 6.4232C20.1207 6.4232 17.2272 2.85052 14.0376 1.40533Z" fill="#EDD314"/>
<path d="M19.4823 18.6074C16.8661 20.1028 13.3311 20.4544 13.3311 20.4544L13.781 21.0677C15.2168 22.855 16.5762 23.0727 16.594 23.0884C19.7983 21.7583 22.8875 18.5812 23.6368 14.9395C23.6337 14.9405 22.7096 16.7593 19.4823 18.6074Z" fill="#365FC6"/>
</g>
<defs>
<clipPath id="clip0_1_23495">
<rect width="24" height="24" fill="white"/>
</clipPath>
</defs>
</svg>
