<svg width="17" height="16" viewBox="0 0 24 24" fill="none" xmlns="http://www.w3.org/2000/svg">
<path d="M10.2491 22.1022C10.0941 22.1032 9.93936 22.0889 9.78715 22.0594C9.54476 22.0239 9.31562 21.9265 9.12181 21.7767C8.92801 21.6268 8.77608 21.4296 8.68068 21.2039C8.65485 21.1539 8.63967 21.099 8.63608 21.0428C8.6325 20.9866 8.6406 20.9303 8.65986 20.8774C8.67912 20.8245 8.70912 20.7761 8.74799 20.7354C8.78686 20.6946 8.83375 20.6624 8.8857 20.6407C8.93765 20.6189 8.99354 20.6082 9.04984 20.6091C9.10615 20.6101 9.16164 20.6227 9.21284 20.6461C9.26403 20.6696 9.30983 20.7033 9.34732 20.7454C9.38481 20.7874 9.4132 20.8367 9.43068 20.8902C9.47453 20.9931 9.5454 21.0821 9.63578 21.1479C9.72616 21.2136 9.83266 21.2537 9.94399 21.2638C11.2643 21.5262 14.5067 19.9691 17.2358 17.2372C19.9649 14.5052 21.5134 11.2486 21.2624 9.94536C21.2529 9.83385 21.2131 9.72708 21.1473 9.63659C21.0814 9.54611 20.992 9.47537 20.8889 9.43205C20.7894 9.39084 20.7104 9.31179 20.6692 9.21232C20.628 9.11285 20.6281 9.00109 20.6693 8.90163C20.7105 8.80218 20.7895 8.72317 20.889 8.68199C20.9885 8.64081 21.1002 8.64083 21.1997 8.68205C21.425 8.77721 21.622 8.9287 21.7718 9.12197C21.9216 9.31524 22.0192 9.54379 22.0552 9.78566C22.406 11.5509 20.5409 15.0756 17.8033 17.8104C15.2995 20.3227 12.1198 22.1022 10.2491 22.1022Z" fill="#DADFE9"/>
<path d="M8.60646 18.6058C8.47434 18.6073 8.34244 18.5949 8.21292 18.5687C7.99913 18.5372 7.79707 18.4511 7.62624 18.3187C7.45541 18.1863 7.32157 18.0122 7.23764 17.813C7.21704 17.764 7.20631 17.7113 7.20606 17.6581C7.2058 17.6049 7.21603 17.5522 7.23615 17.5029C7.25628 17.4537 7.2859 17.4089 7.32335 17.3711C7.36079 17.3333 7.40532 17.3032 7.45437 17.2826C7.50343 17.262 7.55607 17.2513 7.60927 17.251C7.66248 17.2508 7.71522 17.261 7.76447 17.2811C7.81372 17.3012 7.85853 17.3309 7.89633 17.3683C7.93414 17.4058 7.96419 17.4503 7.98479 17.4993C8.01649 17.5777 8.0692 17.6458 8.13713 17.6961C8.20506 17.7464 8.28557 17.777 8.36977 17.7845C9.45342 17.9955 12.1454 16.7009 14.4154 14.428C16.6854 12.1552 17.9886 9.46322 17.7719 8.37957C17.7656 8.29567 17.7355 8.21534 17.6849 8.1481C17.6344 8.08086 17.5656 8.02956 17.4867 8.00029C17.3923 7.95547 17.3187 7.87611 17.2811 7.7786C17.2435 7.68109 17.2448 7.57288 17.2847 7.47629C17.3246 7.3797 17.4 7.3021 17.4954 7.25952C17.5909 7.21693 17.699 7.21261 17.7975 7.24744C17.9971 7.33081 18.1718 7.464 18.3052 7.63427C18.4385 7.80453 18.5259 8.00617 18.5589 8.21987C18.8584 9.71702 17.2842 12.6971 14.98 15.0041C12.8755 17.1058 10.192 18.6058 8.60646 18.6058Z" fill="#DADFE9"/>
<path d="M6.99811 15.0953C6.88435 15.0964 6.77075 15.0868 6.65875 15.0668C6.4716 15.0408 6.29439 14.9667 6.14444 14.8518C5.99449 14.7368 5.87693 14.5849 5.80324 14.4109C5.77741 14.3609 5.76222 14.306 5.75864 14.2498C5.75505 14.1936 5.76315 14.1373 5.78241 14.0844C5.80167 14.0315 5.83168 13.9831 5.87055 13.9424C5.90942 13.9016 5.95631 13.8694 6.00826 13.8477C6.06021 13.8259 6.1161 13.8152 6.1724 13.8161C6.22871 13.8171 6.2842 13.8297 6.3354 13.8531C6.38659 13.8766 6.43239 13.9103 6.46988 13.9524C6.50737 13.9944 6.53575 14.0437 6.55324 14.0972C6.57449 14.1461 6.60899 14.188 6.65284 14.2182C6.69669 14.2485 6.74813 14.2658 6.80134 14.2683C7.65685 14.4394 9.77852 13.4128 11.5837 11.5991C13.3888 9.78545 14.4354 7.66662 14.2557 6.81681C14.2215 6.64571 14.1502 6.59723 14.0846 6.56871C14.0354 6.54849 13.9906 6.51877 13.9528 6.48124C13.9151 6.44371 13.8851 6.39911 13.8645 6.34999C13.844 6.30087 13.8334 6.24819 13.8332 6.19495C13.8331 6.14171 13.8434 6.08897 13.8636 6.03973C13.8838 5.99048 13.9136 5.9457 13.9511 5.90794C13.9886 5.87018 14.0332 5.84018 14.0823 5.81966C14.1314 5.79914 14.1841 5.78849 14.2374 5.78833C14.2906 5.78817 14.3433 5.79849 14.3926 5.81871C14.5655 5.88959 14.7171 6.00408 14.8326 6.15103C14.948 6.29797 15.0234 6.47234 15.0513 6.65712C15.2994 7.90331 14.0561 10.2731 12.1569 12.1723C10.4373 13.909 8.30419 15.0953 6.99811 15.0953Z" fill="#DADFE9"/>
<path d="M5.38695 11.5879C5.29128 11.5886 5.19578 11.58 5.10178 11.5622C4.94649 11.538 4.79998 11.4744 4.67619 11.3776C4.5524 11.2808 4.45544 11.1538 4.39455 11.009C4.36872 10.9589 4.35353 10.9041 4.34995 10.8479C4.34636 10.7917 4.35446 10.7354 4.37372 10.6824C4.39298 10.6295 4.42299 10.5812 4.46186 10.5404C4.50073 10.4997 4.54762 10.4674 4.59957 10.4457C4.65152 10.424 4.70741 10.4132 4.76371 10.4142C4.82001 10.4151 4.87551 10.4277 4.9267 10.4511C4.9779 10.4746 5.0237 10.5084 5.06119 10.5504C5.09868 10.5924 5.12706 10.6417 5.14455 10.6953C5.14455 10.7152 5.16451 10.7466 5.25862 10.7637C5.86318 10.8863 7.45444 10.0993 8.77193 8.76751C10.0894 7.43576 10.8793 5.85591 10.7681 5.25135C10.751 5.1601 10.7196 5.14869 10.6997 5.14013C10.6074 5.09428 10.536 5.01522 10.4997 4.91885C10.4633 4.82247 10.4648 4.71591 10.5038 4.62058C10.5428 4.52525 10.6164 4.4482 10.7099 4.40493C10.8034 4.36165 10.9097 4.35535 11.0077 4.38728C11.1552 4.4458 11.2852 4.54136 11.3851 4.66474C11.485 4.78811 11.5515 4.93514 11.578 5.09166C11.8004 6.19812 10.6056 8.10592 9.37079 9.34356C8.2187 10.4871 6.51337 11.5879 5.38695 11.5879Z" fill="#DADFE9"/>
<path d="M23.1873 10.7694C23.0796 10.7696 22.973 10.7483 22.8736 10.7067L6.94395 4.03084C6.84179 3.99217 6.74848 3.9333 6.66959 3.85776C6.59069 3.78221 6.52784 3.69154 6.48478 3.59115C6.44171 3.49077 6.41932 3.38274 6.41895 3.27351C6.41858 3.16428 6.44023 3.05609 6.48261 2.95542C6.52499 2.85475 6.58723 2.76365 6.66561 2.68757C6.74399 2.61149 6.8369 2.55199 6.93879 2.51262C7.04068 2.47326 7.14945 2.45483 7.25862 2.45845C7.3678 2.46208 7.47512 2.48766 7.57418 2.53369L23.5095 9.2067C23.6829 9.27908 23.8259 9.4093 23.9141 9.5752C24.0023 9.7411 24.0302 9.93243 23.9933 10.1166C23.9563 10.3009 23.8566 10.4666 23.7113 10.5856C23.5659 10.7046 23.3837 10.7696 23.1959 10.7694H23.1873Z" fill="#ECEFF4"/>
<path d="M20.7348 16.6668C20.5576 16.667 20.3852 16.6089 20.2443 16.5014L5.43823 5.24852C5.34793 5.186 5.27124 5.10583 5.21279 5.01285C5.15434 4.91987 5.11534 4.816 5.09815 4.70753C5.08096 4.59905 5.08594 4.48822 5.11277 4.38172C5.13961 4.27522 5.18775 4.17526 5.2543 4.08789C5.32084 4.00051 5.40441 3.92753 5.49994 3.87335C5.59547 3.81917 5.701 3.78492 5.81014 3.77266C5.91928 3.7604 6.02978 3.77039 6.13495 3.80202C6.24013 3.83365 6.33779 3.88627 6.42206 3.9567L21.2281 15.2095C21.3627 15.3129 21.4615 15.4557 21.5107 15.618C21.56 15.7803 21.5572 15.954 21.5028 16.1147C21.4484 16.2753 21.3451 16.4149 21.2074 16.5139C21.0697 16.613 20.9044 16.6664 20.7348 16.6668Z" fill="#ECEFF4"/>
<path d="M15.8555 21.5488C15.7303 21.5488 15.6068 21.52 15.4946 21.4646C15.3823 21.4092 15.2843 21.3288 15.2082 21.2294L3.95532 6.42334C3.83625 6.25136 3.78807 6.04008 3.82081 5.83348C3.85355 5.62687 3.96469 5.44085 4.13111 5.31412C4.29752 5.18738 4.5064 5.12968 4.71427 5.15303C4.92214 5.17639 5.113 5.27899 5.24715 5.4395L16.5 20.2456C16.5922 20.3656 16.6489 20.5091 16.6637 20.6598C16.6785 20.8104 16.6508 20.9622 16.5837 21.0979C16.5166 21.2336 16.4128 21.3478 16.2841 21.4275C16.1554 21.5072 16.0069 21.5492 15.8555 21.5488Z" fill="#ECEFF4"/>
<path d="M9.95525 23.9927C9.79495 23.9928 9.63822 23.9454 9.50478 23.8566C9.37133 23.7678 9.26711 23.6415 9.20524 23.4937L2.52369 7.56685C2.47766 7.46779 2.45207 7.36048 2.44844 7.25131C2.44482 7.14214 2.46325 7.03336 2.50261 6.93147C2.54198 6.82958 2.60148 6.73667 2.67756 6.65829C2.75364 6.57991 2.84474 6.51767 2.94541 6.47529C3.04609 6.43291 3.15427 6.41125 3.2635 6.41163C3.37273 6.412 3.48076 6.43439 3.58115 6.47745C3.68153 6.52052 3.7722 6.58337 3.84775 6.66226C3.92329 6.74116 3.98217 6.83447 4.02084 6.93663L10.7024 22.8663C10.7547 22.9896 10.7757 23.1239 10.7634 23.2573C10.7511 23.3906 10.7059 23.5189 10.6318 23.6305C10.5578 23.7421 10.4573 23.8336 10.3392 23.8968C10.2211 23.96 10.0892 23.993 9.95525 23.9927Z" fill="#ECEFF4"/>
<path d="M1.10933 1.11064C0.415956 1.81593 0.0194131 2.76024 0.00137577 3.74912C-0.0166616 4.73799 0.345172 5.69613 1.01236 6.42623C1.13214 6.546 2.94297 8.35684 2.88594 8.29695C3.96389 9.41768 5.96008 8.17433 7.06655 7.06787C8.17301 5.9614 9.3907 3.97662 8.37264 2.95855L6.42491 1.01369C5.69513 0.345845 4.73686 -0.0164217 3.74778 0.00161944C2.7587 0.0196605 1.81427 0.416633 1.10933 1.11064Z" fill="#ECEFF4"/>
<path d="M6.42206 1.01074L7.73101 2.31683C8.34983 2.93565 7.63404 4.64667 6.13975 6.14097C4.64545 7.63526 2.93727 8.34819 2.3156 7.72937L1.00952 6.42329C1.83367 7.24744 3.8926 5.77595 4.83367 4.83489C5.71199 3.95656 7.25476 1.84059 6.42206 1.01074Z" fill="#EB5757"/>
<path d="M20.7349 16.6667C20.5577 16.6669 20.3853 16.6088 20.2444 16.5013L12.0201 10.2503C11.8596 10.1162 11.757 9.92532 11.7336 9.71744C11.7102 9.50957 11.7679 9.3007 11.8947 9.13428C12.0214 8.96787 12.2074 8.85673 12.414 8.82399C12.6207 8.79124 12.8319 8.83942 13.0039 8.95849L21.2282 15.2094C21.3627 15.3128 21.4615 15.4556 21.5108 15.6179C21.56 15.7802 21.5573 15.9539 21.5029 16.1146C21.4485 16.2752 21.3452 16.4148 21.2075 16.5138C21.0698 16.6129 20.9045 16.6663 20.7349 16.6667Z" fill="#ECEFF4"/>
<path d="M15.8556 21.5489C15.7304 21.5489 15.6069 21.5201 15.4946 21.4647C15.3824 21.4093 15.2844 21.3288 15.2082 21.2295L8.8432 12.8711C8.71273 12.6994 8.65581 12.483 8.68495 12.2693C8.7141 12.0557 8.82693 11.8623 8.99861 11.7319C9.17029 11.6014 9.38678 11.5445 9.60043 11.5736C9.81408 11.6028 10.0074 11.7156 10.1379 11.8873L16.5 20.2599C16.5923 20.38 16.649 20.5235 16.6638 20.6741C16.6786 20.8248 16.6508 20.9766 16.5837 21.1123C16.5166 21.248 16.4128 21.3621 16.2841 21.4418C16.1554 21.5215 16.0069 21.5636 15.8556 21.5631V21.5489Z" fill="#ECEFF4"/>
</svg>
