<svg width="15" height="16" viewBox="0 0 15 16" fill="none" xmlns="http://www.w3.org/2000/svg">
<g clip-path="url(#clip0_101_1672)">
<path d="M14.4993 7.83765C14.4393 7.71771 14.3653 7.60531 14.2788 7.50279C11.9153 5.13134 9.54899 2.76324 7.17997 0.398491C6.83414 0.0526537 6.44804 0.124015 6.24219 0.567748C4.80943 3.61258 3.37607 6.65741 1.94209 9.70224C1.91497 9.74364 1.90478 9.79388 1.91364 9.84257C1.92249 9.89127 1.94971 9.93471 1.98967 9.96391C2.90458 10.8691 3.81279 11.7779 4.71429 12.6903C4.74601 12.7311 4.79212 12.7581 4.84316 12.766C4.89419 12.7738 4.94629 12.7618 4.98876 12.7324C7.42243 11.5827 9.85793 10.4357 12.2953 9.29145C12.9092 9.00234 13.5231 8.71139 14.1379 8.42502C14.3593 8.32347 14.4856 8.16336 14.4993 7.83765Z" fill="white"/>
<path d="M14.4992 7.83773C14.4855 8.16344 14.3592 8.32355 14.1406 8.4251C13.5258 8.71147 12.9118 9.00242 12.2979 9.29153C9.86183 10.4376 7.42633 11.5846 4.99145 12.7325C4.94897 12.7619 4.89688 12.7739 4.84584 12.766C4.79481 12.7582 4.7487 12.7312 4.71697 12.6904C3.81426 11.7755 2.90605 10.8667 1.99236 9.96399C1.9524 9.93479 1.92518 9.89135 1.91632 9.84265C1.90747 9.79396 1.91765 9.74372 1.94478 9.70232C3.38119 6.6581 4.81456 3.61327 6.24487 0.567829C6.45439 0.122266 6.83682 0.0527347 7.18266 0.398572C9.55045 2.76576 11.9167 5.13386 14.2815 7.50287C14.367 7.60553 14.4401 7.71793 14.4992 7.83773Z" fill="#FFC25F"/>
<path d="M5.16711 13.1669C6.3565 12.6079 7.53034 12.0535 8.70783 11.5054C8.7345 11.4974 8.76269 11.4959 8.79006 11.501C8.81744 11.5061 8.84319 11.5176 8.86519 11.5347C9.34888 12.0111 9.82951 12.4911 10.3071 12.9748C10.3603 13.0223 10.4028 13.0806 10.4319 13.1457C10.4611 13.2108 10.4761 13.2813 10.4761 13.3526C10.4761 13.424 10.4611 13.4945 10.4319 13.5596C10.4028 13.6247 10.3603 13.6829 10.3071 13.7305C9.67032 14.3715 9.02988 15.012 8.38578 15.6518C8.16163 15.8732 7.85971 15.8824 7.6447 15.6692C6.82677 14.858 6.01219 14.0437 5.20097 13.2264C5.18737 13.208 5.17601 13.188 5.16711 13.1669Z" fill="#FFC25F"/>
<path d="M1.50748 10.2163L4.45533 13.1632C4.16988 13.4524 3.88351 13.7598 3.57884 14.0471C3.48486 14.136 3.35946 14.184 3.23014 14.1805C3.10082 14.1771 2.97814 14.1225 2.889 14.0288C2.14061 13.2871 1.39525 12.5414 0.652951 11.7918C0.604601 11.7455 0.566124 11.6899 0.539838 11.6283C0.513551 11.5668 0.5 11.5005 0.5 11.4336C0.5 11.3667 0.513551 11.3004 0.539838 11.2389C0.566124 11.1773 0.604601 11.1217 0.652951 11.0754C0.934744 10.7808 1.22751 10.4963 1.50748 10.2163Z" fill="#FFC25F"/>
</g>
<defs>
<clipPath id="clip0_101_1672">
<rect width="14" height="15.6404" fill="white" transform="translate(0.499268 0.179688)"/>
</clipPath>
</defs>
</svg>
