<svg width="16" height="16" viewBox="0 0 16 16" fill="none" xmlns="http://www.w3.org/2000/svg">
<g clip-path="url(#clip0_101_1657)">
<path d="M0.501743 7.23725C0.501743 5.8197 0.501743 4.40326 0.501743 2.98571C0.495001 2.4088 0.692788 1.84806 1.06021 1.40242C1.42762 0.956792 1.94105 0.654915 2.5099 0.550055C2.6732 0.519284 2.83906 0.504013 3.00525 0.504438C5.21869 0.504438 7.43324 0.496649 9.64668 0.504438C10.8884 0.504438 11.8612 1.30223 12.1011 2.48612C12.1366 2.67429 12.1538 2.86545 12.1524 3.05692C12.1524 4.99075 12.1524 6.92569 12.1524 8.85953C12.1546 8.92241 12.1427 8.98501 12.1176 9.04274C12.0925 9.10048 12.0549 9.15191 12.0074 9.19333C10.9788 10.1977 9.95237 11.2047 8.92821 12.2143C8.67145 12.4471 8.48517 12.747 8.39047 13.0799C8.32018 13.3503 8.20861 13.6095 8.12494 13.8777C8.11679 13.9208 8.09202 13.9591 8.05595 13.9843C8.01988 14.0094 7.97536 14.0195 7.93193 14.0123C6.25846 14.0123 4.59169 14.0235 2.92158 14.0045C1.55156 13.989 0.507318 12.9052 0.491699 11.5288V7.23948L0.501743 7.23725ZM6.061 4.82162C6.98141 4.82162 7.90292 4.82162 8.82445 4.82162C9.15914 4.82162 9.38227 4.65361 9.44474 4.36542C9.53846 3.92035 9.2774 3.59768 8.81441 3.59657C7.35515 3.59657 5.89662 3.59657 4.43885 3.59657C4.06065 3.59657 3.68356 3.591 3.30647 3.59657C3.22604 3.59243 3.14564 3.60538 3.0706 3.63454C2.99555 3.66371 2.92757 3.70843 2.87115 3.76576C2.81473 3.82308 2.77116 3.89169 2.74331 3.96706C2.71546 4.04243 2.70397 4.12285 2.7096 4.20298C2.7096 4.5824 2.94166 4.81829 3.33548 4.8194C4.23915 4.82385 5.15287 4.82162 6.061 4.82162ZM6.09223 7.88705C7.00706 7.88705 7.9219 7.88705 8.83672 7.88705C9.22497 7.88705 9.47041 7.6367 9.46483 7.26618C9.46838 7.18432 9.45448 7.10263 9.42406 7.02652C9.39365 6.9504 9.3474 6.88157 9.28836 6.82459C9.22932 6.7676 9.15885 6.72374 9.08157 6.69591C9.0043 6.66807 8.92199 6.65689 8.84007 6.6631C7.00372 6.6631 5.16774 6.6631 3.33213 6.6631C2.92492 6.6631 2.68952 6.92014 2.71072 7.32181C2.72857 7.67453 2.96286 7.88594 3.34887 7.88705C4.2637 7.88853 5.17815 7.88853 6.09223 7.88705ZM5.1774 9.72631H3.37453C2.94612 9.72631 2.70514 9.94883 2.70514 10.3427C2.70514 10.7366 2.94389 10.9514 3.35891 10.9514C4.56157 10.9514 5.76386 10.9514 6.96579 10.9514C7.37076 10.9514 7.61955 10.711 7.61621 10.3349C7.61286 9.95885 7.3663 9.72742 6.95798 9.72631C6.3678 9.72408 5.77204 9.72631 5.1774 9.72631Z" fill="#004556"/>
<path d="M9.45923 12.6504C9.96127 12.1285 10.4633 11.5878 10.9888 11.0637C11.7932 10.2592 12.6098 9.46811 13.4198 8.66921C13.789 8.30536 14.232 8.22414 14.7128 8.36211C15.4235 8.56462 15.7169 9.43027 15.3153 10.079C15.2533 10.1754 15.1811 10.265 15.0999 10.346C13.7976 11.6471 12.496 12.9471 11.1952 14.2459C11.1695 14.2715 11.1405 14.296 11.116 14.3172L9.45923 12.6504Z" fill="#004556"/>
<path d="M9.02083 13.1733L10.556 14.7022L8.22314 15.4966L9.02083 13.1733Z" fill="#004556"/>
</g>
<defs>
<clipPath id="clip0_101_1657">
<rect width="14.9987" height="15" fill="white" transform="translate(0.50061 0.5)"/>
</clipPath>
</defs>
</svg>
