<svg width="9" height="14" viewBox="0 0 9 14" fill="none" xmlns="http://www.w3.org/2000/svg">
<path d="M2.04175 0.312255C1.66192 -0.0886772 1.02898 -0.105784 0.628051 0.274047C0.227119 0.653878 0.210012 1.28681 0.589843 1.68774L2.04175 0.312255ZM7.00001 7L7.72596 7.68774L8.37751 7L7.72596 6.31226L7.00001 7ZM0.589843 12.3123C0.210012 12.7132 0.227119 13.3461 0.628051 13.726C1.02898 14.1058 1.66192 14.0887 2.04175 13.6877L0.589843 12.3123ZM0.589843 1.68774L6.27405 7.68774L7.72596 6.31226L2.04175 0.312255L0.589843 1.68774ZM6.27405 6.31226L0.589843 12.3123L2.04175 13.6877L7.72596 7.68774L6.27405 6.31226Z" fill="#004556"/>
</svg>
