<svg width="32" height="32" viewBox="0 0 32 32" fill="none" xmlns="http://www.w3.org/2000/svg">
<path d="M29.3334 13.3334H16.0001H2.66675V25.3334C2.66675 26.3943 3.08818 27.4117 3.83832 28.1618C4.58847 28.912 5.60588 29.3334 6.66675 29.3334H25.3334C26.3943 29.3334 27.4117 28.912 28.1618 28.1618C28.912 27.4117 29.3334 26.3943 29.3334 25.3334V13.3334ZM9.33342 10.6667C8.97979 10.6667 8.64065 10.5263 8.39061 10.2762C8.14056 10.0262 8.00008 9.68704 8.00008 9.33342V4.00008C8.00008 3.64646 8.14056 3.30732 8.39061 3.05727C8.64065 2.80722 8.97979 2.66675 9.33342 2.66675C9.68704 2.66675 10.0262 2.80722 10.2762 3.05727C10.5263 3.30732 10.6667 3.64646 10.6667 4.00008V9.33342C10.6667 9.68704 10.5263 10.0262 10.2762 10.2762C10.0262 10.5263 9.68704 10.6667 9.33342 10.6667ZM22.6667 10.6667C22.3131 10.6667 21.974 10.5263 21.7239 10.2762C21.4739 10.0262 21.3334 9.68704 21.3334 9.33342V4.00008C21.3334 3.64646 21.4739 3.30732 21.7239 3.05727C21.974 2.80722 22.3131 2.66675 22.6667 2.66675C23.0204 2.66675 23.3595 2.80722 23.6096 3.05727C23.8596 3.30732 24.0001 3.64646 24.0001 4.00008V9.33342C24.0001 9.68704 23.8596 10.0262 23.6096 10.2762C23.3595 10.5263 23.0204 10.6667 22.6667 10.6667Z" fill="#E0E0E0"/>
<path d="M25.3334 5.33325H24.0001V9.33325C24.0001 9.68687 23.8596 10.026 23.6096 10.2761C23.3595 10.5261 23.0204 10.6666 22.6667 10.6666C22.3131 10.6666 21.974 10.5261 21.7239 10.2761C21.4739 10.026 21.3334 9.68687 21.3334 9.33325V5.33325H10.6667V9.33325C10.6667 9.68687 10.5263 10.026 10.2762 10.2761C10.0262 10.5261 9.68704 10.6666 9.33342 10.6666C8.97979 10.6666 8.64065 10.5261 8.39061 10.2761C8.14056 10.026 8.00008 9.68687 8.00008 9.33325V5.33325H6.66675C5.60588 5.33325 4.58847 5.75468 3.83832 6.50482C3.08818 7.25497 2.66675 8.27239 2.66675 9.33325V13.3333H29.3334V9.33325C29.3334 8.27239 28.912 7.25497 28.1618 6.50482C27.4117 5.75468 26.3943 5.33325 25.3334 5.33325Z" fill="#21B39A"/>
</svg>
