<svg width="56" height="61" viewBox="0 0 56 61" fill="none" xmlns="http://www.w3.org/2000/svg">
<g clip-path="url(#clip0_1_24639)">
<path d="M41.1573 15.1499C40.4958 15.1496 39.8486 15.3447 39.2948 15.7114L37.8246 16.3837V9.81907C37.8246 9.39898 37.66 8.9961 37.367 8.69905C37.074 8.402 36.6767 8.23512 36.2624 8.23512H28.2465L28.9929 6.85357C29.3724 6.34886 29.6078 5.74813 29.6735 5.11697C29.7392 4.48581 29.6325 3.84848 29.3652 3.27459C29.098 2.7007 28.6803 2.21231 28.1578 1.86275C27.6354 1.51319 27.0282 1.31589 26.4027 1.29241C25.7772 1.26893 25.1573 1.42016 24.6108 1.72959C24.0643 2.03903 23.6121 2.49476 23.3037 3.04704C22.9953 3.59931 22.8425 4.2269 22.8619 4.86126C22.8814 5.49562 23.0724 6.11236 23.4141 6.64414L24.1205 8.22809H16.7556C16.3412 8.22809 15.9439 8.39497 15.6509 8.69202C15.3579 8.98906 15.1934 9.39195 15.1934 9.81204V28.1278C15.1934 28.5479 15.3579 28.9507 15.6509 29.2478C15.9439 29.5448 16.3412 29.7117 16.7556 29.7117H24.5492L23.5824 27.5347C23.2408 27.0029 23.0498 26.3861 23.0303 25.7518C23.0108 25.1174 23.1637 24.4898 23.4721 23.9376C23.7805 23.3853 24.2327 22.9296 24.7792 22.6201C25.3257 22.3107 25.9456 22.1595 26.5711 22.1829C27.1966 22.2064 27.8037 22.4037 28.3262 22.7533C28.8486 23.1028 29.2663 23.5912 29.5336 24.1651C29.8009 24.739 29.9075 25.3763 29.8419 26.0075C29.7762 26.6387 29.5408 27.2394 29.1612 27.7441L28.1007 29.7117H36.2589C36.6732 29.7117 37.0705 29.5448 37.3635 29.2478C37.6565 28.9507 37.8211 28.5479 37.8211 28.1278V20.6603L39.0848 21.3643C39.5163 21.6973 40.0198 21.9214 40.5537 22.018C41.0875 22.1145 41.6364 22.0809 42.1549 21.9197C42.6733 21.7586 43.1465 21.4746 43.5353 21.0912C43.924 20.7079 44.2172 20.2362 44.3905 19.7152C44.5639 19.1942 44.6123 18.6389 44.532 18.0951C44.4517 17.5513 44.2448 17.0347 43.9285 16.5881C43.6122 16.1415 43.1956 15.7776 42.7131 15.5266C42.2306 15.2756 41.6961 15.1447 41.1538 15.1447L41.1573 15.1499Z" fill="#FFEDAE"/>
<path d="M6.87024 60.4999C6.41372 60.213 6.28179 59.7959 6.28699 59.2679C6.30956 57.1789 6.30435 55.0898 6.28699 52.999C6.28699 51.8568 6.71228 50.9663 7.6496 50.3133C7.72515 50.2515 7.78738 50.1746 7.83246 50.0875C7.87755 50.0003 7.90453 49.9046 7.91171 49.8065C7.93775 48.8491 7.94122 47.8917 7.91171 46.936C7.88978 46.69 7.79543 46.4564 7.64092 46.2655C6.85113 45.2553 6.0336 44.2679 5.23166 43.2736C4.79598 42.7297 4.789 42.2317 5.19518 41.8779C5.60135 41.5242 6.11688 41.6016 6.58381 42.1718C7.41699 43.1961 8.23977 44.2292 9.07989 45.2482C9.47655 45.7072 9.68736 46.3013 9.67004 46.9114C9.64921 47.8829 9.67004 48.8473 9.67004 49.8558H22.2094C22.2215 49.6956 22.2441 49.5302 22.2441 49.3647C22.2441 47.1965 22.2441 45.0282 22.2441 42.853C22.2573 42.4515 22.1765 42.0527 22.0085 41.689C21.8404 41.3253 21.5899 41.0071 21.2773 40.7604C17.3856 37.5362 13.4946 34.3096 9.6041 31.0807C9.37271 30.877 9.10364 30.722 8.81257 30.6248C8.51229 30.5423 8.19335 30.5644 7.90692 30.6876C7.62049 30.8108 7.3832 31.0279 7.23303 31.3042C7.07712 31.5882 7.01859 31.9167 7.06666 32.2381C7.11472 32.5595 7.26662 32.8556 7.49857 33.08C8.57823 34.194 9.67526 35.2922 10.7653 36.3975C11.4319 37.075 12.1036 37.7474 12.765 38.4302C13.2215 38.9019 13.2545 39.4527 12.8674 39.8188C12.4803 40.1849 11.9995 40.1303 11.543 39.6692C9.78114 37.8917 8.0176 36.1159 6.27314 34.3225C5.09106 33.1064 4.99559 31.4485 5.96764 30.0511C6.08935 29.8836 6.15665 29.6819 6.16028 29.4739C5.99886 26.218 5.84958 22.9621 5.63955 19.7079C5.54061 18.212 4.07735 17.4006 2.83279 18.0747C2.51018 18.2348 2.24018 18.4862 2.05538 18.7985C1.87057 19.1108 1.77886 19.4707 1.79132 19.8346C1.79132 24.8739 1.79132 29.9127 1.79132 34.9508C1.79771 35.7998 2.09673 36.6197 2.63663 37.2686C3.04627 37.7861 3.4681 38.2947 3.88122 38.8086C4.35856 39.407 4.37762 39.9473 3.93847 40.2975C3.49931 40.6477 3.05495 40.4559 2.54984 39.9455C0.597076 37.9955 -0.0954829 35.6794 0.0104001 32.8952C0.173564 28.5464 0.0381778 24.187 0.0590073 19.8311C0.0728936 17.031 2.87099 15.2377 5.31672 16.452C6.50573 17.0434 7.25037 18.0272 7.34237 19.3806C7.5281 22.068 7.64962 24.759 7.79716 27.4499C7.82146 27.8969 7.85097 28.3422 7.88222 28.8579C9.25522 28.5904 10.2255 29.2785 11.1802 30.0898C14.8601 33.1791 18.5544 36.2485 22.2632 39.2979C22.8161 39.7254 23.2601 40.2811 23.5578 40.9182C23.8556 41.5554 23.9985 42.2556 23.9747 42.9603C23.9539 45.1866 23.9747 47.413 23.9608 49.6481C23.9456 49.798 23.9742 49.9492 24.043 50.0828C24.1118 50.2164 24.2178 50.3265 24.3479 50.3996C24.735 50.6437 25.0531 50.9854 25.2712 51.3913C25.4894 51.7972 25.6 52.2535 25.5924 52.7157C25.6063 54.9807 25.5924 57.2475 25.6063 59.5126C25.6063 59.9913 25.3616 60.2658 25.0092 60.4999H24.4312C23.9886 60.2042 23.8514 59.7959 23.8584 59.2556C23.8792 57.1877 23.8688 55.1197 23.8584 53.0518C23.8584 52.0293 23.48 51.6439 22.4559 51.6439C18.1083 51.6439 13.7601 51.6439 9.41141 51.6439C8.40118 51.6439 8.02278 52.0434 8.02278 53.0659C8.02278 55.1338 8.0089 57.2018 8.03147 59.2679C8.03147 59.8082 7.90477 60.2201 7.43958 60.4999H6.87024Z" fill="#004556"/>
<path d="M31.029 60.5002C30.5846 60.2415 30.4232 59.8631 30.4301 59.3369C30.451 57.2249 30.451 55.1165 30.4301 53.0116C30.4197 51.843 30.8467 50.9402 31.8188 50.2855C31.8951 50.2114 31.9557 50.1223 31.9969 50.0237C32.0381 49.925 32.059 49.8189 32.0583 49.7117C32.0739 47.5435 32.1052 45.3752 32.0583 43.1999C32.0184 41.5051 32.6398 40.208 33.9451 39.1521C37.6192 36.1531 41.269 33.1231 44.8945 30.062C45.8457 29.2647 46.8038 28.6047 48.1699 28.8599C48.2376 27.6139 48.3018 26.4294 48.3661 25.2432C48.4737 23.2932 48.5396 21.3414 48.7028 19.3967C48.866 17.4203 50.5323 16.0106 52.5041 16.0827C54.3649 16.1514 55.9636 17.7212 55.9757 19.6431C56.0104 24.798 56 29.9528 55.9757 35.1077C55.9757 36.3766 55.4689 37.4942 54.6721 38.4762C52.6066 41.0264 50.5393 43.5801 48.498 46.1426C48.2785 46.4515 48.1519 46.8183 48.1334 47.1985C48.0874 48.0374 48.0874 48.8782 48.1334 49.717C48.1586 49.9661 48.2788 50.1954 48.4684 50.3559C48.8655 50.6355 49.1896 51.0088 49.413 51.4434C49.6365 51.8781 49.7525 52.3613 49.7512 52.8515C49.7512 53.2035 49.7616 53.5554 49.7512 53.9074C49.7304 54.497 49.3884 54.8754 48.8833 54.8807C48.3782 54.886 48.0345 54.5023 48.0154 53.9197C48.005 53.5678 48.0154 53.2158 48.0154 52.8638C47.9894 52.1299 47.5988 51.7163 46.875 51.6477C46.7396 51.6353 46.6042 51.6477 46.4705 51.6477H33.7004C33.624 51.6477 33.5459 51.6477 33.4695 51.6477C32.5704 51.6829 32.1781 52.0859 32.1764 52.9993C32.1764 55.0883 32.1625 57.1774 32.1764 59.2665C32.1764 59.7944 32.0444 60.2151 31.6018 60.5125L31.029 60.5002ZM46.382 49.8402C46.382 48.8951 46.4063 47.9817 46.382 47.0701C46.3556 46.3433 46.6089 45.6345 47.0885 45.0936C49.1714 42.554 51.2162 39.9898 53.2853 37.4449C53.8806 36.711 54.2608 35.8944 54.2625 34.9388C54.2706 29.9018 54.2706 24.8637 54.2625 19.8244C54.2706 19.5198 54.2057 19.2179 54.0732 18.9444C53.9408 18.671 53.7448 18.4342 53.5022 18.2545C53.2269 18.0394 52.8991 17.904 52.5539 17.8628C52.2086 17.8217 51.8588 17.8762 51.5417 18.0207C51.2246 18.1652 50.9522 18.3942 50.7533 18.6833C50.5545 18.9724 50.4367 19.3108 50.4125 19.6624C50.2285 22.9371 50.0549 26.2124 49.8918 29.4882C49.8949 29.6781 49.9555 29.8624 50.0654 30.0162C51.0929 31.5297 50.9732 33.1137 49.7009 34.4161C48.55 35.597 47.3871 36.7656 46.2293 37.9359C45.6304 38.5431 45.042 39.1679 44.4258 39.7522C43.9172 40.2415 43.1587 40.0813 42.9712 39.4636C42.8341 39.0148 43.0302 38.6822 43.3409 38.3706C44.7382 36.9627 46.1182 35.5547 47.5068 34.1468C47.854 33.7948 48.2237 33.4428 48.5657 33.0679C49.1211 32.4625 49.1471 31.6248 48.6455 31.0528C48.1439 30.4808 47.3194 30.4051 46.6632 30.8909C46.5244 30.993 46.3924 31.1091 46.2588 31.22C42.4401 34.3879 38.626 37.5558 34.8165 40.7237C34.4935 40.9719 34.2337 41.2949 34.0589 41.6657C33.884 42.0364 33.7992 42.4442 33.8115 42.855C33.8236 44.592 33.8115 46.3309 33.8115 48.0679V49.8279L46.382 49.8402Z" fill="#004556"/>
<path d="M7.44824 60.5001C7.91343 60.2238 8.04707 59.8119 8.04013 59.2681C8.01757 57.2019 8.02797 55.134 8.03144 53.0661C8.03144 52.0435 8.41679 51.644 9.42007 51.644C13.7676 51.644 18.1158 51.644 22.4645 51.644C23.4887 51.644 23.8653 52.026 23.867 53.052C23.867 55.1199 23.8809 57.1879 23.867 59.2558C23.867 59.7838 23.9972 60.2044 24.4399 60.5001H7.44824Z" fill="#EEFEFB"/>
<path d="M31.7007 60.5001C32.1659 60.2238 32.2995 59.8119 32.2926 59.2681C32.27 57.2019 32.2822 55.134 32.2926 53.0661C32.2926 52.0435 32.6797 51.644 33.6812 51.644C38.0299 51.644 42.3786 51.644 46.7274 51.644C47.7515 51.644 48.1264 52.026 48.1282 53.052C48.1282 55.1199 48.142 57.1879 48.1282 59.2558C48.1282 59.7838 48.2584 60.2044 48.7027 60.5001H31.7007Z" fill="#EEFEFB"/>
<path d="M48.5985 60.5001C48.1333 60.2238 47.9719 59.8137 48.0084 59.2681C48.0448 58.763 48.0084 58.2544 48.0223 57.7475C48.004 57.6229 48.0123 57.4957 48.0468 57.3746C48.0812 57.2535 48.1409 57.1413 48.2218 57.0456C48.3027 56.9499 48.4029 56.8729 48.5157 56.8199C48.6285 56.7669 48.7512 56.7391 48.8755 56.7383C48.9998 56.7375 49.1228 56.7638 49.2362 56.8155C49.3496 56.8671 49.4508 56.9428 49.5328 57.0375C49.6148 57.1322 49.6758 57.2437 49.7117 57.3643C49.7476 57.485 49.7575 57.6121 49.7407 57.737C49.7908 58.3587 49.7844 58.9838 49.7216 59.6043C49.6765 59.9211 49.3744 60.1992 49.1766 60.4948L48.5985 60.5001Z" fill="#004556"/>
<path d="M23.3238 29.071C23.1086 28.4251 22.9767 27.8689 22.7458 27.3568C21.7755 25.2044 22.7927 22.6771 24.9832 21.9591C26.5593 21.4434 27.9757 21.7989 29.0814 23.0555C30.1871 24.3121 30.3555 25.7553 29.7132 27.3093C29.4963 27.8373 29.3453 28.3881 29.1283 29.034C29.4755 29.0516 29.6595 29.0692 29.8417 29.0692C31.6527 29.0692 33.4631 29.0692 35.273 29.0692C36.4186 29.0692 36.8352 28.6381 36.8439 27.4747C36.8439 25.4825 36.8439 23.492 36.8439 21.4909C36.8439 20.2062 37.4826 19.643 38.7151 19.907C39.2912 20.0506 39.8535 20.2461 40.3953 20.4913C40.9028 20.7158 41.4766 20.7312 41.995 20.534C42.5135 20.3369 42.9358 19.9428 43.1726 19.4353C43.4076 18.9252 43.4345 18.3417 43.2472 17.8116C43.06 17.2816 42.6738 16.848 42.1727 16.6053C41.5444 16.292 40.9212 16.3554 40.2755 16.6194C39.7122 16.8611 39.1267 17.0456 38.5276 17.1702C37.4861 17.3638 36.856 16.8059 36.8439 15.7236C36.8283 14.122 36.8439 12.5205 36.8439 10.9189C36.8439 9.56377 36.4707 9.18891 35.1202 9.18891C33.1553 9.18891 31.1904 9.18891 29.2186 9.18891C28.0296 9.18891 27.3942 8.53597 27.5505 7.34801C27.6442 6.64403 27.9063 5.96293 28.1528 5.29415C28.4652 4.44586 28.3871 3.67677 27.8056 3.00623C27.5624 2.69868 27.2346 2.47127 26.8638 2.35283C26.493 2.2344 26.0958 2.23027 25.7227 2.34096C24.8652 2.56976 24.2854 3.1523 24.1605 4.03403C24.0962 4.50393 24.2802 5.01608 24.3913 5.4983C24.5475 6.17588 24.827 6.83586 24.8982 7.51872C25.0006 8.53772 24.3549 9.18538 23.336 9.19242C21.4492 9.20298 19.5606 9.19242 17.6738 9.19242C16.4813 9.19242 16.063 9.61129 16.0561 10.801C16.0561 11.6211 16.0665 12.443 16.0561 13.2649C16.0457 13.9038 15.7089 14.2998 15.1969 14.3051C14.6848 14.3103 14.3411 13.9126 14.329 13.2773C14.3168 12.3603 14.3099 11.4416 14.329 10.5247C14.3706 8.6926 15.6013 7.45888 17.4152 7.44128C19.1857 7.42544 20.9579 7.44128 22.7302 7.44128C22.8621 7.44128 22.994 7.42192 23.2509 7.4008C23.0565 6.90626 22.8933 6.45748 22.7041 6.02101C22.4401 5.41974 22.3304 4.76054 22.385 4.10471C22.4397 3.44888 22.657 2.81771 23.0167 2.26987C23.3765 1.72204 23.8671 1.27533 24.4428 0.971282C25.0185 0.667233 25.6607 0.515713 26.3096 0.530813C26.9586 0.545913 27.5932 0.727141 28.1546 1.05765C28.7159 1.38815 29.1858 1.8572 29.5204 2.42119C29.855 2.98519 30.0435 3.6258 30.0684 4.28349C30.0934 4.94117 29.9539 5.59457 29.6629 6.18292C29.4894 6.55955 29.373 6.96433 29.1977 7.44304H33.0164C33.8444 7.44304 34.6741 7.44304 35.5021 7.44304C37.3125 7.46944 38.5501 8.70492 38.5744 10.537C38.5935 12.1333 38.5744 13.7331 38.5744 15.4543C38.9633 15.2889 39.2688 15.1604 39.5812 15.0249C41.0306 14.3825 42.4175 14.4969 43.6534 15.5001C44.8892 16.5032 45.3753 17.8901 44.9899 19.474C44.615 21.0052 43.6134 21.9696 42.0946 22.3427C41.2239 22.5515 40.3083 22.4373 39.5135 22.0207C39.2445 21.8904 38.9633 21.7883 38.5762 21.6264V22.3674C38.5762 24.1044 38.5762 25.8415 38.5762 27.5803C38.5658 29.5972 37.3611 30.8309 35.3702 30.838C33.2502 30.8474 31.1314 30.8474 29.0138 30.838C27.8612 30.838 27.3127 30.2554 27.4949 29.1044C27.6352 28.2459 27.8549 27.4027 28.151 26.586C28.5069 25.5933 28.3055 24.5796 27.5036 23.9548C27.1424 23.6721 26.6997 23.5174 26.2434 23.5145C25.7872 23.5117 25.3426 23.6608 24.978 23.939C24.157 24.5603 23.9366 25.5564 24.2837 26.5543C24.5803 27.4137 24.8055 28.2967 24.9572 29.1942C25.1308 30.2026 24.5736 30.8327 23.579 30.8397C21.496 30.8573 19.4131 30.8697 17.3302 30.8397C15.5822 30.8133 14.3463 29.5691 14.3324 27.7933C14.3029 24.3174 14.3186 20.8415 14.3324 17.3656C14.3324 16.6827 14.631 16.336 15.1674 16.3237C15.7037 16.3114 16.0561 16.6757 16.0578 17.3709C16.0665 20.6919 16.0578 24.0111 16.0578 27.3304C16.0578 28.7172 16.4328 29.0903 17.8162 29.0903H23.3151L23.3238 29.071Z" fill="#004556"/>
<path d="M46.3819 49.8383H33.8044V48.0783C33.8044 46.3412 33.8131 44.6024 33.8044 42.8654C33.7921 42.4546 33.877 42.0468 34.0518 41.676C34.2266 41.3053 34.4864 40.9823 34.8094 40.7341C38.6281 37.5732 42.4422 34.4053 46.2517 31.2304C46.3854 31.1195 46.5173 31.0033 46.6562 30.9013C47.3123 30.4155 48.1316 30.4841 48.6384 31.0632C49.1453 31.6422 49.114 32.4711 48.5586 33.0783C48.2114 33.4497 47.8539 33.7981 47.4998 34.1572C46.1111 35.5651 44.7225 36.9731 43.3339 38.381C43.0232 38.6925 42.827 39.0252 42.9641 39.4739C43.1516 40.0917 43.9102 40.2518 44.4187 39.7626C45.035 39.173 45.6234 38.5535 46.2222 37.9463C47.38 36.7724 48.543 35.6038 49.6938 34.4264C50.9661 33.1241 51.0824 31.5401 50.0583 30.0266C49.9484 29.8728 49.8878 29.6885 49.8847 29.4986C50.0502 26.2239 50.2238 22.9487 50.4055 19.6728C50.4296 19.3212 50.5474 18.9828 50.7462 18.6937C50.9451 18.4046 51.2175 18.1756 51.5346 18.0311C51.8517 17.8866 52.2015 17.832 52.5468 17.8732C52.892 17.9144 53.2198 18.0497 53.4951 18.2649C53.7378 18.4446 53.9337 18.6813 54.0661 18.9548C54.1986 19.2282 54.2635 19.5302 54.2554 19.8347C54.2554 24.8729 54.2554 29.911 54.2554 34.9491C54.2554 35.9048 53.8735 36.7214 53.2782 37.4553C51.2091 40.0019 49.1574 42.5591 47.0814 45.104C46.6019 45.6449 46.3485 46.3536 46.375 47.0804C46.4062 47.9815 46.3819 48.8949 46.3819 49.8383Z" fill="white"/>
<path d="M9.52074 49.8383H22.0965V48.0783C22.0965 46.3412 22.0878 44.6024 22.0965 42.8654C22.1088 42.4546 22.024 42.0468 21.8491 41.676C21.6743 41.3053 21.4145 40.9823 21.0915 40.7341C17.2728 37.5732 13.4587 34.4053 9.64919 31.2304C9.51553 31.1195 9.3836 31.0033 9.24474 30.9013C8.58861 30.4155 7.76933 30.4841 7.26248 31.0632C6.75563 31.6422 6.78687 32.4711 7.34232 33.0783C7.68948 33.4497 8.04706 33.7981 8.40117 34.1572C9.7898 35.5651 11.1784 36.9731 12.5671 38.381C12.8778 38.6925 13.0739 39.0252 12.9368 39.4739C12.7493 40.0917 11.9908 40.2518 11.4805 39.7626C10.866 39.173 10.2775 38.5535 9.67868 37.9463C8.52091 36.7724 7.35793 35.6038 6.20711 34.4264C4.93477 33.1241 4.8185 31.5401 5.84262 30.0266C5.95252 29.8728 6.01312 29.6885 6.01619 29.4986C5.85072 26.2239 5.67714 22.9487 5.49546 19.6728C5.47132 19.3212 5.35351 18.9828 5.15466 18.6937C4.95581 18.4046 4.68334 18.1756 4.36626 18.0311C4.04918 17.8866 3.69937 17.832 3.35412 17.8732C3.00886 17.9144 2.68111 18.0497 2.40575 18.2649C2.16313 18.4446 1.96718 18.6813 1.83475 18.9548C1.70232 19.2282 1.63735 19.5302 1.64545 19.8347C1.64545 24.8729 1.64545 29.911 1.64545 34.9491C1.64545 35.9048 2.02734 36.7214 2.62272 37.4553C4.69178 40.0019 6.74347 42.5591 8.81948 45.104C9.29904 45.6449 9.55239 46.3536 9.52595 47.0804C9.49644 47.9815 9.52074 48.8949 9.52074 49.8383Z" fill="white"/>
</g>
<defs>
<clipPath id="clip0_1_24639">
<rect width="56" height="60" fill="white" transform="translate(0 0.5)"/>
</clipPath>
</defs>
</svg>
