<svg width="14" height="14" viewBox="0 0 14 14" fill="none" xmlns="http://www.w3.org/2000/svg">
<path fill-rule="evenodd" clip-rule="evenodd" d="M6.99967 13.6668C10.6817 13.6668 13.6663 10.6822 13.6663 7.00016C13.6663 3.31816 10.6817 0.333496 6.99967 0.333496C3.31767 0.333496 0.333008 3.31816 0.333008 7.00016C0.333008 10.6822 3.31767 13.6668 6.99967 13.6668ZM10.5803 4.89016C10.6115 4.85803 10.6359 4.81995 10.6521 4.77819C10.6682 4.73642 10.6758 4.69183 10.6743 4.64708C10.6729 4.60233 10.6624 4.55833 10.6435 4.51771C10.6247 4.47709 10.5979 4.44068 10.5646 4.41066C10.5314 4.38064 10.4925 4.35763 10.4502 4.34298C10.4079 4.32834 10.363 4.32237 10.3184 4.32544C10.2737 4.3285 10.2301 4.34053 10.1902 4.36082C10.1502 4.3811 10.1148 4.40922 10.086 4.4435L6.09301 8.85583L3.89634 6.75883C3.83242 6.69774 3.74686 6.66455 3.65847 6.66655C3.57007 6.66855 3.4861 6.70558 3.42501 6.7695C3.36392 6.83341 3.33072 6.91898 3.33273 7.00737C3.33473 7.09576 3.37176 7.17974 3.43567 7.24083L5.88034 9.57416L6.12801 9.81083L6.35767 9.55683L10.58 4.89016H10.5803Z" fill="#21B39A"/>
</svg>
