<svg width="16" height="16" viewBox="0 0 16 16" fill="none" xmlns="http://www.w3.org/2000/svg">
<path fill-rule="evenodd" clip-rule="evenodd" d="M14.6663 8.00016C14.6663 11.6822 11.6817 14.6668 7.99968 14.6668C4.31767 14.6668 1.33301 11.6822 1.33301 8.00016C1.33301 4.31816 4.31767 1.3335 7.99968 1.3335C11.6817 1.3335 14.6663 4.31816 14.6663 8.00016ZM5.40701 10.5928C5.34452 10.5303 5.30941 10.4456 5.30941 10.3572C5.30941 10.2688 5.34452 10.184 5.40701 10.1215L7.52834 8.00016L5.40701 5.87883C5.34629 5.81596 5.31269 5.73176 5.31345 5.64436C5.31421 5.55696 5.34927 5.47336 5.41107 5.41156C5.47287 5.34975 5.55648 5.3147 5.64387 5.31394C5.73127 5.31318 5.81547 5.34678 5.87834 5.4075L7.99968 7.52883L10.121 5.4075C10.1839 5.34678 10.2681 5.31318 10.3555 5.31394C10.4429 5.3147 10.5265 5.34975 10.5883 5.41156C10.6501 5.47336 10.6851 5.55696 10.6859 5.64436C10.6867 5.73176 10.6531 5.81596 10.5923 5.87883L8.47101 8.00016L10.5923 10.1215C10.6531 10.1844 10.6867 10.2686 10.6859 10.356C10.6851 10.4434 10.6501 10.527 10.5883 10.5888C10.5265 10.6506 10.4429 10.6856 10.3555 10.6864C10.2681 10.6871 10.1839 10.6536 10.121 10.5928L7.99968 8.4715L5.87834 10.5928C5.81583 10.6553 5.73106 10.6904 5.64268 10.6904C5.55429 10.6904 5.46952 10.6553 5.40701 10.5928Z" fill="#EB5757"/>
</svg>
