<svg width="16" height="16" viewBox="0 0 16 16" fill="none" xmlns="http://www.w3.org/2000/svg">
<path d="M7.99972 1.14307C11.7866 1.14307 14.8569 4.21335 14.8569 8.00021C14.8569 11.7871 11.7866 14.8573 7.99972 14.8573C4.21286 14.8573 1.14258 11.7871 1.14258 8.00021C1.14258 4.21335 4.21286 1.14307 7.99972 1.14307ZM7.99972 10.5716C7.81028 10.5716 7.6286 10.6469 7.49464 10.7808C7.36069 10.9148 7.28543 11.0965 7.28543 11.2859C7.28543 11.4754 7.36069 11.657 7.49464 11.791C7.6286 11.925 7.81028 12.0002 7.99972 12.0002C8.18916 12.0002 8.37084 11.925 8.5048 11.791C8.63875 11.657 8.71401 11.4754 8.71401 11.2859C8.71401 11.0965 8.63875 10.9148 8.5048 10.7808C8.37084 10.6469 8.18916 10.5716 7.99972 10.5716ZM7.99972 3.85735C6.87801 3.85735 5.85686 4.84307 5.85686 6.00021C5.85686 6.11387 5.90202 6.22288 5.98239 6.30325C6.06276 6.38363 6.17177 6.42878 6.28543 6.42878C6.3991 6.42878 6.50811 6.38363 6.58848 6.30325C6.66885 6.22288 6.71401 6.11387 6.71401 6.00021C6.71401 5.32364 7.34486 4.71449 7.99972 4.71449C8.65458 4.71449 9.28543 5.32364 9.28543 6.00021C9.28543 6.50307 9.14772 6.79164 8.75286 7.18592L8.66429 7.27278L8.33858 7.57449C7.79858 8.09049 7.57115 8.48649 7.57115 9.14306C7.57115 9.25673 7.6163 9.36574 7.69667 9.44611C7.77705 9.52648 7.88606 9.57164 7.99972 9.57164C8.11338 9.57164 8.22239 9.52648 8.30277 9.44611C8.38314 9.36574 8.42829 9.25673 8.42829 9.14306C8.42829 8.77278 8.55001 8.55564 8.93629 8.18878L9.03001 8.10135L9.14658 7.99449L9.25915 7.88935C9.87629 7.29964 10.1426 6.81849 10.1426 6.00021C10.1426 4.84307 9.12143 3.85735 7.99972 3.85735Z" fill="#FFC25F"/>
</svg>
