<svg width="64" height="59" viewBox="0 0 64 59" fill="none" xmlns="http://www.w3.org/2000/svg">
<g clip-path="url(#clip0_1_24651)">
<path d="M31.6017 18.563C30.5156 17.892 29.3712 17.6518 28.1668 18.0827C27.6159 18.2767 27.1197 18.6003 26.7201 19.0263C26.3205 19.4523 26.0293 19.9682 25.871 20.5304C25.1081 20.4174 24.3946 20.1896 23.697 20.2319C21.7738 20.3467 20.3416 21.922 20.3186 23.8788C20.2956 25.3093 20.3186 26.7397 20.3186 28.2938C19.9195 28.0766 19.5857 27.9035 19.259 27.7163C18.5031 27.2837 17.7737 26.7963 16.9861 26.4342C16.6199 26.2876 16.2114 26.2876 15.8453 26.4342C15.4373 26.6108 15.4037 27.0735 15.5309 27.5256C15.8664 28.723 16.1772 29.9256 16.4916 31.1283C16.8448 32.497 16.2373 33.7067 15.0117 34.0634C13.7507 34.429 12.5516 33.7102 12.1772 32.3327C11.3542 29.3164 10.5277 26.2982 9.75246 23.2677C9.57018 22.5238 9.48937 21.7587 9.51226 20.9931C9.52639 20.3008 9.33569 19.8363 8.70699 19.545C8.3891 19.3984 8.09769 19.1917 7.76392 19.0028C10.1445 14.8774 12.5127 10.7767 14.9039 6.64062C15.4338 6.93908 15.9353 7.21458 16.428 7.52364C16.6166 7.65199 16.8366 7.72656 17.0644 7.73931C17.2921 7.75207 17.5191 7.70254 17.7208 7.59605C20.1191 6.45167 22.4449 6.62474 24.7301 7.94925C29.4607 10.7007 34.1996 13.4369 38.9466 16.1577C39.6018 16.5339 40.0451 17.0142 40.1104 17.7719L38.0566 18.4783L37.7864 18.1092C37.3398 17.4771 36.7003 17.0068 35.9638 16.769C35.2273 16.5311 34.4335 16.5385 33.7016 16.79C33.5424 16.8551 33.3696 16.8798 33.1986 16.8619C33.0276 16.8441 32.8636 16.7842 32.7214 16.6875C31.8384 16.1454 30.9342 15.6385 30.0317 15.1281C29.4225 14.7749 28.9068 14.8685 28.6189 15.3454C28.3311 15.8222 28.4988 16.382 29.1046 16.7423C29.8551 17.1855 30.6163 17.6094 31.3633 18.0544C31.496 18.1563 31.6147 18.275 31.7165 18.4076L31.6017 18.563Z" fill="white"/>
<path d="M43.9125 30.4447V29.6412C43.9125 27.0469 43.9125 24.4526 43.9125 21.8583C43.9125 20.4314 43.4286 19.2746 42.2295 18.441C42.1527 18.369 42.091 18.2824 42.0479 18.1863C42.0049 18.0902 41.9814 17.9865 41.9787 17.8812C41.924 16.4578 41.2988 15.3788 40.0785 14.6582C38.7045 13.8458 37.32 13.0547 35.8224 12.1858C36.5447 11.7708 37.2017 11.4052 37.8445 11.0131C38.0997 10.8799 38.325 10.696 38.5067 10.4727C38.8741 9.94293 38.5774 9.27713 37.8798 9.07934C36.6047 8.72613 35.3138 8.40649 34.0387 8.04445C33.5326 7.91221 33.0888 7.60698 32.7842 7.1817C32.4796 6.75642 32.3336 6.23794 32.3713 5.71622C32.4091 5.19449 32.6283 4.70245 32.9909 4.32546C33.3536 3.94847 33.8367 3.71033 34.3566 3.65235C34.6862 3.62292 35.0184 3.65405 35.3367 3.74418C38.4008 4.55656 41.4666 5.36363 44.5201 6.21662C45.2153 6.4203 45.8778 6.72241 46.4874 7.11376C47.079 7.48816 47.5752 7.53584 48.1439 7.14025C48.43 6.94069 48.7514 6.78705 49.094 6.59455C51.4764 10.72 53.8446 14.8207 56.2323 18.9567C55.6884 19.2746 55.1321 19.5271 54.6712 19.8962C54.3815 20.1276 54.0831 20.5214 54.0477 20.8676C53.774 23.5537 52.483 25.5299 50.1307 26.8526C48.0945 28.0058 46.0794 29.1926 43.9125 30.4447Z" fill="white"/>
<path d="M62.1099 16.3164C62.0234 17.4025 61.3293 18.3473 60.3315 18.6457C59.2436 18.9707 58.1699 18.5557 57.5624 17.519C56.3774 15.4987 55.2171 13.4572 54.0462 11.4333C53.0714 9.74734 52.0971 8.05961 51.1235 6.37011C50.3535 5.02617 50.6731 3.60452 51.8864 2.91577C53.0997 2.22702 54.4683 2.66323 55.2524 4.016C57.3599 7.65872 59.4609 11.3085 61.5554 14.9654C61.7702 15.4028 61.9554 15.8541 62.1099 16.3164Z" fill="#EEFEFB"/>
<path d="M33.0638 51.6422C35.3032 51.6422 37.5425 51.6246 39.7747 51.6422C40.2876 51.655 40.7814 51.8391 41.1773 52.1653C41.5733 52.4915 41.8486 52.9409 41.9593 53.4418C42.1977 54.5014 41.7403 55.5963 40.7761 56.0678C40.3862 56.2574 39.9593 56.3588 39.5257 56.3645C35.2131 56.3857 30.9005 56.3857 26.5878 56.3645C25.175 56.3645 24.1419 55.3561 24.1295 54.0193C24.1171 52.6347 25.1238 51.6334 26.5861 51.6228C28.7424 51.6069 30.9005 51.6228 33.0568 51.6228L33.0638 51.6422Z" fill="white"/>
<path d="M12.0218 2.87331C10.8138 2.18103 9.44515 2.62783 8.66633 3.97707C8.43498 4.3709 8.22303 4.77532 7.97756 5.15854C7.9482 5.20327 7.91636 5.2463 7.88218 5.28746L6.08615 8.42392C6.06672 8.46631 6.04555 8.50869 6.02083 8.55107C4.79521 10.6915 3.56249 12.8278 2.32274 14.96C1.98896 15.5357 1.80355 16.1362 1.95013 16.8037C2.04632 17.2804 2.2866 17.716 2.63848 18.0517C2.99036 18.3873 3.43686 18.6068 3.91755 18.6804C4.39825 18.754 4.88996 18.6782 5.32615 18.4632C5.76234 18.2482 6.12195 17.9044 6.35636 17.4783C7.42657 15.654 8.47559 13.8174 9.5352 11.986C10.6231 10.0999 11.718 8.21906 12.8006 6.33471C13.5564 4.98724 13.235 3.57089 12.0218 2.87331Z" fill="#EEFEFB"/>
<path d="M25.3923 46.8618C25.6766 47.0631 25.8709 47.5223 25.9221 47.8896C26.0086 48.4742 25.945 49.0817 25.945 49.7157H40.241C40.241 49.2671 40.1792 48.8062 40.2604 48.3735C40.324 48.0397 40.4882 47.5788 40.7443 47.4534C41.9805 46.8441 43.0667 46.6552 44.0344 45.7121C44.0645 45.6857 44.0963 45.6616 44.1298 45.6397L47.6336 42.3002C48.4124 41.5196 49.5338 40.3363 50.2985 39.5416C50.9749 38.8352 50.5369 37.3906 50.1219 36.5535C49.7069 35.7164 48.808 35.1619 47.872 35.3473C47.3327 35.468 46.8334 35.7252 46.4221 36.0943C45.509 36.9067 44.6684 37.8021 43.8119 38.6763C43.4587 39.0295 43.0808 39.2396 42.5916 39.0295C42.1024 38.8193 42.0459 38.4025 42.0477 37.9398C42.0477 32.6688 42.0477 27.3973 42.0477 22.1251C42.0533 21.8765 42.0456 21.6277 42.0247 21.3798C41.9117 20.3555 41.1823 19.7021 40.1951 19.7304C39.2361 19.7569 38.5227 20.5004 38.4856 21.5105C38.4856 21.6977 38.4856 21.8831 38.4856 22.0703V32.0325C38.4856 32.1985 38.4856 32.3645 38.4856 32.5305C38.4502 33.1151 38.0847 33.5018 37.5672 33.5107C37.0498 33.5195 36.6295 33.1239 36.6259 32.5005C36.6153 30.5278 36.6259 28.557 36.6259 26.5861C36.6259 24.6152 36.6259 22.6002 36.6259 20.6081C36.6259 19.2641 35.9566 18.4376 34.8599 18.4235C33.7632 18.4094 33.0533 19.2624 33.0533 20.6381C33.0533 24.4562 33.0533 28.275 33.0533 32.0943C33.0533 33.0727 32.7796 33.5071 32.1456 33.5071C31.5116 33.5071 31.1866 33.0568 31.1866 32.0608C31.1866 28.5958 31.1866 25.1291 31.1866 21.6642C31.1866 20.518 30.5173 19.7727 29.5124 19.7304C29.2789 19.7138 29.0446 19.7448 28.8234 19.8213C28.6023 19.8978 28.3989 20.0184 28.2256 20.1756C28.0523 20.3329 27.9127 20.5237 27.8151 20.7364C27.7176 20.9491 27.6642 21.1794 27.6581 21.4134C27.6457 21.62 27.6493 21.8284 27.6493 22.0368C27.6493 25.397 27.6493 28.7589 27.6493 32.1226C27.6611 32.3908 27.6295 32.6591 27.5557 32.9173C27.4002 33.3658 27.0382 33.553 26.572 33.4895C26.3724 33.4742 26.1849 33.3877 26.0439 33.2457C25.9028 33.1037 25.8176 32.9156 25.8037 32.7159C25.7837 32.5094 25.7778 32.3017 25.7861 32.0943C25.7861 29.3958 25.7967 26.6991 25.7861 24.0006C25.7861 22.6461 24.7547 21.7966 23.5556 22.1057C23.1936 22.2071 22.8716 22.4177 22.6336 22.7088C22.3957 22.9998 22.2532 23.3572 22.2258 23.7322C22.211 23.939 22.2069 24.1465 22.2134 24.3538C22.2134 29.7296 22.2258 35.1036 22.2134 40.4794C22.1658 43.1673 23.1742 45.2989 25.3923 46.8618Z" fill="#FFEDAE"/>
<path d="M0.122314 15.665C1.20665 13.6464 2.28568 11.6243 3.37532 9.60926C3.72852 8.95406 4.11176 8.31123 4.49499 7.66663C4.8482 7.06618 5.34447 6.90018 5.84426 7.18628C6.34404 7.47237 6.44996 8.00041 6.11265 8.5885C4.88703 10.7289 3.65436 12.8658 2.41461 14.9992C2.08083 15.5749 1.89542 16.1736 2.042 16.8411C2.13819 17.3178 2.37847 17.7535 2.73035 18.0891C3.08223 18.4248 3.52873 18.6442 4.00942 18.7178C4.49012 18.7914 4.98183 18.7156 5.41801 18.5006C5.8542 18.2856 6.21382 17.9418 6.44822 17.5158C7.51667 15.6914 8.56745 13.8548 9.62707 12.0234C10.7149 10.1391 11.8099 8.25649 12.8924 6.37214C13.6624 5.02996 13.341 3.61184 12.126 2.91603C10.9109 2.22022 9.55111 2.67055 8.77053 4.01803C8.54095 4.41185 8.32904 4.81627 8.0818 5.1995C7.75861 5.70458 7.25529 5.8388 6.79966 5.57213C6.34403 5.30546 6.1992 4.79332 6.47823 4.27587C6.78368 3.66239 7.13369 3.07213 7.52547 2.50985C8.57096 1.11116 9.98555 0.496577 11.7215 0.817993C13.4575 1.13941 14.6037 2.23081 15.0541 3.94915C15.1638 4.39826 15.447 4.78561 15.8417 5.02643C16.6664 5.61275 17.4152 5.68339 18.4077 5.34961C20.7195 4.57079 23.0117 4.85866 25.1398 6.04013C27.75 7.48827 30.3478 8.9629 32.8909 10.5241C33.7863 11.0751 34.4538 11.0857 35.2009 10.3015C34.5951 10.1249 34 9.98012 33.4154 9.79822C32.5649 9.53973 31.8219 9.01084 31.2992 8.29181C30.7765 7.57278 30.5026 6.70286 30.5191 5.81407C30.5131 4.92523 30.8057 4.06012 31.3501 3.35749C31.8945 2.65487 32.6592 2.15547 33.5214 1.93941C34.2439 1.7699 34.9958 1.7699 35.7183 1.93941C38.7965 2.6988 41.8552 3.52884 44.9016 4.38006C45.6345 4.58492 46.3145 4.96285 47.0332 5.22423C47.2479 5.29756 47.4808 5.29756 47.6955 5.22423C48.4019 4.9399 48.8416 4.48073 49.0729 3.65776C49.5568 1.93589 50.8478 0.964577 52.605 0.766783C54.3622 0.568988 55.7503 1.26656 56.6669 2.76768C57.7777 4.59022 58.8196 6.45515 59.8881 8.30417C61.0289 10.2786 62.1839 12.2424 63.2983 14.2345C64.8277 16.9877 63.2029 20.2036 60.0877 20.5745C59.4907 20.6451 58.8656 20.4368 58.251 20.3979C57.9627 20.3624 57.6702 20.3914 57.3945 20.4827C56.3702 20.8924 55.7927 21.5423 55.5561 22.7502C55.081 25.1838 53.5693 27.0011 51.4306 28.2585C49.1348 29.6024 46.8389 30.934 44.5307 32.2303C44.0398 32.5058 43.872 32.8131 43.9038 33.3552C43.9479 34.157 43.9144 34.9623 43.9144 35.9336C44.4442 35.4038 44.8592 34.9923 45.2901 34.5932C45.8154 34.0939 46.4637 33.7429 47.1689 33.576C47.8741 33.4091 48.611 33.4324 49.3043 33.6434C49.9976 33.8544 50.6225 34.2455 51.1152 34.777C51.6079 35.3084 51.9507 35.961 52.1088 36.6683C52.4231 38.0228 52.13 39.2855 51.1675 40.3116C50.1467 41.403 49.0747 42.445 48.0098 43.4904C47.5612 43.9319 47.0067 43.9337 46.6288 43.5505C46.2509 43.1672 46.2473 42.6375 46.703 42.1712C47.7043 41.1469 48.7357 40.1527 49.7282 39.1213C50.0509 38.7925 50.2622 38.3707 50.3322 37.9153C50.4023 37.4599 50.3275 36.9941 50.1185 36.5835C49.6999 35.7411 48.8045 35.1901 47.8686 35.3756C47.3299 35.4981 46.8311 35.7551 46.4187 36.1226C45.5056 36.935 44.665 37.8303 43.8102 38.7063C43.457 39.0595 43.0791 39.2696 42.5881 39.0595C42.0972 38.8493 42.0442 38.4325 42.0442 37.9698C42.0442 32.6977 42.0442 27.4261 42.0442 22.1551C42.0498 21.9064 42.0422 21.6577 42.0212 21.4098C41.91 20.3855 41.1789 19.7321 40.1917 19.7604C39.2327 19.7869 38.5192 20.5286 38.4821 21.5405C38.4821 21.7171 38.4821 21.9132 38.4821 22.1004V32.0537C38.4821 32.2197 38.4821 32.3857 38.4821 32.5517C38.4468 33.1362 38.083 33.523 37.5638 33.5318C37.0446 33.5407 36.626 33.1451 36.6225 32.5217C36.6119 30.549 36.6225 28.5781 36.6225 26.6055C36.6225 24.6328 36.6225 22.6213 36.6225 20.6293C36.6225 19.2835 35.9532 18.4588 34.8565 18.4447C33.7598 18.4306 33.048 19.2835 33.048 20.6593C33.048 24.4774 33.048 28.2956 33.048 32.1137C33.048 33.0938 32.7743 33.5265 32.1403 33.5265C31.5063 33.5265 31.1814 33.0762 31.1814 32.0802C31.1814 28.6152 31.1814 25.1485 31.1814 21.6836C31.1814 20.5374 30.5138 19.7922 29.5072 19.7409C29.2738 19.7244 29.0394 19.7553 28.8182 19.8319C28.5971 19.9084 28.3937 20.0289 28.2204 20.1862C28.0471 20.3435 27.9075 20.5343 27.8099 20.747C27.7124 20.9597 27.659 21.19 27.6529 21.424C27.6405 21.6306 27.6529 21.839 27.6529 22.0456C27.6529 25.4081 27.6529 28.7706 27.6529 32.1331C27.6649 32.4008 27.6332 32.6686 27.5593 32.9261C27.4056 33.3764 27.0418 33.5636 26.5756 33.5C26.3763 33.4841 26.1892 33.3974 26.0483 33.2555C25.9074 33.1136 25.8219 32.926 25.8074 32.7265C25.7882 32.5199 25.7823 32.3123 25.7897 32.1049C25.7897 29.4064 25.8003 26.7097 25.7897 24.0112C25.7897 22.6549 24.7566 21.8072 23.5574 22.1162C23.1955 22.2179 22.8737 22.4286 22.6358 22.7196C22.3979 23.0106 22.2553 23.3679 22.2276 23.7428C22.2082 23.9476 22.2153 24.156 22.2153 24.3644C22.2153 29.7402 22.2294 35.1142 22.2153 40.49C22.2065 43.1779 23.2202 45.3041 25.433 46.8724C25.7173 47.0737 25.9116 47.5329 25.9628 47.9002C26.0511 48.4847 25.9857 49.0923 25.9857 49.7263H40.2817C40.2817 49.2777 40.2199 48.8168 40.3011 48.3841C40.3647 48.0503 40.5289 47.5894 40.785 47.4622C42.0212 46.8547 42.9767 45.9117 43.9445 44.9686C44.0586 44.8555 44.1939 44.766 44.3427 44.7054C44.4915 44.6448 44.6509 44.6142 44.8116 44.6154C44.9664 44.6479 45.1115 44.7158 45.2356 44.8139C45.3597 44.9119 45.4594 45.0374 45.5268 45.1805C45.6169 45.456 45.5445 45.9399 45.3502 46.1306C44.4584 46.9889 43.5135 47.7995 42.5493 48.5783C42.4262 48.6599 42.3246 48.7699 42.253 48.899C42.1814 49.0281 42.1418 49.1725 42.1378 49.3201C42.0848 50.0618 42.2844 50.6005 42.8336 51.1726C44.0504 52.4371 44.2782 53.9983 43.6053 55.6177C42.9325 57.2372 41.6398 58.1802 39.8967 58.2032C35.3933 58.2632 30.89 58.2438 26.3866 58.2138C25.5485 58.1987 24.7352 57.927 24.0562 57.4353C23.3773 56.9437 22.8655 56.2557 22.5897 55.4641C21.991 53.7616 22.323 52.2181 23.6157 50.9519C23.9937 50.5828 24.1014 50.2278 24.1455 49.7263C24.2356 48.7214 23.9301 48.0397 23.1425 47.3386C21.251 45.6574 20.3822 43.4357 20.3627 40.9103C20.338 37.6113 20.3486 34.3106 20.3627 31.0205C20.3627 30.6197 20.2691 30.3742 19.8965 30.1852C19.2695 29.8673 18.6709 29.4912 17.9415 29.0726C18.1181 29.779 18.2806 30.3565 18.4166 30.9464C18.6668 31.9988 18.4907 33.1075 17.9266 34.0306C17.3625 34.9536 16.4562 35.6161 15.4055 35.8736C13.4099 36.3769 11.2094 35.3579 10.6266 33.3853C9.56701 29.772 8.68401 26.1039 7.73213 22.4571C7.69541 22.3591 7.68093 22.2541 7.68974 22.1498C7.9105 21.1237 7.22525 20.7193 6.46409 20.3838C6.28231 20.3083 6.08103 20.2934 5.89013 20.3414C3.18988 21.1202 0.971781 19.8787 0.263605 17.1731C0.239825 17.1172 0.208313 17.0649 0.170001 17.0177L0.122314 15.665ZM31.6017 18.563L31.6988 18.3864C31.597 18.2538 31.4783 18.135 31.3456 18.0332C30.5986 17.5882 29.8374 17.1643 29.0869 16.721C28.4811 16.3678 28.2992 15.8168 28.6012 15.3241C28.9032 14.8314 29.4101 14.7607 30.014 15.1069C30.9165 15.6173 31.8207 16.1241 32.7037 16.6663C32.8459 16.7629 33.0099 16.8228 33.1809 16.8407C33.3519 16.8586 33.5247 16.8339 33.6838 16.7687C34.4158 16.5172 35.2095 16.5099 35.946 16.7477C36.6825 16.9856 37.322 17.4558 37.7686 18.0879L38.0388 18.457L40.0927 17.7506C40.0274 16.993 39.5841 16.5144 38.9289 16.1365C34.1854 13.4097 29.4465 10.6736 24.7124 7.92801C22.4272 6.59996 20.1014 6.42689 17.7031 7.5748C17.5014 7.6813 17.2744 7.73082 17.0467 7.71807C16.8189 7.70531 16.5989 7.63075 16.4103 7.50239C15.9176 7.20217 15.409 6.92667 14.8863 6.61938C12.4951 10.7607 10.1268 14.8614 7.74623 18.9815C8.08 19.1758 8.37141 19.3771 8.6893 19.5237C9.32507 19.8151 9.50874 20.2796 9.49461 20.9719C9.47172 21.7374 9.55249 22.5026 9.73477 23.2465C10.5101 26.277 11.3365 29.2951 12.1595 32.3115C12.5339 33.6925 13.7331 34.4078 14.994 34.0422C16.2196 33.689 16.8324 32.4757 16.4739 31.1071C16.1596 29.9044 15.8488 28.7017 15.5132 27.5044C15.3861 27.0523 15.4196 26.5967 15.8276 26.413C16.1937 26.2664 16.6023 26.2664 16.9684 26.413C17.7561 26.7662 18.4854 27.2624 19.2413 27.6951C19.5662 27.8823 19.9 28.0483 20.3009 28.2726C20.3009 26.7238 20.2815 25.2933 20.3009 23.8575C20.3327 21.9008 21.7561 20.3255 23.6793 20.2107C24.3769 20.1683 25.0921 20.3961 25.8533 20.5092C26.0116 19.947 26.3029 19.4311 26.7024 19.0051C27.102 18.5791 27.5982 18.2554 28.1491 18.0615C29.3712 17.6517 30.5156 17.8919 31.6017 18.563ZM43.9126 30.4448C46.0795 29.1927 48.0946 28.0059 50.1326 26.8598C52.4849 25.537 53.7759 23.5609 54.0496 20.8747C54.085 20.5215 54.3834 20.1348 54.673 19.9034C55.134 19.5343 55.6903 19.2818 56.2342 18.9639C53.8465 14.8261 51.4783 10.7254 49.0959 6.60172C48.7533 6.79599 48.4319 6.95492 48.1458 7.14742C47.5771 7.54301 47.0862 7.50063 46.4893 7.12093C45.8796 6.72958 45.2171 6.42747 44.5219 6.22379C41.4702 5.3655 38.4044 4.55843 35.3386 3.75136C35.0202 3.66122 34.6881 3.63009 34.3585 3.65952C33.8386 3.7175 33.3554 3.95566 32.9928 4.33264C32.6302 4.70963 32.411 5.20168 32.3732 5.7234C32.3354 6.24512 32.4815 6.7636 32.7861 7.18887C33.0906 7.61415 33.5345 7.9194 34.0406 8.05163C35.3156 8.41367 36.6066 8.72625 37.8817 9.08652C38.5793 9.28432 38.876 9.94304 38.5086 10.4799C38.3269 10.7032 38.1015 10.887 37.8464 11.0203C37.2035 11.4124 36.5465 11.7779 35.8242 12.193C37.3218 13.0618 38.7064 13.853 40.0804 14.6654C41.3007 15.3859 41.9259 16.465 41.9806 17.8884C41.9832 17.9937 42.0068 18.0974 42.0498 18.1935C42.0929 18.2896 42.1546 18.3762 42.2314 18.4482C43.4305 19.2818 43.9197 20.4385 43.9144 21.8655C43.902 24.4598 43.9144 27.054 43.9144 29.6483L43.9126 30.4448ZM62.1027 16.3166C61.9486 15.8514 61.7633 15.3971 61.5482 14.9568C59.4595 11.307 57.3586 7.65722 55.2452 4.00743C54.4611 2.65466 53.1013 2.21669 51.8792 2.9072C50.6571 3.59772 50.3463 5.02643 51.1163 6.36155C52.0852 8.05104 53.0595 9.73877 54.039 11.4247C55.2099 13.4539 56.3702 15.4866 57.5552 17.5105C58.1627 18.5471 59.2365 18.9621 60.3243 18.6372C61.3292 18.3476 62.0267 17.3957 62.1097 16.3166H62.1027ZM33.0569 51.6371C30.9006 51.6371 28.7425 51.6247 26.5862 51.6371C25.1239 51.6477 24.1137 52.649 24.1296 54.0336C24.142 55.3705 25.1751 56.3753 26.588 56.3789C30.9006 56.3871 35.2132 56.3871 39.5259 56.3789C39.9594 56.3731 40.3863 56.2718 40.7762 56.0822C41.7404 55.6107 42.1979 54.5245 41.9594 53.4561C41.8487 52.9552 41.5734 52.5058 41.1775 52.1796C40.7815 51.8535 40.2877 51.6693 39.7749 51.6565C37.5426 51.6247 35.3033 51.6424 33.064 51.6424L33.0569 51.6371Z" fill="#004556"/>
</g>
<defs>
<clipPath id="clip0_1_24651">
<rect width="63.7553" height="57.53" fill="white" transform="translate(0.122314 0.734863)"/>
</clipPath>
</defs>
</svg>
