<svg width="131" height="40" viewBox="0 0 131 40" fill="none" xmlns="http://www.w3.org/2000/svg">
<g clip-path="url(#clip0_1_12148)">
<path d="M-0.000116469 17.1533H18.6324V22.7004H12.3638V39.6307H6.25006V22.7004H-0.0185547L-0.000116469 17.1533Z" fill="#004556"/>
<path d="M35.3288 33.0377H24.2887C24.3177 33.8343 24.5651 34.6079 25.004 35.2756C25.2371 35.6079 25.5491 35.8781 25.9125 36.0624C26.2758 36.2467 26.6794 36.3394 27.0874 36.3324C27.636 36.33 28.1723 36.1714 28.6325 35.8753C29.012 35.5916 29.3368 35.2423 29.5912 34.8441L35.185 34.8697C34.7646 36.358 33.1864 38.2229 32.0138 38.9323C30.8412 39.6416 29.1598 40 26.9657 40C25.063 40 23.5659 39.6953 22.4745 39.0858C21.3069 38.3989 20.3644 37.3919 19.7605 36.1861C19.0164 34.7425 18.6476 33.1374 18.6875 31.5166C18.6875 28.9716 19.4065 26.9117 20.8446 25.3369C22.2827 23.7621 24.269 22.9747 26.8035 22.9747C28.8611 22.9747 30.4848 23.3281 31.6746 24.0351C32.8792 24.7548 33.8298 25.8264 34.3959 27.103C35.0178 28.4413 35.3288 30.1844 35.3288 32.332V33.0377ZM29.7276 30.0466C29.6195 28.8277 29.3331 27.9635 28.8685 27.4541C28.6394 27.1955 28.355 26.9911 28.036 26.8557C27.717 26.7203 27.3715 26.6574 27.0247 26.6715C26.6011 26.6676 26.1839 26.7748 25.8155 26.9822C25.447 27.1896 25.1404 27.4899 24.9266 27.8526C24.5367 28.5212 24.3189 29.2747 24.2924 30.0466H29.7276Z" fill="#004556"/>
<path d="M42.8809 28.6205L37.6153 27.9916C37.7502 27.1267 38.0412 26.2931 38.4745 25.5307C38.8866 24.8954 39.4405 24.3624 40.0932 23.9729C40.7371 23.6055 41.4431 23.3577 42.1766 23.2416C43.1218 23.0604 44.0828 22.9722 45.0454 22.9783C46.3789 22.9522 47.7117 23.0575 49.0242 23.2928C49.9717 23.474 50.8434 23.931 51.5279 24.6055C52.0498 25.1586 52.4292 25.8285 52.6342 26.5582C52.8963 27.3379 53.0344 28.1534 53.0435 28.9752V36.1678C53.0304 36.7713 53.0724 37.3746 53.1688 37.9706C53.3007 38.5424 53.4897 39.0997 53.733 39.6343H48.5706C48.4099 39.3262 48.2743 39.0058 48.165 38.6763C48.0795 38.3358 48.0166 37.9901 47.9769 37.6415C47.3746 38.3349 46.6435 38.9071 45.8235 39.3272C44.7552 39.797 43.5957 40.028 42.4274 40.0037C40.7066 40.0037 39.4049 39.5539 38.5224 38.6544C38.0859 38.2165 37.743 37.6958 37.5142 37.1234C37.2855 36.551 37.1756 35.9387 37.1912 35.3231C37.1476 34.2269 37.4876 33.1495 38.1537 32.2735C38.7928 31.4764 39.974 30.8828 41.6973 30.4927C43.7622 30.0247 45.102 29.6956 45.7166 29.5054C46.3797 29.3004 47.0298 29.0562 47.6635 28.7741C47.6635 28.0099 47.5234 27.4723 47.2431 27.1652C46.9629 26.858 46.4725 26.7044 45.7682 26.7044C45.0567 26.6547 44.3475 26.8273 43.7401 27.1981C43.3103 27.5711 43.0097 28.0687 42.8809 28.6205ZM47.6746 31.9115C46.9008 32.2242 46.1105 32.4951 45.3072 32.7233C44.1912 33.0646 43.4832 33.3973 43.1833 33.7215C42.8889 34.0442 42.726 34.4639 42.726 34.899C42.726 35.3341 42.8889 35.7537 43.1833 36.0764C43.3608 36.241 43.5706 36.3676 43.7996 36.4481C44.0287 36.5287 44.272 36.5615 44.5145 36.5445C45.1241 36.5465 45.7206 36.3696 46.2291 36.0362C46.7114 35.7415 47.096 35.313 47.3353 34.8039C47.5779 34.2024 47.6909 33.5572 47.6672 32.9098L47.6746 31.9115Z" fill="#004556"/>
<path d="M94.387 17.1533H105.862C107.777 17.1533 109.245 17.6896 110.265 18.7622C110.773 19.2938 111.17 19.9195 111.434 20.6034C111.698 21.2873 111.823 22.016 111.803 22.748C111.832 23.9797 111.442 25.1853 110.696 26.1706C110.135 26.8558 109.396 27.3755 108.558 27.6735C109.981 28.0611 111.03 28.7278 111.703 29.6737C112.406 30.7286 112.758 31.9754 112.71 33.2389C112.729 34.3288 112.483 35.4073 111.994 36.3836C111.545 37.2725 110.869 38.029 110.033 38.5776C109.317 38.9795 108.524 39.2286 107.706 39.3089C106.797 39.4643 105.88 39.5669 104.959 39.6161H94.376L94.387 17.1533ZM100.571 25.9695H103.237C104.192 25.9695 104.859 25.783 105.232 25.41C105.43 25.1918 105.582 24.9363 105.679 24.6587C105.776 24.381 105.816 24.0869 105.796 23.7938C105.812 23.5132 105.771 23.2322 105.674 22.9681C105.577 22.704 105.426 22.4623 105.232 22.258C104.863 21.8923 104.207 21.7058 103.277 21.7058H100.571V25.9695ZM100.571 34.8039H103.698C104.752 34.8039 105.496 34.5918 105.929 34.1677C106.15 33.942 106.321 33.6735 106.433 33.3791C106.545 33.0846 106.594 32.7705 106.578 32.4564C106.591 32.1596 106.54 31.8634 106.43 31.5874C106.319 31.3113 106.151 31.0616 105.936 30.8548C105.508 30.4476 104.757 30.2453 103.683 30.2478H100.571V34.8039Z" fill="#004556"/>
<path d="M130.704 39.6307H125.567V36.9942C124.963 37.9173 124.172 38.7056 123.244 39.3089C122.368 39.7934 121.375 40.0323 120.372 40C119.698 40.0322 119.025 39.9098 118.407 39.6421C117.788 39.3745 117.241 38.9689 116.806 38.4569C115.943 37.4282 115.512 35.8436 115.512 33.7033V23.344H121.043V32.2991C121.043 33.323 121.209 34.047 121.544 34.4931C121.71 34.7048 121.924 34.8739 122.169 34.986C122.414 35.098 122.683 35.1497 122.953 35.1367C123.273 35.1385 123.589 35.0609 123.871 34.9108C124.153 34.7607 124.393 34.5429 124.568 34.2774C124.988 33.7069 125.199 32.6757 125.199 31.1948V23.344H130.704V39.6307Z" fill="#004556"/>
<path d="M75.2201 23.0039C74.524 23.0449 73.8443 23.2305 73.2252 23.5488C72.3058 24.1164 71.5037 24.8523 70.8616 25.7172C70.5116 24.8989 69.9461 24.1891 69.2244 23.6621C68.4081 23.162 67.4574 22.9209 66.4994 22.971C65.5492 22.9444 64.6081 23.161 63.767 23.6C62.8801 24.1444 62.1167 24.8653 61.525 25.7172V23.3403H56.3848V39.627H61.9159V31.3191C61.9159 30.0807 62.1199 29.191 62.528 28.6498C62.7005 28.3976 62.9331 28.1915 63.2052 28.0499C63.4773 27.9083 63.7805 27.8355 64.0878 27.838C64.4611 27.8298 64.8241 27.9602 65.1055 28.2037C65.4034 28.4671 65.6164 28.8118 65.7176 29.1946C65.81 29.6765 65.8458 30.1673 65.8246 30.6573V39.627H71.3557V31.2167C71.3557 30.0393 71.5511 29.1873 71.9457 28.6571C72.1203 28.4063 72.3548 28.2023 72.6282 28.0632C72.9016 27.9241 73.2056 27.8543 73.5128 27.8599C73.7967 27.8684 74.0734 27.9509 74.3149 28.0992C74.5563 28.2475 74.7541 28.4563 74.8882 28.7046C75.172 29.2038 75.3003 29.7751 75.257 30.3465V39.6234H80.7881V29.3848C80.7904 28.7462 80.746 28.1082 80.6554 27.476C78.3224 26.7496 76.3705 25.1436 75.2201 23.0039Z" fill="#004556"/>
<path d="M74.6074 15.325C75.1731 13.8302 76.1195 12.5062 77.3545 11.4819C53.98 -0.855621 25.8856 -2.13179 0.195312 2.40245L0.232186 2.58893C14.8528 0.303914 29.7592 0.505476 44.3116 3.18497C55.0825 5.21075 65.5437 8.91127 74.471 15.2263C74.5189 15.2555 74.5595 15.2921 74.6074 15.325Z" fill="#FFC25F"/>
<path d="M83.4384 26.0316C87.5196 26.0316 90.828 22.7508 90.828 18.7037C90.828 14.6566 87.5196 11.3758 83.4384 11.3758C79.3573 11.3758 76.0488 14.6566 76.0488 18.7037C76.0488 22.7508 79.3573 26.0316 83.4384 26.0316Z" fill="#B7EBD2"/>
<path d="M83.4384 26.0316C87.5196 26.0316 90.828 22.7508 90.828 18.7037C90.828 14.6566 87.5196 11.3758 83.4384 11.3758C79.3573 11.3758 76.0488 14.6566 76.0488 18.7037C76.0488 22.7508 79.3573 26.0316 83.4384 26.0316Z" fill="url(#paint0_linear_1_12148)"/>
</g>
<defs>
<linearGradient id="paint0_linear_1_12148" x1="78.4936" y1="13.3943" x2="87.7676" y2="23.5238" gradientUnits="userSpaceOnUse">
<stop stop-color="#19DBB6"/>
<stop offset="0.28" stop-color="#0FCBAA"/>
<stop offset="0.7" stop-color="#04B99D"/>
<stop offset="1" stop-color="#00B398"/>
</linearGradient>
<clipPath id="clip0_1_12148">
<rect width="130.704" height="40" fill="white"/>
</clipPath>
</defs>
</svg>
