<svg width="26" height="30" viewBox="0 0 26 30" fill="none" xmlns="http://www.w3.org/2000/svg">
<g clip-path="url(#clip0_212_2745)">
<path d="M13.2433 0.914551C13.9456 1.15269 14.2376 1.6466 14.1871 2.37092C14.1654 2.68954 14.1832 3.01036 14.1832 3.33835C14.5124 3.41221 14.8283 3.47285 15.138 3.55443C18.6998 4.48823 21.2318 7.70912 21.2723 11.3649C21.284 12.4283 21.279 13.4916 21.2723 14.5555C21.2616 17.0258 22.1841 19.0837 24.0397 20.7294C24.8891 21.4796 25.0662 22.565 24.4838 23.4508C24.0675 24.0826 23.459 24.3824 22.7074 24.3935C22.1722 24.4012 21.6365 24.3935 21.1008 24.3935C15.2104 24.3935 9.31979 24.3935 3.42901 24.3935C2.46918 24.3935 1.74638 24.0115 1.34724 23.1256C0.989172 22.3318 1.19236 21.4228 1.8663 20.817C2.55522 20.1969 3.1731 19.5233 3.64274 18.7223C4.38219 17.4545 4.73304 16.0918 4.72804 14.6283C4.7236 13.3725 4.67253 12.1108 4.77301 10.8622C5.00894 7.91087 6.49394 5.72025 9.07923 4.26002C9.86186 3.82431 10.7174 3.53279 11.6046 3.39954C11.7889 3.37032 11.8266 3.2926 11.8222 3.12998C11.8122 2.89184 11.8344 2.65206 11.8172 2.41337C11.7644 1.68794 12.0392 1.16922 12.7476 0.915102L13.2433 0.914551Z" fill="#21B39A"/>
<path d="M0.00223091 12.1321C0.153229 8.27898 1.55662 4.95556 4.27681 2.19441C4.78143 1.68341 5.49812 1.66301 5.9822 2.12936C6.46628 2.59571 6.47128 3.31397 5.96943 3.82497C4.40227 5.41915 3.31253 7.27959 2.75351 9.44155C2.50093 10.4091 2.37205 11.4044 2.36991 12.4039C2.36991 12.8521 2.22446 13.2346 1.83364 13.4887C1.45614 13.734 1.052 13.7605 0.650079 13.5593C0.248157 13.3581 0.0333188 13.0191 0.00223091 12.572C-0.00498591 12.426 0.00223091 12.2788 0.00223091 12.1321Z" fill="#E0E0E0"/>
<path d="M25.9978 12.0043C25.9978 12.2248 26.0028 12.3902 25.9978 12.5556C25.9904 12.8564 25.8654 13.1426 25.6491 13.3535C25.4328 13.5644 25.1423 13.6833 24.8392 13.6851C24.2014 13.6906 23.6773 13.2198 23.6546 12.5826C23.619 11.5903 23.5396 10.6075 23.3037 9.64116C22.8005 7.53558 21.7412 5.60123 20.2349 4.03726C19.9795 3.76991 19.7136 3.51303 19.672 3.11834C19.642 2.87616 19.6882 2.63068 19.8043 2.41562C19.9204 2.20055 20.1007 2.02644 20.3204 1.91719C20.7767 1.6967 21.3163 1.75182 21.6683 2.14816C22.2917 2.84603 22.9307 3.54059 23.463 4.30571C25.0857 6.63249 25.8973 9.2382 25.9978 12.0043Z" fill="#E0E0E0"/>
<path d="M8.6875 25.5732H17.3183C17.0757 27.1851 15.4547 29.0847 12.9971 29.0841C10.6521 29.083 8.96452 27.2915 8.6875 25.5732Z" fill="#E0E0E0"/>
</g>
<defs>
<clipPath id="clip0_212_2745">
<rect width="26" height="28.1667" fill="white" transform="translate(0 0.916748)"/>
</clipPath>
</defs>
</svg>
