<svg width="19" height="20" viewBox="0 0 19 20" fill="none" xmlns="http://www.w3.org/2000/svg">
<path d="M18.2633 10.6472C18.657 10.1269 18.875 9.48937 18.875 8.82609C18.875 7.77374 18.2867 6.77765 17.3398 6.22218C17.0961 6.0792 16.8185 6.00395 16.5359 6.00421H10.9156L11.0563 3.12375C11.0891 2.42765 10.843 1.76672 10.3648 1.26281C10.1302 1.01444 9.84712 0.816825 9.53308 0.682182C9.21905 0.547539 8.88074 0.478727 8.53906 0.479998C7.32031 0.479998 6.24219 1.30031 5.91875 2.47453L3.90547 9.76359H0.875C0.460156 9.76359 0.125 10.0987 0.125 10.5136V19.0448C0.125 19.4597 0.460156 19.7948 0.875 19.7948H14.968C15.1836 19.7948 15.3945 19.7526 15.5891 19.6683C16.7047 19.1925 17.4242 18.1026 17.4242 16.8933C17.4242 16.598 17.382 16.3073 17.2977 16.0261C17.6914 15.5058 17.9094 14.8683 17.9094 14.205C17.9094 13.9097 17.8672 13.6191 17.7828 13.3378C18.1766 12.8175 18.3945 12.18 18.3945 11.5167C18.3898 11.2214 18.3477 10.9284 18.2633 10.6472ZM1.8125 18.1073V11.4511H3.71094V18.1073H1.8125ZM16.7281 9.8339L16.2148 10.2792L16.5406 10.8745C16.648 11.0706 16.7036 11.2908 16.7023 11.5144C16.7023 11.9011 16.5336 12.2691 16.243 12.5222L15.7297 12.9675L16.0555 13.5628C16.1628 13.7589 16.2185 13.9791 16.2172 14.2026C16.2172 14.5894 16.0484 14.9573 15.7578 15.2105L15.2445 15.6558L15.5703 16.2511C15.6776 16.4472 15.7333 16.6674 15.732 16.8909C15.732 17.4159 15.4227 17.8894 14.9445 18.105H5.21094V11.3761L7.54297 2.92687C7.6031 2.71031 7.73219 2.51925 7.91066 2.38264C8.08914 2.24604 8.30728 2.17133 8.53203 2.16984C8.71016 2.16984 8.88594 2.2214 9.02656 2.32687C9.25859 2.50031 9.38281 2.76281 9.36875 3.04171L9.14375 7.69171H16.5125C16.9297 7.94718 17.1875 8.37843 17.1875 8.82609C17.1875 9.2128 17.0188 9.57843 16.7281 9.8339Z" fill="#4F4F4F"/>
</svg>
