<svg width="25" height="25" viewBox="0 0 25 25" fill="none" xmlns="http://www.w3.org/2000/svg">
<path d="M20 2.13522H5C3.62109 2.13522 2.5 3.25632 2.5 4.63522V15.8852C2.5 17.2641 3.62109 18.3852 5 18.3852H8.75V21.6665C8.75 21.9438 8.97656 22.1352 9.21875 22.1352C9.3125 22.1352 9.41016 22.1079 9.49609 22.0415L14.375 18.3852H20C21.3789 18.3852 22.5 17.2641 22.5 15.8852V4.63522C22.5 3.25632 21.3789 2.13522 20 2.13522ZM20.625 15.8852C20.625 16.229 20.3438 16.5102 20 16.5102H13.75L13.25 16.8852L10.625 18.854V16.5102H5C4.65625 16.5102 4.375 16.229 4.375 15.8852V4.63522C4.375 4.29147 4.65625 4.01022 5 4.01022H20C20.3438 4.01022 20.625 4.29147 20.625 4.63522V15.8852Z" fill="#4F4F4F"/>
</svg>
