<svg width="62" height="52" viewBox="0 0 62 52" fill="none" xmlns="http://www.w3.org/2000/svg">
<g clip-path="url(#clip0_321_3475)">
<path d="M8.35772 9.21019L3.89648 12.3469L10.4779 21.4747C10.6473 21.3771 10.8013 21.3001 10.9399 21.2026C12.2439 20.3144 13.5428 19.4315 14.8365 18.5382C15.2112 18.2815 15.5809 18.0248 16.0583 18.302C16.5358 18.5792 16.5717 18.9899 16.5717 19.452C16.5717 28.9938 16.5717 38.5374 16.5717 48.0828C16.5717 48.283 16.5717 48.4883 16.5717 48.6886C16.5674 48.785 16.583 48.8813 16.6178 48.9714C16.6526 49.0614 16.7057 49.1433 16.7737 49.2118C16.8418 49.2803 16.9232 49.334 17.0131 49.3694C17.1029 49.4048 17.199 49.4212 17.2955 49.4176C17.4598 49.4176 17.6189 49.4176 17.8089 49.4176H44.2578C45.2846 49.4176 45.4386 49.2738 45.4386 48.2265C45.4386 46.6967 45.4386 45.1565 45.4386 43.6062C45.4308 43.4048 45.4463 43.2033 45.4848 43.0055C45.5075 42.8743 45.5595 42.7499 45.6368 42.6415C45.7141 42.5331 45.8148 42.4434 45.9314 42.3792V39.7559C45.8225 39.6959 45.7274 39.6138 45.6522 39.5147C45.577 39.4157 45.5235 39.3019 45.4951 39.1809C45.446 38.9655 45.4252 38.7445 45.4335 38.5238V19.4571C45.4335 19.375 45.4335 19.2928 45.4335 19.2107C45.4745 18.2712 46.1881 17.8811 46.9736 18.3996C48.2006 19.2158 49.407 20.0578 50.6237 20.8894L51.3373 21.372L57.929 12.234C57.7287 12.0851 57.5747 11.9567 57.4156 11.8438C53.7877 9.29405 50.1582 6.74257 46.527 4.18939C45.0284 3.10458 43.2419 2.48828 41.3932 2.41828C41.1822 2.38965 40.9676 2.43085 40.7822 2.5356C40.5968 2.64034 40.4509 2.80288 40.3665 2.9984C39.6598 4.48193 38.599 5.76879 37.2775 6.74554C35.9561 7.72229 34.4147 8.35895 32.7891 8.59931C28.8567 9.25129 25.5557 7.97295 22.958 4.95431C22.4626 4.34587 22.0357 3.68479 21.6849 2.98298C21.6007 2.78854 21.4539 2.62784 21.2678 2.52645C21.0818 2.42505 20.8671 2.3888 20.6581 2.42342C18.8316 2.47007 17.0611 3.06379 15.5757 4.12779C14.6054 4.82084 13.6301 5.4985 12.6547 6.18128C12.5259 6.27968 12.3904 6.3689 12.2491 6.44825C12.0913 6.54524 11.9069 6.5896 11.7223 6.57483C11.5377 6.56007 11.3626 6.48693 11.2223 6.36609L9.16883 7.81383C9.23398 7.96985 9.24969 8.14211 9.21389 8.30734C9.17809 8.47258 9.09249 8.62281 8.96861 8.73787C8.78317 8.91754 8.5783 9.07598 8.35772 9.21019Z" fill="white"/>
<path d="M0 13.8922C0.309651 12.9465 0.956516 12.1479 1.8173 11.6487C3.70137 10.3704 5.55467 9.04079 7.41821 7.73169C7.59333 7.5941 7.78471 7.47856 7.98804 7.38771C8.17484 7.3039 8.38578 7.29107 8.58138 7.35155C8.77698 7.41202 8.94386 7.54166 9.05076 7.71627C9.17491 7.88066 9.23319 8.0855 9.2142 8.29062C9.1952 8.49574 9.10027 8.68638 8.94805 8.82518C8.77495 8.99225 8.58581 9.14185 8.38335 9.27181L3.92217 12.4085L10.5036 21.5363C10.6679 21.4387 10.8219 21.3617 10.9656 21.2642L14.8621 18.5998C15.2369 18.3431 15.6065 18.0864 16.0839 18.3636C16.5614 18.6408 16.5973 19.0516 16.5973 19.5136V48.1444C16.5973 48.3446 16.5973 48.55 16.5973 48.7502C16.5922 48.8468 16.6074 48.9434 16.6419 49.0339C16.6764 49.1243 16.7294 49.2065 16.7976 49.2751C16.8658 49.3438 16.9476 49.3975 17.0378 49.4326C17.128 49.4678 17.2245 49.4836 17.3212 49.4792C17.4803 49.4792 17.6446 49.4792 17.8037 49.4792H44.2578C45.2846 49.4792 45.4386 49.3354 45.4386 48.2881V43.6678C45.4308 43.4664 45.4463 43.2649 45.4848 43.0671C45.5178 42.8543 45.6307 42.662 45.8004 42.5295C45.9702 42.3969 46.1841 42.334 46.3986 42.3536C46.5066 42.3501 46.6141 42.3684 46.7149 42.4074C46.8157 42.4464 46.9076 42.5052 46.9852 42.5804C47.0628 42.6556 47.1244 42.7456 47.1665 42.8451C47.2086 42.9446 47.2303 43.0515 47.2303 43.1595C47.2303 45.1566 47.2867 47.1587 47.2303 49.1506C47.1693 49.7004 46.9177 50.2115 46.5191 50.595C46.1205 50.9786 45.6002 51.2105 45.0484 51.2503C44.8484 51.2631 44.6478 51.2631 44.4478 51.2503H17.6292C16.1712 51.2503 15.201 50.588 14.8929 49.3559C14.8202 49.0014 14.7909 48.6394 14.8056 48.2778V20.8587C14.5798 20.9973 14.4155 21.0896 14.2923 21.1923L10.0929 24.0518C8.5168 25.1196 7.01265 24.8475 5.88837 23.3023C4.19937 20.9664 2.50526 18.6306 0.831661 16.2794C0.553602 15.8428 0.298291 15.3921 0.0667409 14.9292L0 13.8922ZM2.45394 13.4866C1.74035 13.9999 1.64792 14.4415 2.11509 15.1037C3.02376 16.382 3.94782 17.6706 4.86676 18.9284C5.69329 20.0732 6.50953 21.2231 7.34633 22.3577C7.8597 23.0302 8.3731 23.0816 8.97374 22.522L2.45394 13.4866Z" fill="#004556"/>
<path d="M47.2355 20.91V38.606C47.2483 38.7871 47.2483 38.969 47.2355 39.1502C47.2256 39.3544 47.1404 39.5477 46.9963 39.6928C46.8521 39.8379 46.6593 39.9244 46.4551 39.9356C46.3496 39.9557 46.2412 39.9547 46.136 39.9328C46.0309 39.9108 45.9311 39.8684 45.8424 39.8078C45.7537 39.7472 45.6778 39.6698 45.6191 39.5798C45.5604 39.4899 45.52 39.3892 45.5003 39.2836C45.4511 39.0682 45.4304 38.8473 45.4387 38.6265C45.4387 32.271 45.4387 25.9154 45.4387 19.5599C45.4387 19.4777 45.4387 19.3956 45.4387 19.3135C45.4797 18.374 46.1882 17.9838 46.9788 18.5023C48.2057 19.3185 49.4122 20.1605 50.6289 20.9921L51.3425 21.4747L57.9393 12.3367C57.7391 12.1827 57.5851 12.0594 57.4259 11.9465C53.7981 9.39676 50.1702 6.84534 46.5424 4.29216C45.0431 3.20873 43.257 2.59251 41.4086 2.52099C41.1936 2.48539 40.9728 2.52329 40.7818 2.62853C40.5909 2.73377 40.441 2.90023 40.3563 3.1011C39.6489 4.5841 38.5878 5.87053 37.2665 6.84718C35.9452 7.82384 34.4042 8.46079 32.7789 8.70202C28.8464 9.354 25.5455 8.07572 22.9478 5.05709C22.4525 4.44753 22.0239 3.78665 21.6695 3.08575C21.586 2.89074 21.4394 2.72947 21.2531 2.62796C21.0669 2.52646 20.8519 2.49058 20.6427 2.52613C18.8178 2.57286 17.049 3.16668 15.5655 4.23056C14.5952 4.92362 13.6198 5.60127 12.6444 6.28405C12.5157 6.38245 12.3801 6.47167 12.2388 6.55102C12.0487 6.67321 11.8188 6.71738 11.597 6.67435C11.3752 6.63132 11.1785 6.50436 11.0478 6.31996C10.9746 6.22799 10.9212 6.12186 10.8909 6.00825C10.8607 5.89464 10.8543 5.77602 10.8722 5.65982C10.89 5.54362 10.9317 5.43232 10.9946 5.33301C11.0576 5.2337 11.1403 5.14848 11.2378 5.08272C13.1475 3.77875 14.8981 2.22325 17.1005 1.37618C18.3129 0.928688 19.5968 0.705993 20.8892 0.719048C27.628 0.719048 34.3686 0.719048 41.1109 0.719048C43.3853 0.709285 45.6045 1.41911 47.451 2.74691C51.8216 5.82714 56.1955 8.90738 60.5729 11.9876C62.1746 13.1119 62.4364 14.6879 61.3018 16.2794C59.5906 18.6751 57.8691 21.0709 56.1373 23.4666C55.0644 24.9503 53.5243 25.2172 52.0304 24.2007C50.6442 23.2612 49.2684 22.3116 47.8823 21.3669C47.6975 21.1821 47.5076 21.0794 47.2355 20.91ZM23.4612 2.53641C24.6162 5.14947 28.0815 7.19786 31.1053 7.05925C32.644 7.03405 34.1487 6.60239 35.4668 5.80809C36.7849 5.0138 37.8696 3.88509 38.6108 2.53641H23.4612ZM59.3972 13.384L52.862 22.4553C53.6885 23.0919 54.1711 23.0456 54.7101 22.3013C56.4214 19.9055 58.1412 17.5098 59.8696 15.114C60.3881 14.3953 60.2597 13.9076 59.387 13.384H59.3972Z" fill="#004556"/>
<path d="M29.1697 26.9113C29.1697 25.823 29.1287 24.7346 29.1697 23.6463C29.2724 21.4747 30.33 20.2273 32.4553 19.8987C34.0776 19.6471 35.6485 19.8165 36.8344 21.1667C37.4275 21.8684 37.7418 22.7638 37.7174 23.6822C37.7174 25.9154 37.7893 28.1537 37.6661 30.3869C37.5531 32.4404 36.4083 33.6057 34.3446 33.9035C32.712 34.1345 31.1462 33.9548 29.986 32.5841C29.2416 31.7011 29.1389 30.6128 29.1235 29.5039C29.1235 28.6414 29.1235 27.7738 29.1235 26.9062L29.1697 26.9113ZM35.7152 26.9113H35.6639C35.7204 25.7258 35.7101 24.5381 35.6331 23.3537C35.4945 22.1216 34.6063 21.5876 33.2767 21.639C33.0153 21.6207 32.7529 21.6563 32.5057 21.7433C32.2585 21.8303 32.0318 21.9669 31.8394 22.1449C31.647 22.3228 31.4931 22.5383 31.3872 22.778C31.2812 23.0176 31.2254 23.2764 31.2232 23.5385C31.1411 24.5396 31.1565 25.5509 31.1565 26.5571C31.1565 27.8098 31.1565 29.0623 31.2284 30.3098C31.2313 30.677 31.3452 31.0348 31.555 31.3362C31.7648 31.6375 32.0607 31.8685 32.404 31.9989C34.1238 32.697 35.6485 31.7268 35.7049 29.8786C35.7409 28.8827 35.7152 27.897 35.7152 26.9062V26.9113Z" fill="#004556"/>
<path d="M24.7909 22.6914C24.6688 22.8841 24.5182 23.0572 24.3443 23.2048C24.1133 23.3434 23.7385 23.5282 23.5845 23.4358C23.4643 23.3437 23.3654 23.2268 23.2945 23.0931C23.2236 22.9593 23.1825 22.8117 23.1738 22.6606C23.2181 22.3658 23.3632 22.0955 23.5845 21.8957C24.1697 21.2848 24.8063 20.7201 25.407 20.1246C25.5292 19.9606 25.7094 19.8496 25.9108 19.8143C26.1122 19.779 26.3195 19.822 26.4902 19.9346C26.6201 20.0432 26.7266 20.1769 26.8034 20.3278C26.8802 20.4787 26.9256 20.6435 26.9368 20.8125C26.9676 24.827 26.9368 28.8365 26.9368 32.8459C26.9368 33.5698 26.6185 33.8727 25.9101 33.8727C25.2016 33.8727 24.8833 33.5749 24.8833 32.8459C24.8833 29.7041 24.8833 26.5571 24.8833 23.4153V22.753L24.7909 22.6914Z" fill="#004556"/>
<path d="M2.45368 13.4866L8.97349 22.522C8.36771 23.0816 7.84404 23.0353 7.34607 22.3577C6.50928 21.2231 5.69304 20.0732 4.86651 18.9284C3.94757 17.6552 3.02351 16.3615 2.11484 15.1037C1.64767 14.4415 1.74009 14.0051 2.45368 13.4866Z" fill="#FFEDAE"/>
<path d="M23.4609 2.53638H38.6106C37.8694 3.88506 36.7847 5.01377 35.4666 5.80806C34.1485 6.60236 32.6438 7.03402 31.1051 7.05922C28.1018 7.19783 24.616 5.14944 23.4609 2.53638Z" fill="#EEFEFB"/>
<path d="M59.3868 13.384C60.2595 13.8974 60.4136 14.4108 59.8591 15.1347C58.1479 17.5304 56.428 19.9261 54.6997 22.3219C54.1863 23.0663 53.673 23.1124 52.8516 22.4758L59.3868 13.384Z" fill="#FFEDAE"/>
<path d="M35.7155 26.9061C35.7155 27.897 35.7411 28.8826 35.7155 29.8735C35.659 31.7216 34.1343 32.6919 32.4145 31.9937C32.0712 31.8634 31.7753 31.6324 31.5655 31.331C31.3557 31.0296 31.2419 30.6719 31.2389 30.3047C31.1721 29.0572 31.1721 27.8046 31.167 26.5519C31.167 25.5252 31.167 24.5344 31.2337 23.5333C31.2359 23.2713 31.2917 23.0125 31.3977 22.7728C31.5036 22.5331 31.6576 22.3177 31.8499 22.1397C32.0423 21.9618 32.269 21.8251 32.5162 21.7381C32.7634 21.6511 33.0258 21.6156 33.2872 21.6338C34.6425 21.5825 35.505 22.1164 35.6436 23.3485C35.7206 24.5329 35.731 25.7206 35.6744 26.9061H35.7155Z" fill="white"/>
</g>
<defs>
<clipPath id="clip0_321_3475">
<rect width="62" height="50.6031" fill="white" transform="translate(0 0.698486)"/>
</clipPath>
</defs>
</svg>
