<svg width="46" height="50" viewBox="0 0 46 50" fill="none" xmlns="http://www.w3.org/2000/svg">
<g clip-path="url(#clip0_321_3462)">
<path d="M23.6445 0C25.0584 0.328852 26.4819 0.623851 27.8862 0.967212C29.1177 1.21082 30.3226 1.57527 31.4835 2.05532C33.2532 2.92098 34.0804 4.5169 34.1525 6.49485C34.1735 6.68724 34.1177 6.88011 33.9973 7.03112C33.8769 7.18212 33.7018 7.27885 33.5105 7.30002C33.3192 7.32118 33.1273 7.26506 32.9772 7.14399C32.827 7.02291 32.7308 6.84681 32.7098 6.65442C32.6569 6.3836 32.6665 6.10313 32.6088 5.83231C32.4924 5.13249 32.1721 4.48311 31.6883 3.96655C31.2046 3.44999 30.5793 3.08949 29.8916 2.93068C27.8092 2.40839 25.7028 1.96347 23.6061 1.47986C22.4759 1.23806 21.389 1.56689 20.3022 1.8232C18.9845 2.13755 17.6619 2.46156 16.3442 2.79041C14.3147 3.27402 13.2183 4.6378 13.2087 6.72697C13.2087 8.17779 13.2087 9.58992 13.2087 11.0214C13.2087 11.1665 13.2087 11.3067 13.2087 11.505C19.5136 9.33586 26.3567 9.33586 32.6617 11.505C32.6617 11.0843 32.6617 10.7167 32.6617 10.354C32.6608 10.1595 32.6768 9.96531 32.7098 9.77365C32.722 9.6881 32.7512 9.6059 32.7955 9.53185C32.8399 9.4578 32.8985 9.39339 32.9679 9.34247C33.0374 9.29155 33.1163 9.25512 33.2 9.23532C33.2837 9.21552 33.3704 9.21275 33.4552 9.22718C33.5409 9.22717 33.6257 9.24424 33.7048 9.27736C33.7838 9.31047 33.8556 9.35896 33.916 9.4201C33.9763 9.48124 34.0241 9.5538 34.0564 9.63357C34.0887 9.71334 34.1051 9.79879 34.1044 9.88493C34.1044 10.2912 34.1044 10.6973 34.1044 11.1036C34.0322 11.7459 34.204 12.3919 34.5853 12.9123C35.2009 13.6957 35.1192 16.3459 34.5853 17.1971C34.3873 17.517 34.1175 17.7858 33.7977 17.9823C33.4779 18.1788 33.1169 18.2974 32.7435 18.3287C32.4982 19.2233 32.3202 20.118 32.0028 20.9595C31.4318 22.5141 30.3993 23.8546 29.0452 24.7993C28.8346 24.9126 28.6641 25.0888 28.5573 25.3036C28.4505 25.5185 28.4126 25.7613 28.4488 25.9987C28.4681 26.3563 28.4681 26.7146 28.4488 27.0722C28.4439 27.2179 28.4536 27.3638 28.4777 27.5075C28.4975 27.8036 28.6137 28.0848 28.8084 28.3078C29.0032 28.5307 29.2656 28.6829 29.555 28.7407C30.9977 29.0841 32.402 29.587 33.8207 30.0416C35.7107 30.6509 37.668 31.12 39.4763 31.918C43.2322 33.5671 45.2473 36.5799 45.4877 40.6906C45.6128 42.8958 45.5406 45.1156 45.5117 47.3305C45.5209 47.6828 45.4574 48.0332 45.3253 48.3596C45.1932 48.686 44.9953 48.9813 44.7442 49.2271C44.493 49.4728 44.194 49.6636 43.8659 49.7875C43.5378 49.9114 43.1878 49.9656 42.8379 49.9468H3.06129C2.70734 49.965 2.35352 49.9093 2.02209 49.783C1.69066 49.6567 1.38884 49.4627 1.13575 49.2132C0.882667 48.9637 0.683807 48.6641 0.551691 48.3334C0.419574 48.0027 0.357074 47.6481 0.368177 47.2918C0.368177 46.6051 0.368177 45.9232 0.368177 45.2413C0.368177 44.6707 0.656741 44.3322 1.10399 44.3322C1.55124 44.3322 1.81574 44.661 1.82055 45.2413C1.82536 45.8217 1.82055 46.5132 1.82055 47.1467C1.79551 47.3262 1.81193 47.5091 1.86851 47.6812C1.9251 47.8532 2.02033 48.0098 2.14684 48.1389C2.27334 48.268 2.42772 48.3661 2.59799 48.4255C2.76825 48.4849 2.94981 48.504 3.12863 48.4815H6.57681V47.9253C6.57681 45.8942 6.57681 43.8598 6.57681 41.8222C6.57087 41.6284 6.59191 41.4347 6.63934 41.2468C6.6783 41.0884 6.77518 40.9507 6.91067 40.861C7.04617 40.7714 7.21033 40.7365 7.37034 40.7632C7.53489 40.7652 7.69259 40.8296 7.81204 40.9434C7.93148 41.0573 8.00387 41.2122 8.01475 41.3773C8.02896 41.5382 8.02896 41.7001 8.01475 41.8609V48.467H37.8989V41.8948C37.882 41.7162 37.882 41.5365 37.8989 41.358C37.9184 41.2027 37.9928 41.0597 38.1084 40.955C38.2241 40.8502 38.3732 40.7907 38.5288 40.7873C38.6829 40.7606 38.8415 40.7917 38.9744 40.8745C39.1073 40.9574 39.2054 41.0864 39.2502 41.2371C39.3113 41.4375 39.3389 41.6466 39.332 41.8561C39.332 44.0517 39.332 46.2521 39.332 48.4766C39.445 48.4971 39.5589 48.5116 39.6734 48.5201C40.7218 48.5201 41.775 48.5201 42.8282 48.5201C43.6121 48.5201 44.0834 48.1043 44.0834 47.3353C44.0834 44.9463 44.2037 42.538 43.9824 40.1683C43.6602 36.7444 41.7173 34.365 38.5481 33.127C36.913 32.4838 35.1817 32.0437 33.5081 31.5359C33.4198 31.5292 33.3312 31.5418 33.2482 31.5726C33.1652 31.6035 33.0898 31.652 33.0272 31.7148C31.9355 32.9384 30.8631 34.1764 29.7906 35.4144C28.396 37.02 27.564 37.257 25.5634 36.6042L25.27 36.5074L24.0244 39.1527C24.4493 39.3243 24.8324 39.5859 25.1478 39.9197C25.4631 40.2535 25.7033 40.6517 25.8519 41.0871C26.0815 41.7904 26.0474 42.5538 25.7559 43.2335C25.4645 43.9132 24.9359 44.4622 24.2697 44.777C24.1254 44.819 24.0019 44.9137 23.9236 45.0426C23.8453 45.1715 23.8178 45.3252 23.8465 45.4735C23.8682 45.8149 23.8682 46.1573 23.8465 46.4987C23.8559 46.6461 23.8346 46.7938 23.7842 46.9324C23.7337 47.0711 23.6551 47.1977 23.5533 47.3042C23.4515 47.4106 23.3288 47.4946 23.193 47.5508C23.0572 47.6069 22.9113 47.634 22.7645 47.6303C22.1825 47.6303 21.5958 47.6303 21.0139 47.6303C20.8666 47.6375 20.7194 47.6132 20.5821 47.5591C20.4448 47.5049 20.3204 47.4221 20.2173 47.3161C20.1141 47.2101 20.0345 47.0833 19.9836 46.9441C19.9328 46.8048 19.9119 46.6563 19.9222 46.5084C19.9222 45.014 19.9222 43.5149 19.9222 42.0205C19.9195 41.446 20.0807 40.8827 20.3867 40.3976C20.6927 39.9124 21.1307 39.5257 21.6487 39.2833C21.716 39.2494 21.7785 39.2011 21.8747 39.1431L20.634 36.5074C20.3887 36.5896 20.1531 36.6525 19.9367 36.7298C19.3406 36.9783 18.68 37.024 18.0557 36.8599C17.4315 36.6957 16.8777 36.3308 16.4789 35.8207C15.3439 34.5294 14.1993 33.2431 13.1124 31.9228C13.0016 31.7437 12.8285 31.6123 12.6268 31.5542C12.4251 31.4961 12.2091 31.5155 12.0208 31.6085C10.6165 32.0921 9.18337 32.5032 7.76948 32.9674C6.03076 33.5145 4.51274 34.6087 3.43912 36.0888C2.36551 37.569 1.79306 39.3567 1.80611 41.1887C1.80611 41.3338 1.80611 41.4788 1.80611 41.6288C1.81398 41.7262 1.80208 41.8242 1.77112 41.9168C1.74016 42.0094 1.69078 42.0947 1.626 42.1675C1.56123 42.2403 1.48244 42.2992 1.39435 42.3404C1.30626 42.3817 1.21074 42.4045 1.11362 42.4074C1.0113 42.4158 0.908367 42.4014 0.812226 42.3652C0.716084 42.329 0.629109 42.2719 0.557444 42.198C0.485779 42.1241 0.431192 42.0352 0.397647 41.9376C0.364103 41.8401 0.352401 41.7362 0.363363 41.6336C0.362755 40.7724 0.44001 39.9129 0.594193 39.0657C1.4358 35.3951 3.63362 32.861 7.1924 31.652C10.1741 30.6316 13.199 29.7176 16.2096 28.8036C17.1281 28.5134 17.3637 28.141 17.4407 27.14C17.529 26.6103 17.465 26.0663 17.2562 25.572C17.0475 25.0776 16.7027 24.6535 16.2625 24.3495C14.3869 22.8987 13.5116 20.7902 13.2327 18.4108L12.8624 18.3335C12.3335 18.2326 11.8548 17.9533 11.505 17.5418C11.1553 17.1303 10.9555 16.6112 10.9387 16.0702C10.8818 15.4267 10.8818 14.7793 10.9387 14.1358C11.0688 13.6257 11.2492 13.13 11.4773 12.656C11.6095 12.4116 11.7005 12.1469 11.7467 11.8725C11.7467 10.1654 11.7467 8.45341 11.7467 6.74628C11.7755 4.03325 13.2663 2.11337 15.8921 1.46534C17.8543 0.981734 19.826 0.546501 21.793 0.087075C21.8542 0.0679276 21.9137 0.0436509 21.9709 0.0145223L23.6445 0ZM12.4151 14.8128C12.393 15.2446 12.393 15.6772 12.4151 16.1089C12.432 16.3237 12.5283 16.5242 12.6849 16.671C12.8416 16.8178 13.0474 16.9002 13.2616 16.902C13.4539 16.902 13.6511 16.902 13.8434 16.902C13.9451 16.8954 14.0471 16.9098 14.1431 16.9441C14.2391 16.9785 14.3271 17.0321 14.4018 17.1018C14.4765 17.1715 14.5363 17.2558 14.5776 17.3495C14.6188 17.4432 14.6407 17.5443 14.6418 17.6468C14.6418 17.8547 14.6851 18.0675 14.7043 18.2755C14.7839 19.4853 15.1786 20.6528 15.8489 21.6607C17.8447 24.5624 20.658 25.8971 24.1158 25.4425C25.4689 25.3025 26.7644 24.8185 27.8801 24.0358C28.9957 23.2532 29.8948 22.1978 30.4927 20.9691C30.9843 19.9401 31.2624 18.8212 31.3103 17.6807C31.3487 17.1535 31.6037 16.9359 32.1231 16.9068C32.3202 16.9068 32.5126 16.9068 32.7049 16.9068C32.903 16.9062 33.094 16.8333 33.2426 16.7016C33.3912 16.57 33.4873 16.3886 33.5129 16.1911C33.5423 15.7402 33.5423 15.2879 33.5129 14.8371C32.628 15.9687 31.5892 16.1234 30.3292 15.7559C25.654 14.3428 20.6742 14.3059 15.9787 15.6495C15.6245 15.7595 15.2649 15.8515 14.9014 15.9252C14.4245 16.001 13.9359 15.9362 13.4947 15.7389C13.0535 15.5415 12.6785 15.2199 12.4151 14.8128ZM27.035 26.1438C25.7623 26.7229 24.3826 27.0261 22.9857 27.0336C21.5909 27.0205 20.2132 26.7227 18.9363 26.1582C18.9364 26.7276 18.8979 27.2964 18.8209 27.8605C18.6754 28.4047 18.4922 28.938 18.2727 29.4564L22.9857 33.9443L27.6938 29.4516C27.4773 28.9358 27.2958 28.4058 27.1504 27.8654C27.0727 27.2916 27.0341 26.7132 27.035 26.1341V26.1438ZM32.5703 13.0864C26.3803 10.8715 19.6199 10.8715 13.4299 13.0864C13.6318 14.4163 14.031 14.6581 15.2429 14.3728C16.6857 14.0342 18.1284 13.6957 19.5712 13.4733C21.9258 13.1073 24.3232 13.1187 26.6743 13.5071C28.117 13.7489 29.5598 14.1068 31.0025 14.4356C31.7624 14.6097 32.1904 14.3969 32.4164 13.6619C32.4741 13.4539 32.5126 13.2847 32.5703 13.0574V13.0864ZM21.6247 34.6407C20.0377 33.1318 18.5275 31.6955 17.0127 30.2882C16.9644 30.25 16.9083 30.2232 16.8483 30.2098C16.7884 30.1964 16.7262 30.1968 16.6664 30.2108C15.8633 30.4478 15.0698 30.6945 14.1993 30.9798C15.4497 32.4016 16.6328 33.7895 17.8831 35.1146C18.0374 35.2494 18.2183 35.3497 18.414 35.4089C18.6096 35.4681 18.8155 35.4848 19.0181 35.458C19.9015 35.2348 20.7717 34.9619 21.6247 34.6407ZM24.3659 34.6407C25.2075 34.926 25.9625 35.2065 26.732 35.4338C27.0063 35.5194 27.3 35.519 27.5741 35.4326C27.8481 35.3462 28.0895 35.178 28.2661 34.9502C29.4107 33.6493 30.5408 32.3387 31.671 31.0282C31.671 31.0282 31.671 30.975 31.671 30.9169C30.9015 30.6751 30.1224 30.4333 29.3337 30.1867C29.2668 30.1737 29.1979 30.1752 29.1315 30.191C29.0652 30.2068 29.003 30.2367 28.949 30.2786C27.4293 31.739 25.9337 33.1463 24.3659 34.6407ZM22.4422 46.1601C22.4422 45.6379 22.4422 45.1398 22.4422 44.6417C22.4422 43.9695 22.6057 43.7711 23.2357 43.6261C23.6301 43.5566 23.9839 43.3403 24.2267 43.0202C24.4696 42.7001 24.5835 42.2998 24.5459 41.899C24.5083 41.4982 24.3218 41.1263 24.0237 40.8575C23.7257 40.5888 23.3379 40.4428 22.9376 40.4488C22.5209 40.475 22.1306 40.6633 21.8496 40.9738C21.5687 41.2844 21.419 41.6927 21.4323 42.1124C21.4323 43.2343 21.4323 44.3611 21.4323 45.4976V46.1747L22.4422 46.1601ZM23.0049 37.9921L23.9042 36.0577C23.0867 35.6369 22.8366 35.6369 22.1104 36.0577L23.0049 37.9921Z" fill="#004556"/>
<path d="M12.4147 14.8128C12.6805 15.2231 13.0596 15.5465 13.5055 15.7432C13.9515 15.94 14.4449 16.0015 14.9251 15.9203C15.2886 15.8466 15.6481 15.7546 16.0024 15.6446C20.6978 14.301 25.6776 14.3379 30.3529 15.751C31.5984 16.1185 32.6516 15.9638 33.5365 14.8322C33.5659 15.283 33.5659 15.7353 33.5365 16.1862C33.5109 16.3837 33.4149 16.5651 33.2663 16.6967C33.1177 16.8284 32.9266 16.9013 32.7286 16.9019C32.5362 16.9019 32.3439 16.9019 32.1467 16.9019C31.6273 16.931 31.3724 17.1486 31.3339 17.6758C31.2861 18.8164 31.0079 19.9352 30.5164 20.9642C29.9191 22.1976 29.0186 23.2572 27.9001 24.0426C26.7816 24.828 25.4822 25.3131 24.125 25.4521C20.6528 25.9067 17.8731 24.5817 15.8581 21.6704C15.1879 20.6624 14.7931 19.495 14.7135 18.2851C14.7135 18.0772 14.6702 17.8644 14.651 17.6564C14.6499 17.5539 14.628 17.4528 14.5868 17.3591C14.5455 17.2654 14.4857 17.1811 14.411 17.1115C14.3363 17.0418 14.2483 16.9881 14.1523 16.9537C14.0563 16.9194 13.9544 16.9051 13.8527 16.9116C13.6603 16.9116 13.4632 16.9116 13.2708 16.9116C13.0566 16.9099 12.8509 16.8275 12.6942 16.6806C12.5375 16.5338 12.4412 16.3332 12.4244 16.1185C12.3987 15.6837 12.3955 15.2479 12.4147 14.8128Z" fill="white"/>
<path d="M27.0348 26.134C27.0344 26.7099 27.0729 27.2851 27.1502 27.8556C27.2956 28.3961 27.4771 28.9261 27.6936 29.4419L22.9855 33.9346L18.2725 29.4467C18.492 28.9283 18.6752 28.395 18.8207 27.8508C18.8977 27.2867 18.9363 26.7179 18.9361 26.1485C20.213 26.7129 21.5907 27.0108 22.9855 27.0239C24.3824 27.0164 25.7621 26.7132 27.0348 26.134Z" fill="white"/>
<path d="M32.5703 13.0574C32.5126 13.2847 32.4741 13.454 32.426 13.6232C32.2 14.3583 31.7719 14.5904 31.0121 14.397C29.5693 14.0681 28.1266 13.7103 26.6838 13.4685C24.3328 13.0801 21.9354 13.0687 19.5808 13.4346C18.138 13.6571 16.6953 13.9956 15.2525 14.3341C14.0406 14.6195 13.6414 14.3776 13.4395 13.0477C19.6277 10.8382 26.3843 10.8416 32.5703 13.0574Z" fill="#EEFEFB"/>
<path d="M21.6246 34.6406C20.7711 34.9537 19.9009 35.2185 19.018 35.4337C18.8154 35.4606 18.6095 35.4439 18.4139 35.3847C18.2182 35.3255 18.0373 35.2252 17.8831 35.0904C16.6327 33.7653 15.4496 32.3773 14.1992 30.9555C15.0697 30.6799 15.8632 30.4236 16.6663 30.1866C16.7261 30.1725 16.7883 30.1722 16.8482 30.1856C16.9082 30.199 16.9643 30.2257 17.0126 30.264C18.5274 31.7099 20.0376 33.1463 21.6246 34.6406Z" fill="#EEFEFB"/>
<path d="M24.3657 34.6408C25.9335 33.1416 27.4292 31.7102 28.9392 30.2884C28.9932 30.2465 29.0554 30.2167 29.1218 30.2008C29.1881 30.185 29.257 30.1835 29.324 30.1965C30.1127 30.4286 30.8918 30.6801 31.6612 30.9267C31.6612 30.9847 31.6612 31.0235 31.6612 31.038C30.5311 32.3485 29.4009 33.6591 28.2563 34.96C28.0797 35.1878 27.8383 35.356 27.5643 35.4424C27.2902 35.5288 26.9965 35.5292 26.7222 35.4436C25.9624 35.2115 25.2073 34.931 24.3657 34.6408Z" fill="#EEFEFB"/>
<path d="M22.4227 46.165H21.4032V45.488C21.4032 44.366 21.4032 43.2392 21.4032 42.1028C21.3898 41.6831 21.5396 41.2747 21.8206 40.9642C22.1015 40.6536 22.4917 40.4653 22.9084 40.4391C23.3087 40.4332 23.6966 40.5791 23.9947 40.8479C24.2927 41.1167 24.4791 41.4885 24.5167 41.8893C24.5543 42.2901 24.4404 42.6904 24.1976 43.0105C23.9548 43.3306 23.6009 43.547 23.2066 43.6165C22.5766 43.7615 22.4179 43.9598 22.4131 44.632C22.4179 45.1446 22.4227 45.6427 22.4227 46.165Z" fill="white"/>
<path d="M22.9853 37.9968L22.0908 36.0962C22.817 35.6658 23.0526 35.6658 23.8846 36.0962L22.9853 37.9968Z" fill="#FFEDAE"/>
<path d="M16.3875 2.83389C14.3581 3.31749 13.2616 4.68127 13.252 6.77044C13.252 8.22126 13.252 9.63339 13.252 11.0649C13.252 11.2099 13.252 11.3502 13.252 11.5485C19.5569 9.37933 26.4 9.37933 32.705 11.5485C32.705 11.1277 32.705 10.7602 32.705 10.3975C32.704 10.203 32.7201 10.0088 32.753 9.81719C32.7712 9.69663 32.8228 9.58365 32.9019 9.49126C32.981 9.39887 33.0845 9.33079 33.2003 9.29485V7.26373C33.0753 7.21431 32.9653 7.13303 32.881 7.02789C32.7966 6.92275 32.741 6.79738 32.7194 6.66407C32.6665 6.39325 32.6761 6.11272 32.6184 5.8419C32.5021 5.14207 32.1817 4.49275 31.698 3.97619C31.2143 3.45963 30.5889 3.09908 29.9012 2.94027C27.8189 2.41797 25.7124 1.97305 23.6156 1.48945C22.4855 1.24764 21.3986 1.57654 20.3118 1.83285C19.0277 2.20039 17.7052 2.52438 16.3875 2.83389Z" fill="#EEFEFB"/>
<path d="M21.0423 47.6497C20.895 47.6569 20.7479 47.6326 20.6106 47.5785C20.4732 47.5243 20.3489 47.4414 20.2458 47.3354C20.1426 47.2294 20.063 47.1026 20.0121 46.9634C19.9613 46.8242 19.9403 46.6757 19.9507 46.5277C19.9507 45.0334 19.9507 43.5342 19.9507 42.0399C19.9479 41.4654 20.1092 40.9021 20.4152 40.4169C20.7212 39.9318 21.1592 39.5451 21.6772 39.3027C21.7445 39.2688 21.807 39.2204 21.9032 39.1624L20.6625 36.5268C20.4172 36.609 20.1815 36.6718 19.9651 36.7492C19.369 36.9977 18.7085 37.0434 18.0842 36.8793C17.4599 36.7151 16.9062 36.3501 16.5073 35.84C15.3724 34.5488 14.2278 33.2624 13.1409 31.9422C13.0301 31.7631 12.857 31.6317 12.6553 31.5736C12.4535 31.5155 12.2376 31.5349 12.0492 31.6278C10.645 32.1115 9.21185 32.5225 7.79796 32.9867C6.05924 33.5338 4.54122 34.628 3.46761 36.1082C2.39399 37.5883 1.82154 39.3761 1.8346 41.208C1.8346 41.3531 1.8346 41.4982 1.8346 41.6481C1.84678 41.8228 1.79616 41.996 1.692 42.1362C1.58784 42.2765 1.43705 42.3744 1.26709 42.4122V44.4192C1.62297 44.4917 1.82979 44.8061 1.8346 45.3139C1.8346 45.9522 1.8346 46.5858 1.8346 47.2193C1.80956 47.3988 1.82598 47.5816 1.88256 47.7537C1.93914 47.9257 2.03438 48.0824 2.16088 48.2115C2.28738 48.3406 2.44171 48.4386 2.61197 48.498C2.78224 48.5574 2.96385 48.5766 3.14267 48.554H6.59086V47.9979C6.59086 45.9667 6.59086 43.9324 6.59086 41.8948C6.58491 41.701 6.60596 41.5073 6.65338 41.3193C6.69235 41.161 6.78922 41.0232 6.92472 40.9336C7.06021 40.844 7.22432 40.809 7.38432 40.8357C7.54888 40.8378 7.70664 40.9021 7.82608 41.0159C7.94553 41.1298 8.01791 41.2847 8.02879 41.4498C8.04301 41.6107 8.04301 41.7726 8.02879 41.9335V48.5395H37.9129V41.8948C37.896 41.7163 37.896 41.5365 37.9129 41.358C37.9325 41.2027 38.0068 41.0597 38.1224 40.955C38.2381 40.8502 38.3873 40.7907 38.5429 40.7873C38.697 40.7606 38.8555 40.7917 38.9884 40.8746C39.1214 40.9574 39.2195 41.0864 39.2642 41.2371C39.3253 41.4375 39.353 41.6467 39.346 41.8561C39.346 44.0517 39.346 46.2521 39.346 48.4767C39.459 48.4971 39.573 48.5116 39.6874 48.5202C40.7358 48.5202 41.7891 48.5202 42.8423 48.5202C43.6262 48.5202 44.0975 48.1043 44.0975 47.3353C44.0975 44.9463 44.2177 42.538 43.9964 40.1683C43.6742 36.7444 41.7314 34.365 38.5621 33.127C36.927 32.4838 35.1957 32.0437 33.5221 31.5359C33.4339 31.5292 33.3452 31.5418 33.2622 31.5726C33.1793 31.6035 33.1039 31.652 33.0412 31.7149C31.9495 32.9384 30.8771 34.1764 29.8047 35.4145C28.41 37.02 27.578 37.257 25.5774 36.6042L25.284 36.5074L24.0384 39.1527C24.4633 39.3243 24.8465 39.5859 25.1618 39.9197C25.4772 40.2535 25.7173 40.6517 25.8659 41.0871C26.0955 41.7904 26.0613 42.5538 25.7699 43.2335C25.4784 43.9132 24.9498 44.4622 24.2837 44.7771C24.1394 44.819 24.016 44.9137 23.9376 45.0426C23.8593 45.1715 23.8318 45.3252 23.8605 45.4735C23.8821 45.8149 23.8821 46.1573 23.8605 46.4987C23.8699 46.6461 23.8487 46.7938 23.7982 46.9324C23.7477 47.0711 23.6691 47.1977 23.5673 47.3042C23.4655 47.4106 23.3429 47.4946 23.207 47.5508C23.0712 47.6069 22.9252 47.634 22.7784 47.6303C22.2013 47.698 21.6242 47.6981 21.0423 47.6497Z" fill="#FFEDAE"/>
</g>
<defs>
<clipPath id="clip0_321_3462">
<rect width="45.283" height="50" fill="white" transform="translate(0.358398)"/>
</clipPath>
</defs>
</svg>
