<svg width="50" height="52" viewBox="0 0 50 52" fill="none" xmlns="http://www.w3.org/2000/svg">
<g clip-path="url(#clip0_321_3487)">
<path d="M49.9999 27.6669C49.8062 28.6167 49.6863 29.5943 49.4051 30.5164C48.8094 32.6341 47.7173 34.5791 46.2194 36.1902C44.7214 37.8012 42.8608 39.0317 40.792 39.7796C40.6021 39.8218 40.4355 39.9352 40.3266 40.0964C40.2177 40.2577 40.1747 40.4545 40.2065 40.6464C40.2387 42.4032 40.2065 44.1645 40.2065 45.9213C40.218 46.084 40.218 46.2473 40.2065 46.41C40.2018 46.538 40.1715 46.6638 40.1174 46.7799C40.0633 46.896 39.9865 47.0002 39.8916 47.0861C39.7966 47.1721 39.6853 47.2381 39.5644 47.2804C39.4434 47.3226 39.3153 47.3403 39.1874 47.3322C39.059 47.3327 38.9319 47.3064 38.8143 47.2549C38.6966 47.2035 38.591 47.128 38.5042 47.0334C38.4174 46.9388 38.3513 46.8271 38.3101 46.7054C38.269 46.5838 38.2537 46.4549 38.2653 46.327C38.2653 45.2849 38.2653 44.2429 38.2653 43.2009V39.6828C38.2653 38.7606 38.4267 38.5209 39.3212 38.2488C41.6338 37.5723 43.6889 36.2145 45.2185 34.3526C47.1191 32.0812 48.1243 29.1936 48.0449 26.2329C48.0449 25.5413 47.6668 25.1218 47.0858 25.1125C46.5048 25.1033 46.0899 25.5321 46.0945 26.2514C46.1284 27.6292 45.8856 28.9997 45.3802 30.282C44.8749 31.5642 44.1174 32.732 43.1526 33.7161C42.1878 34.7003 41.0353 35.4808 39.7633 36.0115C38.4914 36.5421 37.1259 36.8122 35.7478 36.8056C34.0049 36.8056 32.262 36.8056 30.5237 36.7733C28.3994 36.6553 26.3659 35.8724 24.7109 34.5352C23.056 33.1981 21.8635 31.3744 21.302 29.3222C21.0979 28.3216 20.9654 27.3077 20.9054 26.2883C20.8501 25.6889 20.6518 25.2923 20.2276 25.1586C20.076 25.1082 19.9142 25.096 19.7567 25.123C19.5991 25.15 19.4507 25.2154 19.3244 25.3134C19.1982 25.4114 19.098 25.5389 19.0328 25.6848C18.9675 25.8308 18.9393 25.9905 18.9504 26.15C18.8699 28.3414 19.3948 30.5127 20.4674 32.4253C21.9618 35.1757 24.464 37.2399 27.4482 38.1843C28.3704 38.4886 28.5133 38.7099 28.5133 39.6736C28.5133 42.9934 28.5133 46.3147 28.5133 49.6376C28.5167 49.8642 28.4919 50.0903 28.4396 50.3108C28.3894 50.5269 28.2629 50.7177 28.0833 50.8482C27.9037 50.9786 27.6832 51.0399 27.4621 51.0208C27.2412 51.0035 27.033 50.9106 26.8726 50.7578C26.7122 50.6049 26.6093 50.4015 26.5814 50.1817C26.5699 50.0036 26.5699 49.8249 26.5814 49.6468C26.5814 46.5852 26.5814 43.5236 26.5814 40.462C26.6046 40.3054 26.5669 40.1459 26.4759 40.0164C26.385 39.8868 26.2478 39.7971 26.0926 39.7658C24.796 39.2798 23.5827 38.5954 22.4962 37.737C22.3855 37.6494 22.2702 37.571 22.072 37.4327V38.0321C22.072 41.8898 22.072 45.7476 22.072 49.6053C22.0778 49.8488 22.053 50.092 21.9982 50.3292C21.9468 50.533 21.8274 50.7131 21.6597 50.8397C21.492 50.9663 21.2861 51.0318 21.076 51.0255C20.852 51.0158 20.6382 50.9294 20.4703 50.7808C20.3024 50.6323 20.1907 50.4305 20.1539 50.2093C20.14 50.0159 20.14 49.8218 20.1539 49.6284C20.1539 45.036 20.1539 40.4436 20.1539 35.8512C20.1539 35.1319 19.5913 34.7538 19.2317 34.2374C19.1948 34.182 19.0473 34.1913 18.955 34.1913H12.9609C12.8785 34.1982 12.7967 34.2121 12.7166 34.2327V34.8045C12.7166 39.7227 12.7166 44.6564 12.7166 49.6053C12.7224 49.8488 12.6977 50.092 12.6428 50.3292C12.5907 50.537 12.4678 50.7201 12.2953 50.8471C12.1228 50.9742 11.9115 51.0373 11.6976 51.0255C11.4733 51.0167 11.259 50.9306 11.0909 50.7819C10.9229 50.6331 10.8114 50.4309 10.7754 50.2093C10.7538 49.9995 10.7462 49.7885 10.7524 49.5776V34.2651C9.6504 33.887 9.59045 33.804 9.59045 32.6374C9.59045 29.6081 9.59045 26.5788 9.59045 23.5495C9.6106 23.4181 9.58112 23.284 9.50782 23.1732C9.43452 23.0624 9.32266 22.9828 9.19392 22.95C4.71679 21.1518 1.75659 17.9519 0.507052 13.2672C0.200601 11.9537 0.0458945 10.6093 0.0459678 9.26045C0.029697 8.87191 0.0926406 8.48409 0.230919 8.12063C0.369198 7.75716 0.57992 7.42564 0.850333 7.14617C1.12075 6.8667 1.4452 6.64513 1.80391 6.49496C2.16262 6.34478 2.54811 6.26911 2.93698 6.27257C3.32988 6.26925 3.71938 6.34546 4.08209 6.49653C4.4448 6.64761 4.77323 6.87049 5.0476 7.15174C5.32196 7.433 5.53663 7.76683 5.67866 8.13318C5.8207 8.49952 5.88715 8.89077 5.87408 9.28347C5.8326 11.035 6.31419 12.7591 7.25734 14.2355C8.42388 16.0291 10.5356 17.4862 12.4353 17.7582C11.8051 16.6584 11.5586 15.3802 11.7345 14.1249C11.8408 13.0647 12.2998 12.0709 13.0379 11.3026C13.7761 10.5343 14.7508 10.036 15.8059 9.88752C16.8923 9.74659 17.9937 9.98972 18.9199 10.5749C19.846 11.16 20.5386 12.0504 20.8778 13.092C21.1328 13.8733 21.2207 14.6994 21.1357 15.5168C21.0507 16.3342 20.7947 17.1246 20.3844 17.8366C20.5965 17.7951 20.7625 17.7767 20.9239 17.7352C22.7 17.2958 24.2803 16.2799 25.4175 14.8465C26.5547 13.4132 27.1845 11.6432 27.2085 9.81373C27.2085 8.91922 27.2961 8.06622 27.9047 7.33771C28.2805 6.88333 28.7859 6.5543 29.3535 6.39449C29.9211 6.23467 30.5239 6.25164 31.0816 6.44317C31.6352 6.62131 32.1214 6.96381 32.4756 7.42506C32.8298 7.88631 33.035 8.44448 33.0642 9.02529C33.1477 10.8502 32.8784 12.674 32.2712 14.3969C32.0037 15.1623 31.5427 15.4989 30.9663 15.3191C30.39 15.1392 30.1409 14.586 30.4176 13.7975C30.9261 12.3342 31.1637 10.7905 31.1185 9.24199C31.1273 8.98605 31.0359 8.73676 30.8637 8.54727C30.6914 8.35777 30.4519 8.2431 30.1963 8.22762C29.9416 8.22332 29.6948 8.31631 29.5063 8.48766C29.3179 8.65901 29.2018 8.89584 29.1819 9.14979C29.1819 9.31117 29.1819 9.47713 29.1819 9.63851C29.0021 10.7543 28.979 11.9439 28.601 12.9814C27.1347 17.0435 24.1884 19.4366 19.8957 19.8469C17.5946 20.0592 15.2784 20.0484 12.9794 19.8146C10.5795 19.5402 8.35638 18.4184 6.70985 16.651C5.06333 14.8836 4.10153 12.5867 3.99749 10.1734C3.99749 9.87829 3.99749 9.58318 3.99749 9.2927C4.00669 9.159 3.9883 9.02483 3.94346 8.89854C3.89862 8.77224 3.82824 8.65654 3.73678 8.55858C3.64533 8.46061 3.53471 8.38246 3.41179 8.32905C3.28888 8.27564 3.15632 8.24811 3.0223 8.24811C2.88828 8.24811 2.75568 8.27564 2.63276 8.32905C2.50984 8.38246 2.39923 8.46061 2.30777 8.55858C2.21631 8.65654 2.14599 8.77224 2.10115 8.89854C2.05631 9.02483 2.03792 9.159 2.04711 9.2927C1.97987 11.9482 2.77394 14.5541 4.31066 16.7208C5.84739 18.8875 8.0442 20.4986 10.5726 21.3131C11.4578 21.599 11.6146 21.8296 11.6146 22.7656V32.1717H18.2035C17.9868 31.4893 17.7654 30.8346 17.5718 30.1706C17.2162 28.8656 17.0516 27.516 17.0831 26.1638C17.0646 25.7701 17.1259 25.3768 17.2631 25.0074C17.4003 24.638 17.6107 24.3001 17.8816 24.0139C18.1526 23.7277 18.4785 23.4992 18.8398 23.342C19.2012 23.1848 19.5906 23.1022 19.9847 23.0991C20.3787 23.096 20.7693 23.1724 21.1332 23.3239C21.497 23.4754 21.8265 23.6988 22.1019 23.9807C22.3773 24.2625 22.5929 24.5971 22.736 24.9643C22.879 25.3315 22.9464 25.7238 22.9342 26.1177C22.9073 27.3823 23.1445 28.6386 23.6304 29.8063C24.1235 30.9557 24.8717 31.9777 25.8183 32.795C26.765 33.6122 27.8853 34.2032 29.0943 34.5232C29.1711 34.5457 29.2498 34.5611 29.3294 34.5693C29.3571 34.5693 29.3894 34.5694 29.4171 34.5371C27.9232 31.4478 29.062 28.7044 30.7726 27.5102C31.5976 26.9648 32.5692 26.6841 33.5579 26.7056C34.5465 26.727 35.5051 27.0495 36.3057 27.63C38.1869 29.0133 38.837 32.1717 37.4169 34.6708C38.9075 34.4204 40.2958 33.7502 41.4191 32.7388C42.3416 31.9413 43.0745 30.948 43.5642 29.8313C44.054 28.7145 44.2883 27.5025 44.2501 26.2837C44.2058 25.7192 44.3249 25.1538 44.593 24.6551C44.8612 24.1564 45.2671 23.7454 45.7625 23.471C46.1378 23.2561 46.5566 23.1282 46.988 23.0966C47.4193 23.065 47.8523 23.1306 48.2549 23.2885C48.6575 23.4465 49.0196 23.6928 49.3145 24.0092C49.6093 24.3257 49.8293 24.7043 49.9584 25.1171L50.1152 25.5782L49.9999 27.6669ZM36.1074 31.7567C36.1074 31.6415 36.1074 31.5262 36.1074 31.4155C35.9968 29.668 34.5997 28.437 32.9951 28.6859C32.4546 28.7345 31.9436 28.9537 31.5358 29.3117C31.128 29.6698 30.8446 30.1482 30.7265 30.6778C30.4222 31.9366 30.4545 33.2045 31.5519 34.1267C31.9611 34.4681 32.455 34.6928 32.9813 34.7768C34.7979 35.0258 36.1074 33.7256 36.1074 31.7567ZM19.1441 14.8903C19.1118 14.5998 19.1026 14.3047 19.0473 14.0188C18.9408 13.4908 18.6825 13.0054 18.3041 12.6221C17.9257 12.2387 17.4437 11.9742 16.9171 11.8609C16.3792 11.7564 15.8224 11.8121 15.3158 12.0212C14.8093 12.2302 14.3753 12.5833 14.0676 13.0367C13.6302 13.8068 13.4814 14.7075 13.648 15.5773C13.7346 16.295 14.1019 16.9492 14.6696 17.3968C15.2373 17.8444 15.9592 18.049 16.6773 17.9657C18.1989 17.7675 19.1211 16.5963 19.1441 14.8903Z" fill="#004556"/>
<path d="M21.6707 0.993117C21.9261 1.08299 22.1426 1.2582 22.2837 1.48921C22.4249 1.72022 22.482 1.99288 22.4454 2.2611C22.4454 2.56542 22.4454 2.87895 22.4454 3.18327C22.443 3.31042 22.4155 3.43583 22.3646 3.55238C22.3137 3.66893 22.2403 3.77437 22.1487 3.86257C22.0571 3.95077 21.949 4.02001 21.8306 4.06643C21.7122 4.11285 21.5858 4.13555 21.4586 4.13313C21.3315 4.13071 21.206 4.10326 21.0895 4.05236C20.9729 4.00146 20.8676 3.92808 20.7794 3.83645C20.6912 3.74483 20.6219 3.63673 20.5754 3.51833C20.529 3.39993 20.5064 3.27356 20.5088 3.1464C20.5088 2.88358 20.5088 2.62074 20.5088 2.36714C20.4557 2.09205 20.4953 1.80712 20.6212 1.55687C20.7472 1.30662 20.9525 1.10514 21.205 0.983887L21.6707 0.993117Z" fill="#004556"/>
<path d="M49.9999 13.793C49.5388 14.4477 48.0679 14.7474 47.3394 14.3371C47.1795 14.2468 47.0501 14.1107 46.9679 13.9464C46.8858 13.7821 46.8546 13.5971 46.8783 13.4149C46.8747 13.2256 46.9393 13.0412 47.0604 12.8956C47.1814 12.75 47.3508 12.6528 47.5377 12.6218C48.1266 12.5411 48.7239 12.5411 49.3129 12.6218C49.5757 12.6587 49.7739 13.0091 50.0183 13.2166L49.9999 13.793Z" fill="#004556"/>
<path d="M15.3912 44.2751C15.3912 42.403 15.3912 40.5311 15.3912 38.6591C15.3912 37.8706 15.9583 37.3588 16.59 37.6032C16.8766 37.7574 17.111 37.9933 17.2632 38.281C17.3424 38.4943 17.3677 38.724 17.337 38.9495C17.337 42.4999 17.337 46.0502 17.337 49.6006C17.3424 49.844 17.3176 50.0872 17.2632 50.3245C17.2035 50.5287 17.077 50.707 16.904 50.8307C16.7309 50.9544 16.5213 51.0164 16.3087 51.0069C16.0958 50.9938 15.8931 50.9108 15.7322 50.7708C15.5713 50.6307 15.4612 50.4414 15.4189 50.2323C15.3921 50.0383 15.3812 49.8424 15.3866 49.6467L15.3912 44.2751Z" fill="#004556"/>
<path d="M22.3212 23.3972C22.0889 23.4109 21.8593 23.3421 21.6728 23.2029C21.4864 23.0637 21.3551 22.8631 21.3022 22.6365C21.2503 22.4197 21.2786 22.1913 21.3821 21.9938C21.4855 21.7963 21.657 21.6429 21.8648 21.5621C22.4457 21.3177 23.0774 21.1794 23.6399 20.8936C24.5068 20.4325 25.3275 19.9299 26.1666 19.4365C26.3188 19.3489 26.4525 19.2244 26.6277 19.1322C26.8333 18.9712 27.0944 18.8983 27.3537 18.9294C27.613 18.9605 27.8493 19.0931 28.011 19.2982C28.0917 19.4016 28.1504 19.5206 28.1834 19.6476C28.2163 19.7747 28.2228 19.9071 28.2025 20.0368C28.1822 20.1665 28.1355 20.2906 28.0652 20.4015C27.995 20.5124 27.9028 20.6076 27.7943 20.6814C26.9724 21.2906 26.1114 21.8452 25.2168 22.3414C24.4067 22.7155 23.5753 23.0419 22.727 23.3189C22.5943 23.3568 22.4585 23.383 22.3212 23.3972Z" fill="#004556"/>
<path d="M18.5355 6.44322C18.293 6.46168 18.0495 6.46168 17.807 6.44322C17.5823 6.41262 17.3758 6.30303 17.2246 6.13405C17.0734 5.96507 16.9872 5.74775 16.9816 5.52105C16.9729 5.29049 17.051 5.06504 17.2003 4.8892C17.3497 4.71336 17.5596 4.59993 17.7885 4.57125C18.2899 4.5228 18.7949 4.5228 19.2963 4.57125C19.5229 4.59632 19.7321 4.70444 19.8837 4.87474C20.0353 5.04503 20.1184 5.26544 20.117 5.49342C20.1285 5.73354 20.0457 5.96862 19.8864 6.14863C19.7271 6.32863 19.5038 6.43931 19.264 6.45707C19.0214 6.47324 18.7781 6.47324 18.5355 6.45707V6.44322Z" fill="#004556"/>
<path d="M22.4639 8.38907C22.4554 8.66232 22.4308 8.93484 22.3902 9.2052C22.3476 9.43239 22.2236 9.63624 22.0415 9.77857C21.8594 9.92091 21.6316 9.99196 21.4008 9.97838C21.1701 9.96481 20.9522 9.86755 20.788 9.70484C20.6238 9.54213 20.5246 9.32511 20.5089 9.09449C20.4755 8.63401 20.4755 8.17172 20.5089 7.71124C20.5154 7.48076 20.608 7.26111 20.7685 7.09554C20.929 6.92996 21.1456 6.8305 21.3758 6.81676C21.6129 6.7875 21.8521 6.85143 22.0431 6.99507C22.234 7.1387 22.3617 7.35084 22.3994 7.58679C22.4362 7.85276 22.4578 8.12063 22.4639 8.38907Z" fill="#004556"/>
<path d="M46.4956 10.5883C46.4965 10.8487 46.4811 11.1089 46.4495 11.3675C46.4153 11.5955 46.297 11.8025 46.1178 11.9476C45.9385 12.0927 45.7114 12.1654 45.4812 12.1513C45.257 12.161 45.0374 12.0856 44.8664 11.9403C44.6954 11.7949 44.5856 11.5903 44.5591 11.3675C44.5037 10.851 44.5037 10.3301 44.5591 9.81361C44.5889 9.58386 44.7042 9.37376 44.8819 9.2251C45.0596 9.07645 45.2867 9.00013 45.5181 9.01133C45.7404 9.01951 45.9531 9.1036 46.1209 9.24959C46.2887 9.39557 46.4014 9.59462 46.4403 9.81361C46.4749 10.0704 46.4934 10.3291 46.4956 10.5883Z" fill="#004556"/>
<path d="M42.5672 14.4615C42.3399 14.4753 42.112 14.4753 41.8847 14.4615C41.6487 14.4325 41.4312 14.3188 41.2727 14.1416C41.1141 13.9644 41.0252 13.7356 41.0225 13.4978C41.0213 13.2684 41.1057 13.0468 41.2592 12.8763C41.4127 12.7058 41.6242 12.5986 41.8524 12.5756C42.3522 12.5249 42.8558 12.5249 43.3556 12.5756C43.5814 12.5989 43.7898 12.7071 43.9388 12.8783C44.0878 13.0496 44.1661 13.271 44.1579 13.4978C44.1594 13.7251 44.0769 13.9449 43.9263 14.1151C43.7757 14.2853 43.5675 14.3939 43.3417 14.42C43.0839 14.4384 42.825 14.4384 42.5672 14.42V14.4615Z" fill="#004556"/>
<path d="M46.5005 16.4395C46.4966 16.6972 46.4765 16.9544 46.4405 17.2096C46.4 17.4254 46.286 17.6205 46.1179 17.7617C45.9498 17.9029 45.7379 17.9815 45.5184 17.9841C45.2973 17.987 45.0826 17.9104 44.9133 17.7682C44.7441 17.626 44.6315 17.4278 44.5962 17.2096C44.5409 16.6777 44.5409 16.1414 44.5962 15.6096C44.626 15.39 44.7375 15.1897 44.9085 15.0487C45.0794 14.9077 45.2971 14.8364 45.5184 14.8488C45.7374 14.8454 45.9505 14.9201 46.1194 15.0595C46.2884 15.1989 46.4022 15.3939 46.4405 15.6096C46.4793 15.8845 46.4994 16.1618 46.5005 16.4395Z" fill="#004556"/>
<path d="M24.3498 6.48001C24.0906 6.48027 23.8317 6.46178 23.5752 6.42469C23.3578 6.38834 23.1607 6.27533 23.0194 6.10617C22.8782 5.93701 22.8021 5.72288 22.8051 5.50252C22.795 5.28109 22.8678 5.06385 23.0093 4.89329C23.1509 4.72273 23.351 4.61112 23.5706 4.58035C24.1007 4.52042 24.6358 4.52042 25.1659 4.58035C25.3858 4.61369 25.5863 4.7254 25.7303 4.89487C25.8744 5.06433 25.9523 5.28012 25.9498 5.50252C25.9454 5.72159 25.8662 5.93254 25.7252 6.10032C25.5843 6.2681 25.3902 6.38259 25.1751 6.42469C24.9016 6.46178 24.6259 6.48027 24.3498 6.48001Z" fill="#004556"/>
<path d="M30.5654 17.3063C30.5673 17.436 30.5429 17.5647 30.4934 17.6846C30.444 17.8045 30.3707 17.913 30.2779 18.0036C30.1852 18.0943 30.0749 18.165 29.9539 18.2116C29.8329 18.2582 29.7036 18.2796 29.574 18.2746C29.3245 18.2605 29.0898 18.1513 28.9183 17.9695C28.7468 17.7877 28.6515 17.547 28.6519 17.2971C28.6614 17.0357 28.772 16.7883 28.9604 16.6068C29.1487 16.4254 29.4001 16.324 29.6616 16.3242C29.7864 16.3264 29.9094 16.3539 30.0232 16.4051C30.137 16.4563 30.2392 16.53 30.3237 16.6218C30.4082 16.7136 30.4732 16.8216 30.5147 16.9393C30.5562 17.057 30.5735 17.1818 30.5654 17.3063Z" fill="#004556"/>
<path d="M39.2339 49.0706C39.4907 49.0706 39.737 49.1726 39.9186 49.3542C40.1002 49.5358 40.2022 49.782 40.2022 50.0388C40.2022 50.2956 40.1002 50.5419 39.9186 50.7235C39.737 50.9051 39.4907 51.0071 39.2339 51.0071C38.9771 51.0071 38.7308 50.9051 38.5492 50.7235C38.3677 50.5419 38.2656 50.2956 38.2656 50.0388C38.2656 49.782 38.3677 49.5358 38.5492 49.3542C38.7308 49.1726 38.9771 49.0706 39.2339 49.0706Z" fill="#004556"/>
<path d="M36.1078 31.7566C36.1078 33.7254 34.7983 35.0257 32.977 34.7767C32.4507 34.6927 31.9569 34.468 31.5476 34.1266C30.4502 33.2044 30.4179 31.9364 30.7223 30.6777C30.8406 30.1473 31.1247 29.6684 31.5334 29.3103C31.9421 28.9522 32.4541 28.7335 32.9954 28.6858C34.6 28.4368 35.9971 29.6679 36.1078 31.4154C36.1124 31.5261 36.1078 31.6413 36.1078 31.7566Z" fill="#FFEDAE"/>
<path d="M19.1442 14.8903C19.1211 16.5963 18.199 17.7582 16.6774 17.9657C15.9593 18.049 15.2374 17.8444 14.6697 17.3968C14.102 16.9492 13.7346 16.295 13.648 15.5773C13.4815 14.7075 13.6302 13.8068 14.0676 13.0367C14.3753 12.5833 14.8094 12.2302 15.3159 12.0212C15.8224 11.8122 16.3792 11.7564 16.9172 11.8609C17.4437 11.9742 17.9258 12.2387 18.3042 12.6221C18.6826 13.0054 18.9409 13.4908 19.0474 14.0188C19.1027 14.3047 19.1119 14.5998 19.1442 14.8903Z" fill="#FFEDAE"/>
<path d="M19.1995 34.1497C19.1626 34.0944 19.0151 34.1036 18.9229 34.1036H12.9288C12.8463 34.1106 12.7645 34.1244 12.6844 34.1451V34.7168C12.6844 39.6351 12.6844 44.5687 12.6844 49.5176C12.6902 49.7611 12.6654 50.0043 12.6106 50.2416C12.5815 50.3612 12.5264 50.473 12.4492 50.5689H15.6353C15.5379 50.4526 15.4727 50.3126 15.4463 50.1632C15.4194 49.9692 15.4087 49.7733 15.414 49.5776V44.2059C15.414 42.3339 15.414 40.4573 15.414 38.5853C15.414 37.8015 15.9811 37.2851 16.6128 37.534C16.8995 37.6882 17.1338 37.9242 17.286 38.2118C17.3652 38.4252 17.3906 38.6549 17.3598 38.8804C17.3598 42.4308 17.3598 45.9796 17.3598 49.5269C17.3654 49.7718 17.3406 50.0165 17.286 50.2554C17.2575 50.3702 17.204 50.4772 17.1292 50.5689H20.3291C20.2235 50.4354 20.1551 50.2764 20.1309 50.1078C20.1169 49.9129 20.1169 49.7172 20.1309 49.5223C20.1309 44.9299 20.1309 40.339 20.1309 35.7497C20.1217 35.0442 19.5499 34.6661 19.1995 34.1497Z" fill="#EEFEFB"/>
<path d="M27.4485 38.1797C28.3707 38.4794 28.5136 38.7053 28.5136 39.6644C28.5136 42.9903 28.5136 46.3132 28.5136 49.633C28.5159 49.8593 28.4928 50.0851 28.4445 50.3062C28.4185 50.4002 28.3797 50.4902 28.3292 50.5736H38.4731C38.379 50.4282 38.3257 50.2602 38.3187 50.0872C38.3117 49.9141 38.3512 49.7424 38.4331 49.5898C38.5151 49.4373 38.6364 49.3094 38.7845 49.2197C38.9327 49.13 39.1022 49.0817 39.2753 49.0797V47.323H39.2154C39.0866 47.3235 38.959 47.2971 38.841 47.2454C38.723 47.1937 38.6171 47.1178 38.5302 47.0227C38.4434 46.9276 38.3774 46.8153 38.3366 46.6931C38.2957 46.5709 38.281 46.4415 38.2932 46.3132C38.2932 45.2712 38.2932 44.2291 38.2932 43.1871V39.669C38.2932 38.7468 38.4546 38.5071 39.3491 38.2396C41.6631 37.5637 43.7188 36.2039 45.2464 34.3388C47.1464 32.0688 48.1515 29.1829 48.0728 26.2237C48.0728 25.5321 47.6947 25.1126 47.1138 25.1033C46.5328 25.0941 46.1178 25.5183 46.1224 26.2422C46.1564 27.62 45.9135 28.9905 45.4082 30.2727C44.9028 31.555 44.1453 32.7227 43.1805 33.7069C42.2157 34.6911 41.0632 35.4716 39.7913 36.0023C38.5194 36.5329 37.1538 36.803 35.7757 36.7964C34.0374 36.7964 32.2899 36.7964 30.5516 36.7595C28.4279 36.6418 26.3948 35.8595 24.74 34.5233C23.0851 33.187 21.8922 31.3644 21.3299 29.313C21.1256 28.3109 20.993 27.2954 20.9334 26.2744C20.8781 25.6797 20.6798 25.2831 20.2556 25.1448C20.1039 25.0944 19.9421 25.0822 19.7846 25.1092C19.6271 25.1362 19.4786 25.2015 19.3523 25.2995C19.2261 25.3975 19.1259 25.5252 19.0607 25.6711C18.9954 25.817 18.9672 25.9767 18.9784 26.1362C18.8972 28.3291 19.4221 30.502 20.4954 32.4161C21.9823 35.1628 24.4737 37.228 27.4485 38.1797Z" fill="white"/>
<path d="M16.9773 26.1775C16.9604 25.6841 17.0678 25.1944 17.2899 24.7535C17.5119 24.3125 17.8413 23.9346 18.2478 23.6544C18.6543 23.3742 19.1247 23.2008 19.6158 23.1503C20.1069 23.0997 20.6028 23.1735 21.0579 23.3649L21.5512 23.0975C21.4253 22.9719 21.3401 22.8112 21.3068 22.6364C21.2549 22.4196 21.2833 22.1913 21.3867 21.9938C21.4901 21.7963 21.6616 21.6429 21.8694 21.5621C22.4504 21.3223 23.082 21.1794 23.6446 20.8935C24.5068 20.4324 25.3321 19.9298 26.1713 19.4365C26.3235 19.3489 26.4572 19.2244 26.6324 19.1321C26.8229 18.9903 27.0581 18.9215 27.295 18.9385C27.532 18.9554 27.755 19.0569 27.9235 19.2244C28.3071 18.8598 28.666 18.4701 28.9978 18.0578C28.8901 17.9655 28.8038 17.8509 28.7449 17.7219C28.686 17.5929 28.6558 17.4527 28.6566 17.3109C28.6661 17.0495 28.7767 16.8021 28.9651 16.6206C29.1534 16.4391 29.4048 16.3378 29.6663 16.338C29.8179 16.3416 29.9664 16.3811 30.0998 16.4533C30.358 15.9922 30.5608 15.6049 30.7314 15.2498C30.2704 15.0147 30.132 14.5029 30.3718 13.802C30.884 12.3396 31.1232 10.7954 31.0773 9.24652C31.0861 8.99058 30.9947 8.74129 30.8225 8.5518C30.6502 8.3623 30.4107 8.24757 30.1551 8.2321C29.9007 8.2289 29.6545 8.32229 29.4663 8.49343C29.278 8.66457 29.1617 8.90072 29.1407 9.15427C29.1407 9.31565 29.1407 9.48166 29.1407 9.64304C28.9655 10.7635 28.9424 11.9485 28.5597 12.9859C27.0935 17.0481 24.1472 19.4411 19.8545 19.8515C17.5535 20.0663 15.2371 20.0555 12.9382 19.8192C10.5383 19.5447 8.31511 18.4229 6.66859 16.6555C5.02207 14.8881 4.06027 12.5912 3.95623 10.1779C3.95623 9.88282 3.95623 9.59232 3.95623 9.29723C3.96367 9.16249 3.94421 9.02764 3.89888 8.90054C3.85354 8.77343 3.78329 8.65665 3.69225 8.55703C3.60122 8.45741 3.49124 8.37693 3.36873 8.32035C3.24622 8.26377 3.1136 8.23224 2.97873 8.22754C2.84365 8.23095 2.71071 8.26167 2.58783 8.31788C2.46496 8.37408 2.35472 8.45459 2.2638 8.55455C2.17289 8.65452 2.10314 8.77182 2.05881 8.89947C2.01448 9.02711 1.99647 9.16243 2.00585 9.29723C1.93485 11.9535 2.72752 14.5612 4.26478 16.7287C5.80204 18.8961 8.00091 20.5064 10.5313 21.3177C11.4166 21.6035 11.5734 21.8387 11.5734 22.7701V32.1762H18.1623C17.9456 31.4938 17.7242 30.8391 17.5306 30.1751C17.1517 28.8768 16.9653 27.5299 16.9773 26.1775Z" fill="white"/>
</g>
<defs>
<clipPath id="clip0_321_3487">
<rect width="50" height="50.0138" fill="white" transform="translate(0 0.993164)"/>
</clipPath>
</defs>
</svg>
