<svg width="16" height="16" viewBox="0 0 16 16" fill="none" xmlns="http://www.w3.org/2000/svg">
<circle cx="8" cy="8" r="8" fill="#21B39A"/>
<path d="M5.33366 11H5.66699V6.66666H5.33366C5.15685 6.66666 4.98728 6.73689 4.86225 6.86192C4.73723 6.98694 4.66699 7.15651 4.66699 7.33332V10.3333C4.66699 10.5101 4.73723 10.6797 4.86225 10.8047C4.98728 10.9298 5.15685 11 5.33366 11ZM10.667 6.66666H8.33366L8.70766 5.54399C8.74103 5.44379 8.75012 5.3371 8.73418 5.23271C8.71824 5.12831 8.67773 5.02919 8.61598 4.94352C8.55424 4.85785 8.47302 4.78807 8.37902 4.73994C8.28502 4.6918 8.18093 4.66668 8.07533 4.66666H8.00033L6.33366 6.47932V11H10.0003L11.3043 8.13466L11.3337 7.99999V7.33332C11.3337 7.15651 11.2634 6.98694 11.1384 6.86192C11.0134 6.73689 10.8438 6.66666 10.667 6.66666Z" fill="white"/>
</svg>
