<svg width="24" height="24" viewBox="0 0 24 24" fill="none" xmlns="http://www.w3.org/2000/svg">
<path d="M5.81983 0H1.00629C0.450532 0 0 0.454199 0 1.01448V5.86721C0 6.42749 0.450532 6.88169 1.00629 6.88169H5.81983C6.37559 6.88169 6.82612 6.42749 6.82612 5.86721V1.01448C6.82612 0.454199 6.37559 0 5.81983 0Z" fill="#21B39A"/>
<path d="M14.4064 0H9.59284C9.03708 0 8.58655 0.454199 8.58655 1.01448V5.86721C8.58655 6.42749 9.03708 6.88169 9.59284 6.88169H14.4064C14.9621 6.88169 15.4127 6.42749 15.4127 5.86721V1.01448C15.4127 0.454199 14.9621 0 14.4064 0Z" fill="#E0E0E0"/>
<path d="M22.9937 0H18.1801C17.6244 0 17.1738 0.454199 17.1738 1.01448V5.86721C17.1738 6.42749 17.6244 6.88169 18.1801 6.88169H22.9937C23.5494 6.88169 23.9999 6.42749 23.9999 5.86721V1.01448C23.9999 0.454199 23.5494 0 22.9937 0Z" fill="#21B39A"/>
<path d="M5.81983 8.55859H1.00629C0.450532 8.55859 0 9.01279 0 9.57308V14.4258C0 14.9861 0.450532 15.4403 1.00629 15.4403H5.81983C6.37559 15.4403 6.82612 14.9861 6.82612 14.4258V9.57308C6.82612 9.01279 6.37559 8.55859 5.81983 8.55859Z" fill="#E0E0E0"/>
<path d="M14.4064 8.55859H9.59284C9.03708 8.55859 8.58655 9.01279 8.58655 9.57308V14.4258C8.58655 14.9861 9.03708 15.4403 9.59284 15.4403H14.4064C14.9621 15.4403 15.4127 14.9861 15.4127 14.4258V9.57308C15.4127 9.01279 14.9621 8.55859 14.4064 8.55859Z" fill="#21B39A"/>
<path d="M22.9937 8.55859H18.1801C17.6244 8.55859 17.1738 9.01279 17.1738 9.57308V14.4258C17.1738 14.9861 17.6244 15.4403 18.1801 15.4403H22.9937C23.5494 15.4403 23.9999 14.9861 23.9999 14.4258V9.57308C23.9999 9.01279 23.5494 8.55859 22.9937 8.55859Z" fill="#E0E0E0"/>
<path d="M5.81983 17.1182H1.00629C0.450532 17.1182 0 17.5724 0 18.1326V22.9854C0 23.5457 0.450532 23.9999 1.00629 23.9999H5.81983C6.37559 23.9999 6.82612 23.5457 6.82612 22.9854V18.1326C6.82612 17.5724 6.37559 17.1182 5.81983 17.1182Z" fill="#21B39A"/>
<path d="M14.4064 17.1182H9.59284C9.03708 17.1182 8.58655 17.5724 8.58655 18.1326V22.9854C8.58655 23.5457 9.03708 23.9999 9.59284 23.9999H14.4064C14.9621 23.9999 15.4127 23.5457 15.4127 22.9854V18.1326C15.4127 17.5724 14.9621 17.1182 14.4064 17.1182Z" fill="#E0E0E0"/>
<path d="M22.9937 17.1182H18.1801C17.6244 17.1182 17.1738 17.5724 17.1738 18.1326V22.9854C17.1738 23.5457 17.6244 23.9999 18.1801 23.9999H22.9937C23.5494 23.9999 23.9999 23.5457 23.9999 22.9854V18.1326C23.9999 17.5724 23.5494 17.1182 22.9937 17.1182Z" fill="#21B39A"/>
</svg>
