<svg width="20" height="20" viewBox="0 0 20 20" fill="none" xmlns="http://www.w3.org/2000/svg">
<path d="M18.2097 0.324227L10.001 8.53288L1.79238 0.324227C1.59495 0.14356 1.33543 0.0460321 1.06787 0.0519603C0.800322 0.0578885 0.545374 0.166816 0.356139 0.35605C0.166905 0.545284 0.0579777 0.800232 0.0520495 1.06778C0.0461213 1.33534 0.143649 1.59486 0.324316 1.79229L8.52881 10.0009L0.322234 18.2075C0.221973 18.3031 0.141825 18.4177 0.0865018 18.5447C0.0311781 18.6716 0.00179485 18.8084 7.96885e-05 18.9469C-0.00163547 19.0854 0.0243521 19.2228 0.0765142 19.3511C0.128676 19.4794 0.20596 19.596 0.303824 19.694C0.401688 19.792 0.518155 19.8694 0.646381 19.9218C0.774607 19.9741 0.912003 20.0003 1.05049 19.9988C1.18898 19.9973 1.32577 19.9681 1.45282 19.9129C1.57987 19.8578 1.69461 19.7778 1.7903 19.6777L10.001 11.4711L18.2097 19.6797C18.4071 19.8604 18.6667 19.9579 18.9342 19.952C19.2018 19.9461 19.4567 19.8372 19.6459 19.6479C19.8352 19.4587 19.9441 19.2037 19.95 18.9362C19.956 18.6686 19.8584 18.4091 19.6778 18.2117L11.4691 10.003L19.6778 1.79229C19.778 1.69674 19.8582 1.58211 19.9135 1.45514C19.9688 1.32818 19.9982 1.19143 19.9999 1.05294C20.0016 0.914454 19.9756 0.777021 19.9235 0.648721C19.8713 0.520421 19.794 0.403844 19.6962 0.305842C19.5983 0.207839 19.4818 0.13039 19.3536 0.078046C19.2254 0.0257021 19.088 -0.000479805 18.9495 0.00103905C18.811 0.00255792 18.6742 0.0317471 18.5472 0.0868906C18.4201 0.142034 18.3054 0.222019 18.2097 0.322144V0.324227Z" fill="#21B39A"/>
</svg>
